<?xml version="1.0" encoding="utf-8" standalone="no"?>
<!DOCTYPE svg PUBLIC "-//W3C//DTD SVG 1.1//EN"
  "http://www.w3.org/Graphics/SVG/1.1/DTD/svg11.dtd">
<svg xmlns:xlink="http://www.w3.org/1999/xlink" width="856.541406pt" height="297.2125pt" viewBox="0 0 856.541406 297.2125" xmlns="http://www.w3.org/2000/svg" version="1.1">
 <metadata>
  <rdf:RDF xmlns:dc="http://purl.org/dc/elements/1.1/" xmlns:cc="http://creativecommons.org/ns#" xmlns:rdf="http://www.w3.org/1999/02/22-rdf-syntax-ns#">
   <cc:Work>
    <dc:type rdf:resource="http://purl.org/dc/dcmitype/StillImage"/>
    <dc:date>2025-12-25T21:13:26.966773</dc:date>
    <dc:format>image/svg+xml</dc:format>
    <dc:creator>
     <cc:Agent>
      <dc:title>Matplotlib v3.10.5, https://matplotlib.org/</dc:title>
     </cc:Agent>
    </dc:creator>
   </cc:Work>
  </rdf:RDF>
 </metadata>
 <defs>
  <style type="text/css">*{stroke-linejoin: round; stroke-linecap: butt}</style>
 </defs>
 <g id="figure_1">
  <g id="patch_1">
   <path d="M 0 297.2125 
L 856.541406 297.2125 
L 856.541406 0 
L 0 0 
z
" style="fill: #ffffff"/>
  </g>
  <g id="axes_1">
   <g id="patch_2">
    <path d="M 39.65875 263.15625 
L 273.385 263.15625 
L 273.385 63.46875 
L 39.65875 63.46875 
z
" style="fill: #ffffff"/>
   </g>
   <g id="matplotlib.axis_1">
    <g id="xtick_1">
     <g id="line2d_1">
      <path d="M 39.65875 263.15625 
L 39.65875 63.46875 
" clip-path="url(#pc6268924b7)" style="fill: none; stroke: #cccccc; stroke-opacity: 0.3; stroke-width: 0.8; stroke-linecap: round"/>
     </g>
     <g id="line2d_2"/>
     <g id="text_1">
      <!-- 0.0 -->
      <g style="fill: #262626" transform="translate(32.502344 273.494844) scale(0.09 -0.09)">
       <defs>
        <path id="DejaVuSerif-30" d="M 2034 219 
Q 2513 219 2750 744 
Q 2988 1269 2988 2328 
Q 2988 3391 2750 3916 
Q 2513 4441 2034 4441 
Q 1556 4441 1318 3916 
Q 1081 3391 1081 2328 
Q 1081 1269 1318 744 
Q 1556 219 2034 219 
z
M 2034 -91 
Q 1275 -91 848 546 
Q 422 1184 422 2328 
Q 422 3475 848 4112 
Q 1275 4750 2034 4750 
Q 2797 4750 3222 4112 
Q 3647 3475 3647 2328 
Q 3647 1184 3222 546 
Q 2797 -91 2034 -91 
z
" transform="scale(0.015625)"/>
        <path id="DejaVuSerif-2e" d="M 603 325 
Q 603 500 722 622 
Q 841 744 1019 744 
Q 1191 744 1312 622 
Q 1434 500 1434 325 
Q 1434 153 1312 31 
Q 1191 -91 1019 -91 
Q 841 -91 722 29 
Q 603 150 603 325 
z
" transform="scale(0.015625)"/>
       </defs>
       <use xlink:href="#DejaVuSerif-30"/>
       <use xlink:href="#DejaVuSerif-2e" transform="translate(63.623047 0)"/>
       <use xlink:href="#DejaVuSerif-30" transform="translate(95.410156 0)"/>
      </g>
     </g>
    </g>
    <g id="xtick_2">
     <g id="line2d_3">
      <path d="M 86.404 263.15625 
L 86.404 63.46875 
" clip-path="url(#pc6268924b7)" style="fill: none; stroke: #cccccc; stroke-opacity: 0.3; stroke-width: 0.8; stroke-linecap: round"/>
     </g>
     <g id="line2d_4"/>
     <g id="text_2">
      <!-- 0.2 -->
      <g style="fill: #262626" transform="translate(79.247594 273.494844) scale(0.09 -0.09)">
       <defs>
        <path id="DejaVuSerif-32" d="M 819 3553 
L 469 3553 
L 469 4384 
Q 803 4563 1142 4656 
Q 1481 4750 1806 4750 
Q 2534 4750 2956 4397 
Q 3378 4044 3378 3438 
Q 3378 2753 2422 1800 
Q 2347 1728 2309 1691 
L 1131 513 
L 3078 513 
L 3078 1088 
L 3444 1088 
L 3444 0 
L 434 0 
L 434 341 
L 1850 1753 
Q 2319 2222 2519 2614 
Q 2719 3006 2719 3438 
Q 2719 3909 2473 4175 
Q 2228 4441 1797 4441 
Q 1350 4441 1106 4219 
Q 863 3997 819 3553 
z
" transform="scale(0.015625)"/>
       </defs>
       <use xlink:href="#DejaVuSerif-30"/>
       <use xlink:href="#DejaVuSerif-2e" transform="translate(63.623047 0)"/>
       <use xlink:href="#DejaVuSerif-32" transform="translate(95.410156 0)"/>
      </g>
     </g>
    </g>
    <g id="xtick_3">
     <g id="line2d_5">
      <path d="M 133.14925 263.15625 
L 133.14925 63.46875 
" clip-path="url(#pc6268924b7)" style="fill: none; stroke: #cccccc; stroke-opacity: 0.3; stroke-width: 0.8; stroke-linecap: round"/>
     </g>
     <g id="line2d_6"/>
     <g id="text_3">
      <!-- 0.4 -->
      <g style="fill: #262626" transform="translate(125.992844 273.494844) scale(0.09 -0.09)">
       <defs>
        <path id="DejaVuSerif-34" d="M 2234 1581 
L 2234 4063 
L 641 1581 
L 2234 1581 
z
M 3609 0 
L 1484 0 
L 1484 331 
L 2234 331 
L 2234 1247 
L 197 1247 
L 197 1588 
L 2241 4750 
L 2859 4750 
L 2859 1581 
L 3750 1581 
L 3750 1247 
L 2859 1247 
L 2859 331 
L 3609 331 
L 3609 0 
z
" transform="scale(0.015625)"/>
       </defs>
       <use xlink:href="#DejaVuSerif-30"/>
       <use xlink:href="#DejaVuSerif-2e" transform="translate(63.623047 0)"/>
       <use xlink:href="#DejaVuSerif-34" transform="translate(95.410156 0)"/>
      </g>
     </g>
    </g>
    <g id="xtick_4">
     <g id="line2d_7">
      <path d="M 179.8945 263.15625 
L 179.8945 63.46875 
" clip-path="url(#pc6268924b7)" style="fill: none; stroke: #cccccc; stroke-opacity: 0.3; stroke-width: 0.8; stroke-linecap: round"/>
     </g>
     <g id="line2d_8"/>
     <g id="text_4">
      <!-- 0.6 -->
      <g style="fill: #262626" transform="translate(172.738094 273.494844) scale(0.09 -0.09)">
       <defs>
        <path id="DejaVuSerif-36" d="M 2094 219 
Q 2534 219 2771 542 
Q 3009 866 3009 1472 
Q 3009 2078 2771 2401 
Q 2534 2725 2094 2725 
Q 1647 2725 1412 2412 
Q 1178 2100 1178 1509 
Q 1178 888 1415 553 
Q 1653 219 2094 219 
z
M 1075 2569 
Q 1288 2803 1556 2918 
Q 1825 3034 2163 3034 
Q 2859 3034 3264 2615 
Q 3669 2197 3669 1472 
Q 3669 763 3233 336 
Q 2797 -91 2069 -91 
Q 1278 -91 853 498 
Q 428 1088 428 2181 
Q 428 3406 931 4078 
Q 1434 4750 2350 4750 
Q 2597 4750 2869 4703 
Q 3141 4656 3425 4563 
L 3425 3794 
L 3072 3794 
Q 3034 4109 2831 4275 
Q 2628 4441 2284 4441 
Q 1678 4441 1381 3981 
Q 1084 3522 1075 2569 
z
" transform="scale(0.015625)"/>
       </defs>
       <use xlink:href="#DejaVuSerif-30"/>
       <use xlink:href="#DejaVuSerif-2e" transform="translate(63.623047 0)"/>
       <use xlink:href="#DejaVuSerif-36" transform="translate(95.410156 0)"/>
      </g>
     </g>
    </g>
    <g id="xtick_5">
     <g id="line2d_9">
      <path d="M 226.63975 263.15625 
L 226.63975 63.46875 
" clip-path="url(#pc6268924b7)" style="fill: none; stroke: #cccccc; stroke-opacity: 0.3; stroke-width: 0.8; stroke-linecap: round"/>
     </g>
     <g id="line2d_10"/>
     <g id="text_5">
      <!-- 0.8 -->
      <g style="fill: #262626" transform="translate(219.483344 273.494844) scale(0.09 -0.09)">
       <defs>
        <path id="DejaVuSerif-38" d="M 2981 1275 
Q 2981 1775 2732 2051 
Q 2484 2328 2034 2328 
Q 1584 2328 1336 2051 
Q 1088 1775 1088 1275 
Q 1088 772 1336 495 
Q 1584 219 2034 219 
Q 2484 219 2732 495 
Q 2981 772 2981 1275 
z
M 2853 3541 
Q 2853 3966 2637 4203 
Q 2422 4441 2034 4441 
Q 1650 4441 1433 4203 
Q 1216 3966 1216 3541 
Q 1216 3113 1433 2875 
Q 1650 2638 2034 2638 
Q 2422 2638 2637 2875 
Q 2853 3113 2853 3541 
z
M 2516 2484 
Q 3047 2413 3344 2092 
Q 3641 1772 3641 1275 
Q 3641 619 3225 264 
Q 2809 -91 2034 -91 
Q 1263 -91 845 264 
Q 428 619 428 1275 
Q 428 1772 725 2092 
Q 1022 2413 1556 2484 
Q 1084 2569 832 2842 
Q 581 3116 581 3541 
Q 581 4103 968 4426 
Q 1356 4750 2034 4750 
Q 2713 4750 3100 4426 
Q 3488 4103 3488 3541 
Q 3488 3116 3236 2842 
Q 2984 2569 2516 2484 
z
" transform="scale(0.015625)"/>
       </defs>
       <use xlink:href="#DejaVuSerif-30"/>
       <use xlink:href="#DejaVuSerif-2e" transform="translate(63.623047 0)"/>
       <use xlink:href="#DejaVuSerif-38" transform="translate(95.410156 0)"/>
      </g>
     </g>
    </g>
    <g id="xtick_6">
     <g id="line2d_11">
      <path d="M 273.385 263.15625 
L 273.385 63.46875 
" clip-path="url(#pc6268924b7)" style="fill: none; stroke: #cccccc; stroke-opacity: 0.3; stroke-width: 0.8; stroke-linecap: round"/>
     </g>
     <g id="line2d_12"/>
     <g id="text_6">
      <!-- 1.0 -->
      <g style="fill: #262626" transform="translate(266.228594 273.494844) scale(0.09 -0.09)">
       <defs>
        <path id="DejaVuSerif-31" d="M 909 0 
L 909 331 
L 1722 331 
L 1722 4213 
L 781 3603 
L 781 4013 
L 1919 4750 
L 2350 4750 
L 2350 331 
L 3163 331 
L 3163 0 
L 909 0 
z
" transform="scale(0.015625)"/>
       </defs>
       <use xlink:href="#DejaVuSerif-31"/>
       <use xlink:href="#DejaVuSerif-2e" transform="translate(63.623047 0)"/>
       <use xlink:href="#DejaVuSerif-30" transform="translate(95.410156 0)"/>
      </g>
     </g>
    </g>
    <g id="text_7">
     <!-- Recall -->
     <g style="fill: #262626" transform="translate(139.247578 287.724844) scale(0.11 -0.11)">
      <defs>
       <path id="DejaVuSerif-52" d="M 3066 2316 
Q 3284 2256 3442 2114 
Q 3600 1972 3725 1716 
L 4403 331 
L 4972 331 
L 4972 0 
L 3872 0 
L 3144 1484 
Q 2934 1916 2759 2042 
Q 2584 2169 2278 2169 
L 1581 2169 
L 1581 331 
L 2241 331 
L 2241 0 
L 353 0 
L 353 331 
L 947 331 
L 947 4331 
L 353 4331 
L 353 4666 
L 2719 4666 
Q 3400 4666 3770 4341 
Q 4141 4016 4141 3419 
Q 4141 2938 3870 2661 
Q 3600 2384 3066 2316 
z
M 1581 2503 
L 2503 2503 
Q 2975 2503 3200 2726 
Q 3425 2950 3425 3419 
Q 3425 3888 3200 4109 
Q 2975 4331 2503 4331 
L 1581 4331 
L 1581 2503 
z
" transform="scale(0.015625)"/>
       <path id="DejaVuSerif-65" d="M 3469 1600 
L 991 1600 
L 991 1575 
Q 991 903 1244 561 
Q 1497 219 1991 219 
Q 2369 219 2611 417 
Q 2853 616 2950 1006 
L 3413 1006 
Q 3275 459 2904 184 
Q 2534 -91 1931 -91 
Q 1203 -91 761 389 
Q 319 869 319 1663 
Q 319 2450 753 2931 
Q 1188 3413 1894 3413 
Q 2647 3413 3050 2948 
Q 3453 2484 3469 1600 
z
M 2791 1931 
Q 2772 2513 2545 2808 
Q 2319 3103 1894 3103 
Q 1497 3103 1269 2806 
Q 1041 2509 991 1931 
L 2791 1931 
z
" transform="scale(0.015625)"/>
       <path id="DejaVuSerif-63" d="M 3291 997 
Q 3169 466 2822 187 
Q 2475 -91 1925 -91 
Q 1200 -91 759 389 
Q 319 869 319 1663 
Q 319 2459 759 2936 
Q 1200 3413 1925 3413 
Q 2241 3413 2553 3339 
Q 2866 3266 3181 3116 
L 3181 2266 
L 2847 2266 
Q 2781 2703 2561 2903 
Q 2341 3103 1931 3103 
Q 1466 3103 1228 2742 
Q 991 2381 991 1663 
Q 991 944 1227 581 
Q 1463 219 1931 219 
Q 2303 219 2525 412 
Q 2747 606 2828 997 
L 3291 997 
z
" transform="scale(0.015625)"/>
       <path id="DejaVuSerif-61" d="M 2547 1044 
L 2547 1747 
L 1806 1747 
Q 1378 1747 1168 1562 
Q 959 1378 959 997 
Q 959 650 1171 447 
Q 1384 244 1747 244 
Q 2106 244 2326 466 
Q 2547 688 2547 1044 
z
M 3122 2075 
L 3122 331 
L 3634 331 
L 3634 0 
L 2547 0 
L 2547 359 
Q 2356 128 2106 18 
Q 1856 -91 1522 -91 
Q 969 -91 644 203 
Q 319 497 319 997 
Q 319 1513 691 1797 
Q 1063 2081 1741 2081 
L 2547 2081 
L 2547 2309 
Q 2547 2688 2317 2895 
Q 2088 3103 1672 3103 
Q 1328 3103 1125 2947 
Q 922 2791 872 2484 
L 575 2484 
L 575 3156 
Q 875 3284 1158 3348 
Q 1441 3413 1709 3413 
Q 2400 3413 2761 3070 
Q 3122 2728 3122 2075 
z
" transform="scale(0.015625)"/>
       <path id="DejaVuSerif-6c" d="M 1313 331 
L 1856 331 
L 1856 0 
L 184 0 
L 184 331 
L 738 331 
L 738 4531 
L 184 4531 
L 184 4863 
L 1313 4863 
L 1313 331 
z
" transform="scale(0.015625)"/>
      </defs>
      <use xlink:href="#DejaVuSerif-52"/>
      <use xlink:href="#DejaVuSerif-65" transform="translate(75.292969 0)"/>
      <use xlink:href="#DejaVuSerif-63" transform="translate(134.472656 0)"/>
      <use xlink:href="#DejaVuSerif-61" transform="translate(190.478516 0)"/>
      <use xlink:href="#DejaVuSerif-6c" transform="translate(250.097656 0)"/>
      <use xlink:href="#DejaVuSerif-6c" transform="translate(282.080078 0)"/>
     </g>
    </g>
   </g>
   <g id="matplotlib.axis_2">
    <g id="ytick_1">
     <g id="line2d_13">
      <path d="M 39.65875 263.15625 
L 273.385 263.15625 
" clip-path="url(#pc6268924b7)" style="fill: none; stroke: #cccccc; stroke-opacity: 0.3; stroke-width: 0.8; stroke-linecap: round"/>
     </g>
     <g id="line2d_14"/>
     <g id="text_8">
      <!-- 0.0 -->
      <g style="fill: #262626" transform="translate(21.845938 266.575547) scale(0.09 -0.09)">
       <use xlink:href="#DejaVuSerif-30"/>
       <use xlink:href="#DejaVuSerif-2e" transform="translate(63.623047 0)"/>
       <use xlink:href="#DejaVuSerif-30" transform="translate(95.410156 0)"/>
      </g>
     </g>
    </g>
    <g id="ytick_2">
     <g id="line2d_15">
      <path d="M 39.65875 224.001838 
L 273.385 224.001838 
" clip-path="url(#pc6268924b7)" style="fill: none; stroke: #cccccc; stroke-opacity: 0.3; stroke-width: 0.8; stroke-linecap: round"/>
     </g>
     <g id="line2d_16"/>
     <g id="text_9">
      <!-- 0.2 -->
      <g style="fill: #262626" transform="translate(21.845938 227.421135) scale(0.09 -0.09)">
       <use xlink:href="#DejaVuSerif-30"/>
       <use xlink:href="#DejaVuSerif-2e" transform="translate(63.623047 0)"/>
       <use xlink:href="#DejaVuSerif-32" transform="translate(95.410156 0)"/>
      </g>
     </g>
    </g>
    <g id="ytick_3">
     <g id="line2d_17">
      <path d="M 39.65875 184.847426 
L 273.385 184.847426 
" clip-path="url(#pc6268924b7)" style="fill: none; stroke: #cccccc; stroke-opacity: 0.3; stroke-width: 0.8; stroke-linecap: round"/>
     </g>
     <g id="line2d_18"/>
     <g id="text_10">
      <!-- 0.4 -->
      <g style="fill: #262626" transform="translate(21.845938 188.266723) scale(0.09 -0.09)">
       <use xlink:href="#DejaVuSerif-30"/>
       <use xlink:href="#DejaVuSerif-2e" transform="translate(63.623047 0)"/>
       <use xlink:href="#DejaVuSerif-34" transform="translate(95.410156 0)"/>
      </g>
     </g>
    </g>
    <g id="ytick_4">
     <g id="line2d_19">
      <path d="M 39.65875 145.693015 
L 273.385 145.693015 
" clip-path="url(#pc6268924b7)" style="fill: none; stroke: #cccccc; stroke-opacity: 0.3; stroke-width: 0.8; stroke-linecap: round"/>
     </g>
     <g id="line2d_20"/>
     <g id="text_11">
      <!-- 0.6 -->
      <g style="fill: #262626" transform="translate(21.845938 149.112312) scale(0.09 -0.09)">
       <use xlink:href="#DejaVuSerif-30"/>
       <use xlink:href="#DejaVuSerif-2e" transform="translate(63.623047 0)"/>
       <use xlink:href="#DejaVuSerif-36" transform="translate(95.410156 0)"/>
      </g>
     </g>
    </g>
    <g id="ytick_5">
     <g id="line2d_21">
      <path d="M 39.65875 106.538603 
L 273.385 106.538603 
" clip-path="url(#pc6268924b7)" style="fill: none; stroke: #cccccc; stroke-opacity: 0.3; stroke-width: 0.8; stroke-linecap: round"/>
     </g>
     <g id="line2d_22"/>
     <g id="text_12">
      <!-- 0.8 -->
      <g style="fill: #262626" transform="translate(21.845938 109.9579) scale(0.09 -0.09)">
       <use xlink:href="#DejaVuSerif-30"/>
       <use xlink:href="#DejaVuSerif-2e" transform="translate(63.623047 0)"/>
       <use xlink:href="#DejaVuSerif-38" transform="translate(95.410156 0)"/>
      </g>
     </g>
    </g>
    <g id="ytick_6">
     <g id="line2d_23">
      <path d="M 39.65875 67.384191 
L 273.385 67.384191 
" clip-path="url(#pc6268924b7)" style="fill: none; stroke: #cccccc; stroke-opacity: 0.3; stroke-width: 0.8; stroke-linecap: round"/>
     </g>
     <g id="line2d_24"/>
     <g id="text_13">
      <!-- 1.0 -->
      <g style="fill: #262626" transform="translate(21.845938 70.803488) scale(0.09 -0.09)">
       <use xlink:href="#DejaVuSerif-31"/>
       <use xlink:href="#DejaVuSerif-2e" transform="translate(63.623047 0)"/>
       <use xlink:href="#DejaVuSerif-30" transform="translate(95.410156 0)"/>
      </g>
     </g>
    </g>
    <g id="text_14">
     <!-- Precision -->
     <g style="fill: #262626" transform="translate(15.558281 189.171094) rotate(-90) scale(0.11 -0.11)">
      <defs>
       <path id="DejaVuSerif-50" d="M 1581 2375 
L 2406 2375 
Q 2872 2375 3115 2626 
Q 3359 2878 3359 3353 
Q 3359 3831 3115 4081 
Q 2872 4331 2406 4331 
L 1581 4331 
L 1581 2375 
z
M 353 0 
L 353 331 
L 947 331 
L 947 4331 
L 353 4331 
L 353 4666 
L 2559 4666 
Q 3259 4666 3668 4311 
Q 4078 3956 4078 3353 
Q 4078 2753 3668 2397 
Q 3259 2041 2559 2041 
L 1581 2041 
L 1581 331 
L 2303 331 
L 2303 0 
L 353 0 
z
" transform="scale(0.015625)"/>
       <path id="DejaVuSerif-72" d="M 3059 3328 
L 3059 2497 
L 2728 2497 
Q 2713 2744 2591 2866 
Q 2469 2988 2234 2988 
Q 1809 2988 1582 2694 
Q 1356 2400 1356 1850 
L 1356 331 
L 2022 331 
L 2022 0 
L 263 0 
L 263 331 
L 781 331 
L 781 2994 
L 231 2994 
L 231 3322 
L 1356 3322 
L 1356 2731 
Q 1525 3078 1790 3245 
Q 2056 3413 2438 3413 
Q 2578 3413 2733 3391 
Q 2888 3369 3059 3328 
z
" transform="scale(0.015625)"/>
       <path id="DejaVuSerif-69" d="M 622 4353 
Q 622 4497 726 4603 
Q 831 4709 978 4709 
Q 1122 4709 1226 4603 
Q 1331 4497 1331 4353 
Q 1331 4206 1228 4103 
Q 1125 4000 978 4000 
Q 831 4000 726 4103 
Q 622 4206 622 4353 
z
M 1356 331 
L 1900 331 
L 1900 0 
L 231 0 
L 231 331 
L 781 331 
L 781 2988 
L 231 2988 
L 231 3322 
L 1356 3322 
L 1356 331 
z
" transform="scale(0.015625)"/>
       <path id="DejaVuSerif-73" d="M 359 184 
L 359 959 
L 691 959 
Q 703 588 923 403 
Q 1144 219 1575 219 
Q 1963 219 2166 364 
Q 2369 509 2369 788 
Q 2369 1006 2220 1140 
Q 2072 1275 1594 1428 
L 1178 1569 
Q 750 1706 558 1912 
Q 366 2119 366 2438 
Q 366 2894 700 3153 
Q 1034 3413 1625 3413 
Q 1888 3413 2178 3344 
Q 2469 3275 2778 3144 
L 2778 2419 
L 2447 2419 
Q 2434 2741 2221 2922 
Q 2009 3103 1644 3103 
Q 1281 3103 1095 2975 
Q 909 2847 909 2591 
Q 909 2381 1050 2254 
Q 1191 2128 1613 1997 
L 2069 1856 
Q 2541 1709 2748 1489 
Q 2956 1269 2956 922 
Q 2956 450 2595 179 
Q 2234 -91 1600 -91 
Q 1278 -91 972 -22 
Q 666 47 359 184 
z
" transform="scale(0.015625)"/>
       <path id="DejaVuSerif-6f" d="M 1925 219 
Q 2388 219 2623 584 
Q 2859 950 2859 1663 
Q 2859 2375 2623 2739 
Q 2388 3103 1925 3103 
Q 1463 3103 1227 2739 
Q 991 2375 991 1663 
Q 991 950 1228 584 
Q 1466 219 1925 219 
z
M 1925 -91 
Q 1200 -91 759 389 
Q 319 869 319 1663 
Q 319 2456 758 2934 
Q 1197 3413 1925 3413 
Q 2653 3413 3092 2934 
Q 3531 2456 3531 1663 
Q 3531 869 3092 389 
Q 2653 -91 1925 -91 
z
" transform="scale(0.015625)"/>
       <path id="DejaVuSerif-6e" d="M 263 0 
L 263 331 
L 781 331 
L 781 2988 
L 231 2988 
L 231 3322 
L 1356 3322 
L 1356 2731 
Q 1516 3069 1770 3241 
Q 2025 3413 2363 3413 
Q 2913 3413 3172 3097 
Q 3431 2781 3431 2113 
L 3431 331 
L 3944 331 
L 3944 0 
L 2356 0 
L 2356 331 
L 2853 331 
L 2853 1931 
Q 2853 2541 2703 2767 
Q 2553 2994 2175 2994 
Q 1775 2994 1565 2701 
Q 1356 2409 1356 1850 
L 1356 331 
L 1856 331 
L 1856 0 
L 263 0 
z
" transform="scale(0.015625)"/>
      </defs>
      <use xlink:href="#DejaVuSerif-50"/>
      <use xlink:href="#DejaVuSerif-72" transform="translate(67.285156 0)"/>
      <use xlink:href="#DejaVuSerif-65" transform="translate(115.087891 0)"/>
      <use xlink:href="#DejaVuSerif-63" transform="translate(174.267578 0)"/>
      <use xlink:href="#DejaVuSerif-69" transform="translate(230.273438 0)"/>
      <use xlink:href="#DejaVuSerif-73" transform="translate(262.255859 0)"/>
      <use xlink:href="#DejaVuSerif-69" transform="translate(313.574219 0)"/>
      <use xlink:href="#DejaVuSerif-6f" transform="translate(345.556641 0)"/>
      <use xlink:href="#DejaVuSerif-6e" transform="translate(405.761719 0)"/>
     </g>
    </g>
   </g>
   <g id="FillBetweenPolyCollection_1">
    <defs>
     <path id="mbe0cbb7935" d="M 39.65875 -34.05625 
L 39.65875 -229.828309 
L 42.019621 -229.730901 
L 44.380492 -229.633337 
L 46.741364 -229.535617 
L 49.102235 -229.437741 
L 51.463106 -229.339709 
L 53.823977 -229.241521 
L 56.184848 -229.143176 
L 58.54572 -229.044676 
L 60.906591 -228.94602 
L 63.267462 -228.847207 
L 65.628333 -228.748239 
L 67.989205 -228.649115 
L 70.350076 -228.549834 
L 72.710947 -228.450397 
L 75.071818 -228.350805 
L 77.432689 -228.251056 
L 79.793561 -228.151152 
L 82.154432 -228.051091 
L 84.515303 -227.950874 
L 86.876174 -227.850501 
L 89.237045 -227.749972 
L 91.597917 -227.649287 
L 93.958788 -227.548446 
L 96.319659 -227.447449 
L 98.68053 -227.346296 
L 101.041402 -227.244987 
L 103.402273 -227.143522 
L 105.763144 -227.041901 
L 108.124015 -226.940124 
L 110.484886 -226.838246 
L 112.845758 -226.737156 
L 115.206629 -226.637157 
L 117.5675 -226.538251 
L 119.928371 -226.440438 
L 122.289242 -226.343717 
L 124.650114 -226.248088 
L 127.010985 -226.153551 
L 129.371856 -226.060107 
L 131.732727 -225.967755 
L 134.093598 -225.876495 
L 136.45447 -225.786328 
L 138.815341 -225.697253 
L 141.176212 -225.60927 
L 143.537083 -225.52238 
L 145.897955 -225.436582 
L 148.258826 -225.351876 
L 150.619697 -225.268262 
L 152.980568 -225.185741 
L 155.341439 -225.104313 
L 157.702311 -225.02304 
L 160.063182 -224.936306 
L 162.424053 -224.843174 
L 164.784924 -224.743643 
L 167.145795 -224.637715 
L 169.506667 -224.525389 
L 171.867538 -224.406665 
L 174.228409 -224.281543 
L 176.58928 -224.150023 
L 178.950152 -224.012106 
L 181.311023 -223.86779 
L 183.671894 -223.717076 
L 186.032765 -223.559964 
L 188.393636 -223.396455 
L 190.754508 -223.226547 
L 193.115379 -223.050242 
L 195.47625 -222.867538 
L 197.837121 -222.678437 
L 200.197992 -222.482938 
L 202.558864 -222.281041 
L 204.919735 -222.073663 
L 207.280606 -221.863462 
L 209.641477 -221.650607 
L 212.002348 -221.435099 
L 214.36322 -221.216936 
L 216.724091 -220.996119 
L 219.084962 -220.772648 
L 221.445833 -220.546523 
L 223.806705 -220.317744 
L 226.167576 -220.086311 
L 228.528447 -219.852224 
L 230.889318 -219.615482 
L 233.250189 -219.376087 
L 235.611061 -219.134037 
L 237.971932 -218.889334 
L 240.332803 -218.59846 
L 242.693674 -218.185826 
L 245.054545 -217.650077 
L 247.415417 -216.991213 
L 249.776288 -216.209234 
L 252.137159 -215.30414 
L 254.49803 -214.275931 
L 256.858902 -213.120821 
L 259.219773 -211.807604 
L 261.580644 -210.329348 
L 263.941515 -208.686054 
L 266.302386 -206.877723 
L 268.663258 -204.904353 
L 271.024129 -202.765946 
L 273.385 -200.4625 
L 273.385 -34.05625 
L 273.385 -34.05625 
L 271.024129 -34.05625 
L 268.663258 -34.05625 
L 266.302386 -34.05625 
L 263.941515 -34.05625 
L 261.580644 -34.05625 
L 259.219773 -34.05625 
L 256.858902 -34.05625 
L 254.49803 -34.05625 
L 252.137159 -34.05625 
L 249.776288 -34.05625 
L 247.415417 -34.05625 
L 245.054545 -34.05625 
L 242.693674 -34.05625 
L 240.332803 -34.05625 
L 237.971932 -34.05625 
L 235.611061 -34.05625 
L 233.250189 -34.05625 
L 230.889318 -34.05625 
L 228.528447 -34.05625 
L 226.167576 -34.05625 
L 223.806705 -34.05625 
L 221.445833 -34.05625 
L 219.084962 -34.05625 
L 216.724091 -34.05625 
L 214.36322 -34.05625 
L 212.002348 -34.05625 
L 209.641477 -34.05625 
L 207.280606 -34.05625 
L 204.919735 -34.05625 
L 202.558864 -34.05625 
L 200.197992 -34.05625 
L 197.837121 -34.05625 
L 195.47625 -34.05625 
L 193.115379 -34.05625 
L 190.754508 -34.05625 
L 188.393636 -34.05625 
L 186.032765 -34.05625 
L 183.671894 -34.05625 
L 181.311023 -34.05625 
L 178.950152 -34.05625 
L 176.58928 -34.05625 
L 174.228409 -34.05625 
L 171.867538 -34.05625 
L 169.506667 -34.05625 
L 167.145795 -34.05625 
L 164.784924 -34.05625 
L 162.424053 -34.05625 
L 160.063182 -34.05625 
L 157.702311 -34.05625 
L 155.341439 -34.05625 
L 152.980568 -34.05625 
L 150.619697 -34.05625 
L 148.258826 -34.05625 
L 145.897955 -34.05625 
L 143.537083 -34.05625 
L 141.176212 -34.05625 
L 138.815341 -34.05625 
L 136.45447 -34.05625 
L 134.093598 -34.05625 
L 131.732727 -34.05625 
L 129.371856 -34.05625 
L 127.010985 -34.05625 
L 124.650114 -34.05625 
L 122.289242 -34.05625 
L 119.928371 -34.05625 
L 117.5675 -34.05625 
L 115.206629 -34.05625 
L 112.845758 -34.05625 
L 110.484886 -34.05625 
L 108.124015 -34.05625 
L 105.763144 -34.05625 
L 103.402273 -34.05625 
L 101.041402 -34.05625 
L 98.68053 -34.05625 
L 96.319659 -34.05625 
L 93.958788 -34.05625 
L 91.597917 -34.05625 
L 89.237045 -34.05625 
L 86.876174 -34.05625 
L 84.515303 -34.05625 
L 82.154432 -34.05625 
L 79.793561 -34.05625 
L 77.432689 -34.05625 
L 75.071818 -34.05625 
L 72.710947 -34.05625 
L 70.350076 -34.05625 
L 67.989205 -34.05625 
L 65.628333 -34.05625 
L 63.267462 -34.05625 
L 60.906591 -34.05625 
L 58.54572 -34.05625 
L 56.184848 -34.05625 
L 53.823977 -34.05625 
L 51.463106 -34.05625 
L 49.102235 -34.05625 
L 46.741364 -34.05625 
L 44.380492 -34.05625 
L 42.019621 -34.05625 
L 39.65875 -34.05625 
z
" style="stroke: #2ecc71; stroke-opacity: 0.3"/>
    </defs>
    <g clip-path="url(#pc6268924b7)">
     <use xlink:href="#mbe0cbb7935" x="0" y="297.2125" style="fill: #2ecc71; fill-opacity: 0.3; stroke: #2ecc71; stroke-opacity: 0.3"/>
    </g>
   </g>
   <g id="line2d_25">
    <path d="M 39.65875 67.384191 
L 42.019621 67.481599 
L 44.380492 67.579163 
L 46.741364 67.676883 
L 49.102235 67.774759 
L 51.463106 67.872791 
L 53.823977 67.970979 
L 56.184848 68.069324 
L 58.54572 68.167824 
L 60.906591 68.26648 
L 63.267462 68.365293 
L 65.628333 68.464261 
L 67.989205 68.563385 
L 70.350076 68.662666 
L 72.710947 68.762103 
L 75.071818 68.861695 
L 77.432689 68.961444 
L 79.793561 69.061348 
L 82.154432 69.161409 
L 84.515303 69.261626 
L 86.876174 69.361999 
L 89.237045 69.462528 
L 91.597917 69.563213 
L 93.958788 69.664054 
L 96.319659 69.765051 
L 98.68053 69.866204 
L 101.041402 69.967513 
L 103.402273 70.068978 
L 105.763144 70.170599 
L 108.124015 70.272376 
L 110.484886 70.374254 
L 112.845758 70.475344 
L 115.206629 70.575343 
L 117.5675 70.674249 
L 119.928371 70.772062 
L 122.289242 70.868783 
L 124.650114 70.964412 
L 127.010985 71.058949 
L 129.371856 71.152393 
L 131.732727 71.244745 
L 134.093598 71.336005 
L 136.45447 71.426172 
L 138.815341 71.515247 
L 141.176212 71.60323 
L 143.537083 71.69012 
L 145.897955 71.775918 
L 148.258826 71.860624 
L 150.619697 71.944238 
L 152.980568 72.026759 
L 155.341439 72.108187 
L 157.702311 72.18946 
L 160.063182 72.276194 
L 162.424053 72.369326 
L 164.784924 72.468857 
L 167.145795 72.574785 
L 169.506667 72.687111 
L 171.867538 72.805835 
L 174.228409 72.930957 
L 176.58928 73.062477 
L 178.950152 73.200394 
L 181.311023 73.34471 
L 183.671894 73.495424 
L 186.032765 73.652536 
L 188.393636 73.816045 
L 190.754508 73.985953 
L 193.115379 74.162258 
L 195.47625 74.344962 
L 197.837121 74.534063 
L 200.197992 74.729562 
L 202.558864 74.931459 
L 204.919735 75.138837 
L 207.280606 75.349038 
L 209.641477 75.561893 
L 212.002348 75.777401 
L 214.36322 75.995564 
L 216.724091 76.216381 
L 219.084962 76.439852 
L 221.445833 76.665977 
L 223.806705 76.894756 
L 226.167576 77.126189 
L 228.528447 77.360276 
L 230.889318 77.597018 
L 233.250189 77.836413 
L 235.611061 78.078463 
L 237.971932 78.323166 
L 240.332803 78.61404 
L 242.693674 79.026674 
L 245.054545 79.562423 
L 247.415417 80.221287 
L 249.776288 81.003266 
L 252.137159 81.90836 
L 254.49803 82.936569 
L 256.858902 84.091679 
L 259.219773 85.404896 
L 261.580644 86.883152 
L 263.941515 88.526446 
L 266.302386 90.334777 
L 268.663258 92.308147 
L 271.024129 94.446554 
L 273.385 96.75 
" clip-path="url(#pc6268924b7)" style="fill: none; stroke: #2ecc71; stroke-width: 2.5; stroke-linecap: round"/>
   </g>
   <g id="line2d_26">
    <path d="M 39.65875 165.270221 
L 273.385 165.270221 
" clip-path="url(#pc6268924b7)" style="fill: none; stroke-dasharray: 5.55,2.4; stroke-dashoffset: 0; stroke: #808080; stroke-opacity: 0.5; stroke-width: 1.5"/>
   </g>
   <g id="patch_3">
    <path d="M 39.65875 263.15625 
L 39.65875 63.46875 
" style="fill: none; stroke: #cccccc; stroke-linejoin: miter; stroke-linecap: square"/>
   </g>
   <g id="patch_4">
    <path d="M 273.385 263.15625 
L 273.385 63.46875 
" style="fill: none; stroke: #cccccc; stroke-linejoin: miter; stroke-linecap: square"/>
   </g>
   <g id="patch_5">
    <path d="M 39.65875 263.15625 
L 273.385 263.15625 
" style="fill: none; stroke: #cccccc; stroke-linejoin: miter; stroke-linecap: square"/>
   </g>
   <g id="patch_6">
    <path d="M 39.65875 63.46875 
L 273.385 63.46875 
" style="fill: none; stroke: #cccccc; stroke-linejoin: miter; stroke-linecap: square"/>
   </g>
   <g id="text_15">
    <!-- DEAP Dataset -->
    <g style="fill: #262626" transform="translate(113.636875 57.46875) scale(0.12 -0.12)">
     <defs>
      <path id="DejaVuSerif-44" d="M 1581 331 
L 2163 331 
Q 3072 331 3558 850 
Q 4044 1369 4044 2338 
Q 4044 3306 3559 3818 
Q 3075 4331 2163 4331 
L 1581 4331 
L 1581 331 
z
M 353 0 
L 353 331 
L 947 331 
L 947 4331 
L 353 4331 
L 353 4666 
L 2209 4666 
Q 3416 4666 4089 4050 
Q 4763 3434 4763 2338 
Q 4763 1238 4088 619 
Q 3413 0 2209 0 
L 353 0 
z
" transform="scale(0.015625)"/>
      <path id="DejaVuSerif-45" d="M 353 0 
L 353 331 
L 947 331 
L 947 4331 
L 353 4331 
L 353 4666 
L 4109 4666 
L 4109 3628 
L 3725 3628 
L 3725 4281 
L 1581 4281 
L 1581 2719 
L 3109 2719 
L 3109 3303 
L 3494 3303 
L 3494 1753 
L 3109 1753 
L 3109 2338 
L 1581 2338 
L 1581 384 
L 3775 384 
L 3775 1038 
L 4159 1038 
L 4159 0 
L 353 0 
z
" transform="scale(0.015625)"/>
      <path id="DejaVuSerif-41" d="M 1281 1691 
L 2994 1691 
L 2138 3909 
L 1281 1691 
z
M -38 0 
L -38 331 
L 372 331 
L 2034 4666 
L 2559 4666 
L 4225 331 
L 4684 331 
L 4684 0 
L 2988 0 
L 2988 331 
L 3506 331 
L 3116 1356 
L 1153 1356 
L 763 331 
L 1275 331 
L 1275 0 
L -38 0 
z
" transform="scale(0.015625)"/>
      <path id="DejaVuSerif-20" transform="scale(0.015625)"/>
      <path id="DejaVuSerif-74" d="M 691 2988 
L 184 2988 
L 184 3322 
L 691 3322 
L 691 4353 
L 1269 4353 
L 1269 3322 
L 2350 3322 
L 2350 2988 
L 1269 2988 
L 1269 878 
Q 1269 456 1350 337 
Q 1431 219 1650 219 
Q 1875 219 1978 351 
Q 2081 484 2088 781 
L 2522 781 
Q 2497 328 2275 118 
Q 2053 -91 1600 -91 
Q 1103 -91 897 129 
Q 691 350 691 878 
L 691 2988 
z
" transform="scale(0.015625)"/>
     </defs>
     <use xlink:href="#DejaVuSerif-44"/>
     <use xlink:href="#DejaVuSerif-45" transform="translate(80.175781 0)"/>
     <use xlink:href="#DejaVuSerif-41" transform="translate(153.173828 0)"/>
     <use xlink:href="#DejaVuSerif-50" transform="translate(225.390625 0)"/>
     <use xlink:href="#DejaVuSerif-20" transform="translate(292.675781 0)"/>
     <use xlink:href="#DejaVuSerif-44" transform="translate(324.462891 0)"/>
     <use xlink:href="#DejaVuSerif-61" transform="translate(404.638672 0)"/>
     <use xlink:href="#DejaVuSerif-74" transform="translate(464.257812 0)"/>
     <use xlink:href="#DejaVuSerif-61" transform="translate(504.443359 0)"/>
     <use xlink:href="#DejaVuSerif-73" transform="translate(564.0625 0)"/>
     <use xlink:href="#DejaVuSerif-65" transform="translate(615.380859 0)"/>
     <use xlink:href="#DejaVuSerif-74" transform="translate(674.560547 0)"/>
    </g>
   </g>
   <g id="legend_1">
    <g id="line2d_27">
     <path d="M 47.75875 236.824219 
L 56.75875 236.824219 
L 65.75875 236.824219 
" style="fill: none; stroke: #2ecc71; stroke-width: 2.5; stroke-linecap: round"/>
    </g>
    <g id="text_16">
     <!-- PR (AP = 0.978) -->
     <g style="fill: #262626" transform="translate(72.95875 239.974219) scale(0.09 -0.09)">
      <defs>
       <path id="DejaVuSerif-28" d="M 2041 -997 
Q 1281 -656 893 83 
Q 506 822 506 1931 
Q 506 3044 893 3783 
Q 1281 4522 2041 4863 
L 2041 4556 
Q 1559 4225 1350 3623 
Q 1141 3022 1141 1931 
Q 1141 844 1350 242 
Q 1559 -359 2041 -691 
L 2041 -997 
z
" transform="scale(0.015625)"/>
       <path id="DejaVuSerif-3d" d="M 678 2894 
L 4684 2894 
L 4684 2394 
L 678 2394 
L 678 2894 
z
M 678 1619 
L 4684 1619 
L 4684 1119 
L 678 1119 
L 678 1619 
z
" transform="scale(0.015625)"/>
       <path id="DejaVuSerif-39" d="M 2994 2091 
Q 2784 1856 2512 1740 
Q 2241 1625 1900 1625 
Q 1206 1625 804 2044 
Q 403 2463 403 3188 
Q 403 3897 839 4323 
Q 1275 4750 2003 4750 
Q 2794 4750 3217 4161 
Q 3641 3572 3641 2478 
Q 3641 1253 3137 581 
Q 2634 -91 1722 -91 
Q 1475 -91 1203 -44 
Q 931 3 647 97 
L 647 872 
L 997 872 
Q 1038 556 1241 387 
Q 1444 219 1784 219 
Q 2391 219 2687 676 
Q 2984 1134 2994 2091 
z
M 1978 4441 
Q 1534 4441 1298 4117 
Q 1063 3794 1063 3188 
Q 1063 2581 1298 2256 
Q 1534 1931 1978 1931 
Q 2422 1931 2658 2245 
Q 2894 2559 2894 3150 
Q 2894 3772 2656 4106 
Q 2419 4441 1978 4441 
z
" transform="scale(0.015625)"/>
       <path id="DejaVuSerif-37" d="M 3609 4347 
L 1784 0 
L 1319 0 
L 3059 4153 
L 903 4153 
L 903 3578 
L 538 3578 
L 538 4666 
L 3609 4666 
L 3609 4347 
z
" transform="scale(0.015625)"/>
       <path id="DejaVuSerif-29" d="M 453 -997 
L 453 -691 
Q 934 -359 1145 242 
Q 1356 844 1356 1931 
Q 1356 3022 1145 3623 
Q 934 4225 453 4556 
L 453 4863 
Q 1216 4522 1603 3783 
Q 1991 3044 1991 1931 
Q 1991 822 1603 83 
Q 1216 -656 453 -997 
z
" transform="scale(0.015625)"/>
      </defs>
      <use xlink:href="#DejaVuSerif-50"/>
      <use xlink:href="#DejaVuSerif-52" transform="translate(67.285156 0)"/>
      <use xlink:href="#DejaVuSerif-20" transform="translate(142.578125 0)"/>
      <use xlink:href="#DejaVuSerif-28" transform="translate(174.365234 0)"/>
      <use xlink:href="#DejaVuSerif-41" transform="translate(213.378906 0)"/>
      <use xlink:href="#DejaVuSerif-50" transform="translate(285.595703 0)"/>
      <use xlink:href="#DejaVuSerif-20" transform="translate(352.880859 0)"/>
      <use xlink:href="#DejaVuSerif-3d" transform="translate(384.667969 0)"/>
      <use xlink:href="#DejaVuSerif-20" transform="translate(468.457031 0)"/>
      <use xlink:href="#DejaVuSerif-30" transform="translate(500.244141 0)"/>
      <use xlink:href="#DejaVuSerif-2e" transform="translate(563.867188 0)"/>
      <use xlink:href="#DejaVuSerif-39" transform="translate(595.654297 0)"/>
      <use xlink:href="#DejaVuSerif-37" transform="translate(659.277344 0)"/>
      <use xlink:href="#DejaVuSerif-38" transform="translate(722.900391 0)"/>
      <use xlink:href="#DejaVuSerif-29" transform="translate(786.523438 0)"/>
     </g>
    </g>
    <g id="line2d_28">
     <path d="M 47.75875 250.034531 
L 56.75875 250.034531 
L 65.75875 250.034531 
" style="fill: none; stroke-dasharray: 5.55,2.4; stroke-dashoffset: 0; stroke: #808080; stroke-opacity: 0.5; stroke-width: 1.5"/>
    </g>
    <g id="text_17">
     <!-- Random -->
     <g style="fill: #262626" transform="translate(72.95875 253.184531) scale(0.09 -0.09)">
      <defs>
       <path id="DejaVuSerif-64" d="M 3359 331 
L 3909 331 
L 3909 0 
L 2784 0 
L 2784 519 
Q 2616 206 2355 57 
Q 2094 -91 1709 -91 
Q 1097 -91 708 395 
Q 319 881 319 1663 
Q 319 2444 706 2928 
Q 1094 3413 1709 3413 
Q 2094 3413 2355 3264 
Q 2616 3116 2784 2803 
L 2784 4531 
L 2241 4531 
L 2241 4863 
L 3359 4863 
L 3359 331 
z
M 2784 1497 
L 2784 1825 
Q 2784 2422 2554 2737 
Q 2325 3053 1888 3053 
Q 1444 3053 1217 2703 
Q 991 2353 991 1663 
Q 991 975 1217 622 
Q 1444 269 1888 269 
Q 2325 269 2554 583 
Q 2784 897 2784 1497 
z
" transform="scale(0.015625)"/>
       <path id="DejaVuSerif-6d" d="M 3316 2675 
Q 3481 3041 3739 3227 
Q 3997 3413 4341 3413 
Q 4863 3413 5119 3089 
Q 5375 2766 5375 2113 
L 5375 331 
L 5894 331 
L 5894 0 
L 4300 0 
L 4300 331 
L 4800 331 
L 4800 2047 
Q 4800 2556 4650 2772 
Q 4500 2988 4153 2988 
Q 3769 2988 3567 2697 
Q 3366 2406 3366 1850 
L 3366 331 
L 3866 331 
L 3866 0 
L 2291 0 
L 2291 331 
L 2791 331 
L 2791 2069 
Q 2791 2566 2641 2777 
Q 2491 2988 2144 2988 
Q 1759 2988 1557 2697 
Q 1356 2406 1356 1850 
L 1356 331 
L 1856 331 
L 1856 0 
L 263 0 
L 263 331 
L 781 331 
L 781 2994 
L 231 2994 
L 231 3322 
L 1356 3322 
L 1356 2731 
Q 1516 3063 1762 3238 
Q 2009 3413 2322 3413 
Q 2709 3413 2968 3220 
Q 3228 3028 3316 2675 
z
" transform="scale(0.015625)"/>
      </defs>
      <use xlink:href="#DejaVuSerif-52"/>
      <use xlink:href="#DejaVuSerif-61" transform="translate(77.542969 0)"/>
      <use xlink:href="#DejaVuSerif-6e" transform="translate(137.162109 0)"/>
      <use xlink:href="#DejaVuSerif-64" transform="translate(201.566406 0)"/>
      <use xlink:href="#DejaVuSerif-6f" transform="translate(265.580078 0)"/>
      <use xlink:href="#DejaVuSerif-6d" transform="translate(325.785156 0)"/>
     </g>
    </g>
   </g>
  </g>
  <g id="axes_2">
   <g id="patch_7">
    <path d="M 324.05875 263.15625 
L 557.785 263.15625 
L 557.785 63.46875 
L 324.05875 63.46875 
z
" style="fill: #ffffff"/>
   </g>
   <g id="matplotlib.axis_3">
    <g id="xtick_7">
     <g id="line2d_29">
      <path d="M 324.05875 263.15625 
L 324.05875 63.46875 
" clip-path="url(#pdb0b4aaa62)" style="fill: none; stroke: #cccccc; stroke-opacity: 0.3; stroke-width: 0.8; stroke-linecap: round"/>
     </g>
     <g id="line2d_30"/>
     <g id="text_18">
      <!-- 0.0 -->
      <g style="fill: #262626" transform="translate(316.902344 273.494844) scale(0.09 -0.09)">
       <use xlink:href="#DejaVuSerif-30"/>
       <use xlink:href="#DejaVuSerif-2e" transform="translate(63.623047 0)"/>
       <use xlink:href="#DejaVuSerif-30" transform="translate(95.410156 0)"/>
      </g>
     </g>
    </g>
    <g id="xtick_8">
     <g id="line2d_31">
      <path d="M 370.804 263.15625 
L 370.804 63.46875 
" clip-path="url(#pdb0b4aaa62)" style="fill: none; stroke: #cccccc; stroke-opacity: 0.3; stroke-width: 0.8; stroke-linecap: round"/>
     </g>
     <g id="line2d_32"/>
     <g id="text_19">
      <!-- 0.2 -->
      <g style="fill: #262626" transform="translate(363.647594 273.494844) scale(0.09 -0.09)">
       <use xlink:href="#DejaVuSerif-30"/>
       <use xlink:href="#DejaVuSerif-2e" transform="translate(63.623047 0)"/>
       <use xlink:href="#DejaVuSerif-32" transform="translate(95.410156 0)"/>
      </g>
     </g>
    </g>
    <g id="xtick_9">
     <g id="line2d_33">
      <path d="M 417.54925 263.15625 
L 417.54925 63.46875 
" clip-path="url(#pdb0b4aaa62)" style="fill: none; stroke: #cccccc; stroke-opacity: 0.3; stroke-width: 0.8; stroke-linecap: round"/>
     </g>
     <g id="line2d_34"/>
     <g id="text_20">
      <!-- 0.4 -->
      <g style="fill: #262626" transform="translate(410.392844 273.494844) scale(0.09 -0.09)">
       <use xlink:href="#DejaVuSerif-30"/>
       <use xlink:href="#DejaVuSerif-2e" transform="translate(63.623047 0)"/>
       <use xlink:href="#DejaVuSerif-34" transform="translate(95.410156 0)"/>
      </g>
     </g>
    </g>
    <g id="xtick_10">
     <g id="line2d_35">
      <path d="M 464.2945 263.15625 
L 464.2945 63.46875 
" clip-path="url(#pdb0b4aaa62)" style="fill: none; stroke: #cccccc; stroke-opacity: 0.3; stroke-width: 0.8; stroke-linecap: round"/>
     </g>
     <g id="line2d_36"/>
     <g id="text_21">
      <!-- 0.6 -->
      <g style="fill: #262626" transform="translate(457.138094 273.494844) scale(0.09 -0.09)">
       <use xlink:href="#DejaVuSerif-30"/>
       <use xlink:href="#DejaVuSerif-2e" transform="translate(63.623047 0)"/>
       <use xlink:href="#DejaVuSerif-36" transform="translate(95.410156 0)"/>
      </g>
     </g>
    </g>
    <g id="xtick_11">
     <g id="line2d_37">
      <path d="M 511.03975 263.15625 
L 511.03975 63.46875 
" clip-path="url(#pdb0b4aaa62)" style="fill: none; stroke: #cccccc; stroke-opacity: 0.3; stroke-width: 0.8; stroke-linecap: round"/>
     </g>
     <g id="line2d_38"/>
     <g id="text_22">
      <!-- 0.8 -->
      <g style="fill: #262626" transform="translate(503.883344 273.494844) scale(0.09 -0.09)">
       <use xlink:href="#DejaVuSerif-30"/>
       <use xlink:href="#DejaVuSerif-2e" transform="translate(63.623047 0)"/>
       <use xlink:href="#DejaVuSerif-38" transform="translate(95.410156 0)"/>
      </g>
     </g>
    </g>
    <g id="xtick_12">
     <g id="line2d_39">
      <path d="M 557.785 263.15625 
L 557.785 63.46875 
" clip-path="url(#pdb0b4aaa62)" style="fill: none; stroke: #cccccc; stroke-opacity: 0.3; stroke-width: 0.8; stroke-linecap: round"/>
     </g>
     <g id="line2d_40"/>
     <g id="text_23">
      <!-- 1.0 -->
      <g style="fill: #262626" transform="translate(550.628594 273.494844) scale(0.09 -0.09)">
       <use xlink:href="#DejaVuSerif-31"/>
       <use xlink:href="#DejaVuSerif-2e" transform="translate(63.623047 0)"/>
       <use xlink:href="#DejaVuSerif-30" transform="translate(95.410156 0)"/>
      </g>
     </g>
    </g>
    <g id="text_24">
     <!-- Recall -->
     <g style="fill: #262626" transform="translate(423.647578 287.724844) scale(0.11 -0.11)">
      <use xlink:href="#DejaVuSerif-52"/>
      <use xlink:href="#DejaVuSerif-65" transform="translate(75.292969 0)"/>
      <use xlink:href="#DejaVuSerif-63" transform="translate(134.472656 0)"/>
      <use xlink:href="#DejaVuSerif-61" transform="translate(190.478516 0)"/>
      <use xlink:href="#DejaVuSerif-6c" transform="translate(250.097656 0)"/>
      <use xlink:href="#DejaVuSerif-6c" transform="translate(282.080078 0)"/>
     </g>
    </g>
   </g>
   <g id="matplotlib.axis_4">
    <g id="ytick_7">
     <g id="line2d_41">
      <path d="M 324.05875 263.15625 
L 557.785 263.15625 
" clip-path="url(#pdb0b4aaa62)" style="fill: none; stroke: #cccccc; stroke-opacity: 0.3; stroke-width: 0.8; stroke-linecap: round"/>
     </g>
     <g id="line2d_42"/>
     <g id="text_25">
      <!-- 0.0 -->
      <g style="fill: #262626" transform="translate(306.245938 266.575547) scale(0.09 -0.09)">
       <use xlink:href="#DejaVuSerif-30"/>
       <use xlink:href="#DejaVuSerif-2e" transform="translate(63.623047 0)"/>
       <use xlink:href="#DejaVuSerif-30" transform="translate(95.410156 0)"/>
      </g>
     </g>
    </g>
    <g id="ytick_8">
     <g id="line2d_43">
      <path d="M 324.05875 224.001838 
L 557.785 224.001838 
" clip-path="url(#pdb0b4aaa62)" style="fill: none; stroke: #cccccc; stroke-opacity: 0.3; stroke-width: 0.8; stroke-linecap: round"/>
     </g>
     <g id="line2d_44"/>
     <g id="text_26">
      <!-- 0.2 -->
      <g style="fill: #262626" transform="translate(306.245938 227.421135) scale(0.09 -0.09)">
       <use xlink:href="#DejaVuSerif-30"/>
       <use xlink:href="#DejaVuSerif-2e" transform="translate(63.623047 0)"/>
       <use xlink:href="#DejaVuSerif-32" transform="translate(95.410156 0)"/>
      </g>
     </g>
    </g>
    <g id="ytick_9">
     <g id="line2d_45">
      <path d="M 324.05875 184.847426 
L 557.785 184.847426 
" clip-path="url(#pdb0b4aaa62)" style="fill: none; stroke: #cccccc; stroke-opacity: 0.3; stroke-width: 0.8; stroke-linecap: round"/>
     </g>
     <g id="line2d_46"/>
     <g id="text_27">
      <!-- 0.4 -->
      <g style="fill: #262626" transform="translate(306.245938 188.266723) scale(0.09 -0.09)">
       <use xlink:href="#DejaVuSerif-30"/>
       <use xlink:href="#DejaVuSerif-2e" transform="translate(63.623047 0)"/>
       <use xlink:href="#DejaVuSerif-34" transform="translate(95.410156 0)"/>
      </g>
     </g>
    </g>
    <g id="ytick_10">
     <g id="line2d_47">
      <path d="M 324.05875 145.693015 
L 557.785 145.693015 
" clip-path="url(#pdb0b4aaa62)" style="fill: none; stroke: #cccccc; stroke-opacity: 0.3; stroke-width: 0.8; stroke-linecap: round"/>
     </g>
     <g id="line2d_48"/>
     <g id="text_28">
      <!-- 0.6 -->
      <g style="fill: #262626" transform="translate(306.245938 149.112312) scale(0.09 -0.09)">
       <use xlink:href="#DejaVuSerif-30"/>
       <use xlink:href="#DejaVuSerif-2e" transform="translate(63.623047 0)"/>
       <use xlink:href="#DejaVuSerif-36" transform="translate(95.410156 0)"/>
      </g>
     </g>
    </g>
    <g id="ytick_11">
     <g id="line2d_49">
      <path d="M 324.05875 106.538603 
L 557.785 106.538603 
" clip-path="url(#pdb0b4aaa62)" style="fill: none; stroke: #cccccc; stroke-opacity: 0.3; stroke-width: 0.8; stroke-linecap: round"/>
     </g>
     <g id="line2d_50"/>
     <g id="text_29">
      <!-- 0.8 -->
      <g style="fill: #262626" transform="translate(306.245938 109.9579) scale(0.09 -0.09)">
       <use xlink:href="#DejaVuSerif-30"/>
       <use xlink:href="#DejaVuSerif-2e" transform="translate(63.623047 0)"/>
       <use xlink:href="#DejaVuSerif-38" transform="translate(95.410156 0)"/>
      </g>
     </g>
    </g>
    <g id="ytick_12">
     <g id="line2d_51">
      <path d="M 324.05875 67.384191 
L 557.785 67.384191 
" clip-path="url(#pdb0b4aaa62)" style="fill: none; stroke: #cccccc; stroke-opacity: 0.3; stroke-width: 0.8; stroke-linecap: round"/>
     </g>
     <g id="line2d_52"/>
     <g id="text_30">
      <!-- 1.0 -->
      <g style="fill: #262626" transform="translate(306.245938 70.803488) scale(0.09 -0.09)">
       <use xlink:href="#DejaVuSerif-31"/>
       <use xlink:href="#DejaVuSerif-2e" transform="translate(63.623047 0)"/>
       <use xlink:href="#DejaVuSerif-30" transform="translate(95.410156 0)"/>
      </g>
     </g>
    </g>
    <g id="text_31">
     <!-- Precision -->
     <g style="fill: #262626" transform="translate(299.958281 189.171094) rotate(-90) scale(0.11 -0.11)">
      <use xlink:href="#DejaVuSerif-50"/>
      <use xlink:href="#DejaVuSerif-72" transform="translate(67.285156 0)"/>
      <use xlink:href="#DejaVuSerif-65" transform="translate(115.087891 0)"/>
      <use xlink:href="#DejaVuSerif-63" transform="translate(174.267578 0)"/>
      <use xlink:href="#DejaVuSerif-69" transform="translate(230.273438 0)"/>
      <use xlink:href="#DejaVuSerif-73" transform="translate(262.255859 0)"/>
      <use xlink:href="#DejaVuSerif-69" transform="translate(313.574219 0)"/>
      <use xlink:href="#DejaVuSerif-6f" transform="translate(345.556641 0)"/>
      <use xlink:href="#DejaVuSerif-6e" transform="translate(405.761719 0)"/>
     </g>
    </g>
   </g>
   <g id="FillBetweenPolyCollection_2">
    <defs>
     <path id="m902d7994a5" d="M 324.05875 -34.05625 
L 324.05875 -229.828309 
L 326.419621 -229.542049 
L 328.780492 -229.23124 
L 331.141364 -228.895884 
L 333.502235 -228.53598 
L 335.863106 -228.151527 
L 338.223977 -227.742526 
L 340.584848 -227.308978 
L 342.94572 -226.850881 
L 345.306591 -226.368236 
L 347.667462 -225.861044 
L 350.028333 -225.329303 
L 352.389205 -224.773014 
L 354.750076 -224.192177 
L 357.110947 -223.586792 
L 359.471818 -222.95727 
L 361.832689 -222.326571 
L 364.193561 -221.70791 
L 366.554432 -221.101288 
L 368.915303 -220.506705 
L 371.276174 -219.92416 
L 373.637045 -219.353654 
L 375.997917 -218.795188 
L 378.358788 -218.24876 
L 380.719659 -217.71437 
L 383.08053 -217.19202 
L 385.441402 -216.681708 
L 387.802273 -216.183435 
L 390.163144 -215.697201 
L 392.524015 -215.223006 
L 394.884886 -214.76022 
L 397.245758 -214.298911 
L 399.606629 -213.83565 
L 401.9675 -213.370438 
L 404.328371 -212.903275 
L 406.689242 -212.43416 
L 409.050114 -211.963095 
L 411.410985 -211.490078 
L 413.771856 -211.01511 
L 416.132727 -210.538191 
L 418.493598 -210.059321 
L 420.85447 -209.578499 
L 423.215341 -209.095726 
L 425.576212 -208.611002 
L 427.937083 -208.124327 
L 430.297955 -207.635701 
L 432.658826 -207.145123 
L 435.019697 -206.652595 
L 437.380568 -206.158115 
L 439.741439 -205.661684 
L 442.102311 -205.163504 
L 444.463182 -204.66479 
L 446.824053 -204.165744 
L 449.184924 -203.666367 
L 451.545795 -203.166658 
L 453.906667 -202.666618 
L 456.267538 -202.166246 
L 458.628409 -201.665542 
L 460.98928 -201.164507 
L 463.350152 -200.66314 
L 465.711023 -200.161441 
L 468.071894 -199.659411 
L 470.432765 -199.157049 
L 472.793636 -198.654356 
L 475.154508 -198.15133 
L 477.515379 -197.647974 
L 479.87625 -197.144285 
L 482.237121 -196.640265 
L 484.597992 -196.135914 
L 486.958864 -195.631231 
L 489.319735 -195.107687 
L 491.680606 -194.511589 
L 494.041477 -193.839534 
L 496.402348 -193.09152 
L 498.76322 -192.267548 
L 501.124091 -191.367619 
L 503.484962 -190.391732 
L 505.845833 -189.339887 
L 508.206705 -188.212084 
L 510.567576 -187.008323 
L 512.928447 -185.728604 
L 515.289318 -184.372928 
L 517.650189 -182.941293 
L 520.011061 -181.433701 
L 522.371932 -179.850151 
L 524.732803 -178.20551 
L 527.093674 -176.5256 
L 529.454545 -174.810885 
L 531.815417 -173.061364 
L 534.176288 -171.277038 
L 536.537159 -169.457907 
L 538.89803 -167.60397 
L 541.258902 -165.715228 
L 543.619773 -163.791681 
L 545.980644 -161.833328 
L 548.341515 -159.84017 
L 550.702386 -157.812207 
L 553.063258 -155.749439 
L 555.424129 -153.651865 
L 557.785 -151.519485 
L 557.785 -34.05625 
L 557.785 -34.05625 
L 555.424129 -34.05625 
L 553.063258 -34.05625 
L 550.702386 -34.05625 
L 548.341515 -34.05625 
L 545.980644 -34.05625 
L 543.619773 -34.05625 
L 541.258902 -34.05625 
L 538.89803 -34.05625 
L 536.537159 -34.05625 
L 534.176288 -34.05625 
L 531.815417 -34.05625 
L 529.454545 -34.05625 
L 527.093674 -34.05625 
L 524.732803 -34.05625 
L 522.371932 -34.05625 
L 520.011061 -34.05625 
L 517.650189 -34.05625 
L 515.289318 -34.05625 
L 512.928447 -34.05625 
L 510.567576 -34.05625 
L 508.206705 -34.05625 
L 505.845833 -34.05625 
L 503.484962 -34.05625 
L 501.124091 -34.05625 
L 498.76322 -34.05625 
L 496.402348 -34.05625 
L 494.041477 -34.05625 
L 491.680606 -34.05625 
L 489.319735 -34.05625 
L 486.958864 -34.05625 
L 484.597992 -34.05625 
L 482.237121 -34.05625 
L 479.87625 -34.05625 
L 477.515379 -34.05625 
L 475.154508 -34.05625 
L 472.793636 -34.05625 
L 470.432765 -34.05625 
L 468.071894 -34.05625 
L 465.711023 -34.05625 
L 463.350152 -34.05625 
L 460.98928 -34.05625 
L 458.628409 -34.05625 
L 456.267538 -34.05625 
L 453.906667 -34.05625 
L 451.545795 -34.05625 
L 449.184924 -34.05625 
L 446.824053 -34.05625 
L 444.463182 -34.05625 
L 442.102311 -34.05625 
L 439.741439 -34.05625 
L 437.380568 -34.05625 
L 435.019697 -34.05625 
L 432.658826 -34.05625 
L 430.297955 -34.05625 
L 427.937083 -34.05625 
L 425.576212 -34.05625 
L 423.215341 -34.05625 
L 420.85447 -34.05625 
L 418.493598 -34.05625 
L 416.132727 -34.05625 
L 413.771856 -34.05625 
L 411.410985 -34.05625 
L 409.050114 -34.05625 
L 406.689242 -34.05625 
L 404.328371 -34.05625 
L 401.9675 -34.05625 
L 399.606629 -34.05625 
L 397.245758 -34.05625 
L 394.884886 -34.05625 
L 392.524015 -34.05625 
L 390.163144 -34.05625 
L 387.802273 -34.05625 
L 385.441402 -34.05625 
L 383.08053 -34.05625 
L 380.719659 -34.05625 
L 378.358788 -34.05625 
L 375.997917 -34.05625 
L 373.637045 -34.05625 
L 371.276174 -34.05625 
L 368.915303 -34.05625 
L 366.554432 -34.05625 
L 364.193561 -34.05625 
L 361.832689 -34.05625 
L 359.471818 -34.05625 
L 357.110947 -34.05625 
L 354.750076 -34.05625 
L 352.389205 -34.05625 
L 350.028333 -34.05625 
L 347.667462 -34.05625 
L 345.306591 -34.05625 
L 342.94572 -34.05625 
L 340.584848 -34.05625 
L 338.223977 -34.05625 
L 335.863106 -34.05625 
L 333.502235 -34.05625 
L 331.141364 -34.05625 
L 328.780492 -34.05625 
L 326.419621 -34.05625 
L 324.05875 -34.05625 
z
" style="stroke: #3498db; stroke-opacity: 0.3"/>
    </defs>
    <g clip-path="url(#pdb0b4aaa62)">
     <use xlink:href="#m902d7994a5" x="0" y="297.2125" style="fill: #3498db; fill-opacity: 0.3; stroke: #3498db; stroke-opacity: 0.3"/>
    </g>
   </g>
   <g id="line2d_53">
    <path d="M 324.05875 67.384191 
L 326.419621 67.670451 
L 328.780492 67.98126 
L 331.141364 68.316616 
L 333.502235 68.67652 
L 335.863106 69.060973 
L 338.223977 69.469974 
L 340.584848 69.903522 
L 342.94572 70.361619 
L 345.306591 70.844264 
L 347.667462 71.351456 
L 350.028333 71.883197 
L 352.389205 72.439486 
L 354.750076 73.020323 
L 357.110947 73.625708 
L 359.471818 74.25523 
L 361.832689 74.885929 
L 364.193561 75.50459 
L 366.554432 76.111212 
L 368.915303 76.705795 
L 371.276174 77.28834 
L 373.637045 77.858846 
L 375.997917 78.417312 
L 378.358788 78.96374 
L 380.719659 79.49813 
L 383.08053 80.02048 
L 385.441402 80.530792 
L 387.802273 81.029065 
L 390.163144 81.515299 
L 392.524015 81.989494 
L 394.884886 82.45228 
L 397.245758 82.913589 
L 399.606629 83.37685 
L 401.9675 83.842062 
L 404.328371 84.309225 
L 406.689242 84.77834 
L 409.050114 85.249405 
L 411.410985 85.722422 
L 413.771856 86.19739 
L 416.132727 86.674309 
L 418.493598 87.153179 
L 420.85447 87.634001 
L 423.215341 88.116774 
L 425.576212 88.601498 
L 427.937083 89.088173 
L 430.297955 89.576799 
L 432.658826 90.067377 
L 435.019697 90.559905 
L 437.380568 91.054385 
L 439.741439 91.550816 
L 442.102311 92.048996 
L 444.463182 92.54771 
L 446.824053 93.046756 
L 449.184924 93.546133 
L 451.545795 94.045842 
L 453.906667 94.545882 
L 456.267538 95.046254 
L 458.628409 95.546958 
L 460.98928 96.047993 
L 463.350152 96.54936 
L 465.711023 97.051059 
L 468.071894 97.553089 
L 470.432765 98.055451 
L 472.793636 98.558144 
L 475.154508 99.06117 
L 477.515379 99.564526 
L 479.87625 100.068215 
L 482.237121 100.572235 
L 484.597992 101.076586 
L 486.958864 101.581269 
L 489.319735 102.104813 
L 491.680606 102.700911 
L 494.041477 103.372966 
L 496.402348 104.12098 
L 498.76322 104.944952 
L 501.124091 105.844881 
L 503.484962 106.820768 
L 505.845833 107.872613 
L 508.206705 109.000416 
L 510.567576 110.204177 
L 512.928447 111.483896 
L 515.289318 112.839572 
L 517.650189 114.271207 
L 520.011061 115.778799 
L 522.371932 117.362349 
L 524.732803 119.00699 
L 527.093674 120.6869 
L 529.454545 122.401615 
L 531.815417 124.151136 
L 534.176288 125.935462 
L 536.537159 127.754593 
L 538.89803 129.60853 
L 541.258902 131.497272 
L 543.619773 133.420819 
L 545.980644 135.379172 
L 548.341515 137.37233 
L 550.702386 139.400293 
L 553.063258 141.463061 
L 555.424129 143.560635 
L 557.785 145.693015 
" clip-path="url(#pdb0b4aaa62)" style="fill: none; stroke: #3498db; stroke-width: 2.5; stroke-linecap: round"/>
   </g>
   <g id="line2d_54">
    <path d="M 324.05875 165.270221 
L 557.785 165.270221 
" clip-path="url(#pdb0b4aaa62)" style="fill: none; stroke-dasharray: 5.55,2.4; stroke-dashoffset: 0; stroke: #808080; stroke-opacity: 0.5; stroke-width: 1.5"/>
   </g>
   <g id="patch_8">
    <path d="M 324.05875 263.15625 
L 324.05875 63.46875 
" style="fill: none; stroke: #cccccc; stroke-linejoin: miter; stroke-linecap: square"/>
   </g>
   <g id="patch_9">
    <path d="M 557.785 263.15625 
L 557.785 63.46875 
" style="fill: none; stroke: #cccccc; stroke-linejoin: miter; stroke-linecap: square"/>
   </g>
   <g id="patch_10">
    <path d="M 324.05875 263.15625 
L 557.785 263.15625 
" style="fill: none; stroke: #cccccc; stroke-linejoin: miter; stroke-linecap: square"/>
   </g>
   <g id="patch_11">
    <path d="M 324.05875 63.46875 
L 557.785 63.46875 
" style="fill: none; stroke: #cccccc; stroke-linejoin: miter; stroke-linecap: square"/>
   </g>
   <g id="text_32">
    <!-- SAM-40 Dataset -->
    <g style="fill: #262626" transform="translate(391.347813 57.46875) scale(0.12 -0.12)">
     <defs>
      <path id="DejaVuSerif-53" d="M 594 225 
L 594 1288 
L 953 1284 
Q 969 753 1261 498 
Q 1553 244 2150 244 
Q 2706 244 2998 464 
Q 3291 684 3291 1106 
Q 3291 1444 3114 1625 
Q 2938 1806 2369 1978 
L 1753 2163 
Q 1084 2366 811 2669 
Q 538 2972 538 3500 
Q 538 4094 959 4422 
Q 1381 4750 2144 4750 
Q 2469 4750 2856 4679 
Q 3244 4609 3681 4475 
L 3681 3481 
L 3328 3481 
Q 3275 3975 2998 4195 
Q 2722 4416 2156 4416 
Q 1663 4416 1405 4214 
Q 1147 4013 1147 3628 
Q 1147 3294 1340 3103 
Q 1534 2913 2163 2725 
L 2741 2553 
Q 3375 2363 3645 2067 
Q 3916 1772 3916 1275 
Q 3916 597 3481 253 
Q 3047 -91 2188 -91 
Q 1803 -91 1404 -12 
Q 1006 66 594 225 
z
" transform="scale(0.015625)"/>
      <path id="DejaVuSerif-4d" d="M 353 0 
L 353 331 
L 947 331 
L 947 4331 
L 319 4331 
L 319 4666 
L 1678 4666 
L 3316 1344 
L 4953 4666 
L 6228 4666 
L 6228 4331 
L 5606 4331 
L 5606 331 
L 6203 331 
L 6203 0 
L 4378 0 
L 4378 331 
L 4972 331 
L 4972 3938 
L 3372 684 
L 2931 684 
L 1331 3938 
L 1331 331 
L 1925 331 
L 1925 0 
L 353 0 
z
" transform="scale(0.015625)"/>
      <path id="DejaVuSerif-2d" d="M 281 1959 
L 1881 1959 
L 1881 1472 
L 281 1472 
L 281 1959 
z
" transform="scale(0.015625)"/>
     </defs>
     <use xlink:href="#DejaVuSerif-53"/>
     <use xlink:href="#DejaVuSerif-41" transform="translate(68.505859 0)"/>
     <use xlink:href="#DejaVuSerif-4d" transform="translate(140.722656 0)"/>
     <use xlink:href="#DejaVuSerif-2d" transform="translate(243.115234 0)"/>
     <use xlink:href="#DejaVuSerif-34" transform="translate(276.904297 0)"/>
     <use xlink:href="#DejaVuSerif-30" transform="translate(340.527344 0)"/>
     <use xlink:href="#DejaVuSerif-20" transform="translate(404.150391 0)"/>
     <use xlink:href="#DejaVuSerif-44" transform="translate(435.9375 0)"/>
     <use xlink:href="#DejaVuSerif-61" transform="translate(516.113281 0)"/>
     <use xlink:href="#DejaVuSerif-74" transform="translate(575.732422 0)"/>
     <use xlink:href="#DejaVuSerif-61" transform="translate(615.917969 0)"/>
     <use xlink:href="#DejaVuSerif-73" transform="translate(675.537109 0)"/>
     <use xlink:href="#DejaVuSerif-65" transform="translate(726.855469 0)"/>
     <use xlink:href="#DejaVuSerif-74" transform="translate(786.035156 0)"/>
    </g>
   </g>
   <g id="legend_2">
    <g id="line2d_55">
     <path d="M 332.15875 236.824219 
L 341.15875 236.824219 
L 350.15875 236.824219 
" style="fill: none; stroke: #3498db; stroke-width: 2.5; stroke-linecap: round"/>
    </g>
    <g id="text_33">
     <!-- PR (AP = 0.856) -->
     <g style="fill: #262626" transform="translate(357.35875 239.974219) scale(0.09 -0.09)">
      <defs>
       <path id="DejaVuSerif-35" d="M 3219 4666 
L 3219 4153 
L 1081 4153 
L 1081 2816 
Q 1244 2928 1461 2984 
Q 1678 3041 1947 3041 
Q 2703 3041 3140 2622 
Q 3578 2203 3578 1478 
Q 3578 738 3136 323 
Q 2694 -91 1894 -91 
Q 1572 -91 1234 -12 
Q 897 66 544 225 
L 544 1131 
L 897 1131 
Q 925 688 1179 453 
Q 1434 219 1894 219 
Q 2388 219 2653 544 
Q 2919 869 2919 1478 
Q 2919 2084 2655 2407 
Q 2391 2731 1894 2731 
Q 1613 2731 1398 2631 
Q 1184 2531 1019 2322 
L 750 2322 
L 750 4666 
L 3219 4666 
z
" transform="scale(0.015625)"/>
      </defs>
      <use xlink:href="#DejaVuSerif-50"/>
      <use xlink:href="#DejaVuSerif-52" transform="translate(67.285156 0)"/>
      <use xlink:href="#DejaVuSerif-20" transform="translate(142.578125 0)"/>
      <use xlink:href="#DejaVuSerif-28" transform="translate(174.365234 0)"/>
      <use xlink:href="#DejaVuSerif-41" transform="translate(213.378906 0)"/>
      <use xlink:href="#DejaVuSerif-50" transform="translate(285.595703 0)"/>
      <use xlink:href="#DejaVuSerif-20" transform="translate(352.880859 0)"/>
      <use xlink:href="#DejaVuSerif-3d" transform="translate(384.667969 0)"/>
      <use xlink:href="#DejaVuSerif-20" transform="translate(468.457031 0)"/>
      <use xlink:href="#DejaVuSerif-30" transform="translate(500.244141 0)"/>
      <use xlink:href="#DejaVuSerif-2e" transform="translate(563.867188 0)"/>
      <use xlink:href="#DejaVuSerif-38" transform="translate(595.654297 0)"/>
      <use xlink:href="#DejaVuSerif-35" transform="translate(659.277344 0)"/>
      <use xlink:href="#DejaVuSerif-36" transform="translate(722.900391 0)"/>
      <use xlink:href="#DejaVuSerif-29" transform="translate(786.523438 0)"/>
     </g>
    </g>
    <g id="line2d_56">
     <path d="M 332.15875 250.034531 
L 341.15875 250.034531 
L 350.15875 250.034531 
" style="fill: none; stroke-dasharray: 5.55,2.4; stroke-dashoffset: 0; stroke: #808080; stroke-opacity: 0.5; stroke-width: 1.5"/>
    </g>
    <g id="text_34">
     <!-- Random -->
     <g style="fill: #262626" transform="translate(357.35875 253.184531) scale(0.09 -0.09)">
      <use xlink:href="#DejaVuSerif-52"/>
      <use xlink:href="#DejaVuSerif-61" transform="translate(77.542969 0)"/>
      <use xlink:href="#DejaVuSerif-6e" transform="translate(137.162109 0)"/>
      <use xlink:href="#DejaVuSerif-64" transform="translate(201.566406 0)"/>
      <use xlink:href="#DejaVuSerif-6f" transform="translate(265.580078 0)"/>
      <use xlink:href="#DejaVuSerif-6d" transform="translate(325.785156 0)"/>
     </g>
    </g>
   </g>
  </g>
  <g id="axes_3">
   <g id="patch_12">
    <path d="M 608.45875 263.15625 
L 842.185 263.15625 
L 842.185 63.46875 
L 608.45875 63.46875 
z
" style="fill: #ffffff"/>
   </g>
   <g id="matplotlib.axis_5">
    <g id="xtick_13">
     <g id="line2d_57">
      <path d="M 608.45875 263.15625 
L 608.45875 63.46875 
" clip-path="url(#p9cd53352fc)" style="fill: none; stroke: #cccccc; stroke-opacity: 0.3; stroke-width: 0.8; stroke-linecap: round"/>
     </g>
     <g id="line2d_58"/>
     <g id="text_35">
      <!-- 0.0 -->
      <g style="fill: #262626" transform="translate(601.302344 273.494844) scale(0.09 -0.09)">
       <use xlink:href="#DejaVuSerif-30"/>
       <use xlink:href="#DejaVuSerif-2e" transform="translate(63.623047 0)"/>
       <use xlink:href="#DejaVuSerif-30" transform="translate(95.410156 0)"/>
      </g>
     </g>
    </g>
    <g id="xtick_14">
     <g id="line2d_59">
      <path d="M 655.204 263.15625 
L 655.204 63.46875 
" clip-path="url(#p9cd53352fc)" style="fill: none; stroke: #cccccc; stroke-opacity: 0.3; stroke-width: 0.8; stroke-linecap: round"/>
     </g>
     <g id="line2d_60"/>
     <g id="text_36">
      <!-- 0.2 -->
      <g style="fill: #262626" transform="translate(648.047594 273.494844) scale(0.09 -0.09)">
       <use xlink:href="#DejaVuSerif-30"/>
       <use xlink:href="#DejaVuSerif-2e" transform="translate(63.623047 0)"/>
       <use xlink:href="#DejaVuSerif-32" transform="translate(95.410156 0)"/>
      </g>
     </g>
    </g>
    <g id="xtick_15">
     <g id="line2d_61">
      <path d="M 701.94925 263.15625 
L 701.94925 63.46875 
" clip-path="url(#p9cd53352fc)" style="fill: none; stroke: #cccccc; stroke-opacity: 0.3; stroke-width: 0.8; stroke-linecap: round"/>
     </g>
     <g id="line2d_62"/>
     <g id="text_37">
      <!-- 0.4 -->
      <g style="fill: #262626" transform="translate(694.792844 273.494844) scale(0.09 -0.09)">
       <use xlink:href="#DejaVuSerif-30"/>
       <use xlink:href="#DejaVuSerif-2e" transform="translate(63.623047 0)"/>
       <use xlink:href="#DejaVuSerif-34" transform="translate(95.410156 0)"/>
      </g>
     </g>
    </g>
    <g id="xtick_16">
     <g id="line2d_63">
      <path d="M 748.6945 263.15625 
L 748.6945 63.46875 
" clip-path="url(#p9cd53352fc)" style="fill: none; stroke: #cccccc; stroke-opacity: 0.3; stroke-width: 0.8; stroke-linecap: round"/>
     </g>
     <g id="line2d_64"/>
     <g id="text_38">
      <!-- 0.6 -->
      <g style="fill: #262626" transform="translate(741.538094 273.494844) scale(0.09 -0.09)">
       <use xlink:href="#DejaVuSerif-30"/>
       <use xlink:href="#DejaVuSerif-2e" transform="translate(63.623047 0)"/>
       <use xlink:href="#DejaVuSerif-36" transform="translate(95.410156 0)"/>
      </g>
     </g>
    </g>
    <g id="xtick_17">
     <g id="line2d_65">
      <path d="M 795.43975 263.15625 
L 795.43975 63.46875 
" clip-path="url(#p9cd53352fc)" style="fill: none; stroke: #cccccc; stroke-opacity: 0.3; stroke-width: 0.8; stroke-linecap: round"/>
     </g>
     <g id="line2d_66"/>
     <g id="text_39">
      <!-- 0.8 -->
      <g style="fill: #262626" transform="translate(788.283344 273.494844) scale(0.09 -0.09)">
       <use xlink:href="#DejaVuSerif-30"/>
       <use xlink:href="#DejaVuSerif-2e" transform="translate(63.623047 0)"/>
       <use xlink:href="#DejaVuSerif-38" transform="translate(95.410156 0)"/>
      </g>
     </g>
    </g>
    <g id="xtick_18">
     <g id="line2d_67">
      <path d="M 842.185 263.15625 
L 842.185 63.46875 
" clip-path="url(#p9cd53352fc)" style="fill: none; stroke: #cccccc; stroke-opacity: 0.3; stroke-width: 0.8; stroke-linecap: round"/>
     </g>
     <g id="line2d_68"/>
     <g id="text_40">
      <!-- 1.0 -->
      <g style="fill: #262626" transform="translate(835.028594 273.494844) scale(0.09 -0.09)">
       <use xlink:href="#DejaVuSerif-31"/>
       <use xlink:href="#DejaVuSerif-2e" transform="translate(63.623047 0)"/>
       <use xlink:href="#DejaVuSerif-30" transform="translate(95.410156 0)"/>
      </g>
     </g>
    </g>
    <g id="text_41">
     <!-- Recall -->
     <g style="fill: #262626" transform="translate(708.047578 287.724844) scale(0.11 -0.11)">
      <use xlink:href="#DejaVuSerif-52"/>
      <use xlink:href="#DejaVuSerif-65" transform="translate(75.292969 0)"/>
      <use xlink:href="#DejaVuSerif-63" transform="translate(134.472656 0)"/>
      <use xlink:href="#DejaVuSerif-61" transform="translate(190.478516 0)"/>
      <use xlink:href="#DejaVuSerif-6c" transform="translate(250.097656 0)"/>
      <use xlink:href="#DejaVuSerif-6c" transform="translate(282.080078 0)"/>
     </g>
    </g>
   </g>
   <g id="matplotlib.axis_6">
    <g id="ytick_13">
     <g id="line2d_69">
      <path d="M 608.45875 263.15625 
L 842.185 263.15625 
" clip-path="url(#p9cd53352fc)" style="fill: none; stroke: #cccccc; stroke-opacity: 0.3; stroke-width: 0.8; stroke-linecap: round"/>
     </g>
     <g id="line2d_70"/>
     <g id="text_42">
      <!-- 0.0 -->
      <g style="fill: #262626" transform="translate(590.645938 266.575547) scale(0.09 -0.09)">
       <use xlink:href="#DejaVuSerif-30"/>
       <use xlink:href="#DejaVuSerif-2e" transform="translate(63.623047 0)"/>
       <use xlink:href="#DejaVuSerif-30" transform="translate(95.410156 0)"/>
      </g>
     </g>
    </g>
    <g id="ytick_14">
     <g id="line2d_71">
      <path d="M 608.45875 224.001838 
L 842.185 224.001838 
" clip-path="url(#p9cd53352fc)" style="fill: none; stroke: #cccccc; stroke-opacity: 0.3; stroke-width: 0.8; stroke-linecap: round"/>
     </g>
     <g id="line2d_72"/>
     <g id="text_43">
      <!-- 0.2 -->
      <g style="fill: #262626" transform="translate(590.645938 227.421135) scale(0.09 -0.09)">
       <use xlink:href="#DejaVuSerif-30"/>
       <use xlink:href="#DejaVuSerif-2e" transform="translate(63.623047 0)"/>
       <use xlink:href="#DejaVuSerif-32" transform="translate(95.410156 0)"/>
      </g>
     </g>
    </g>
    <g id="ytick_15">
     <g id="line2d_73">
      <path d="M 608.45875 184.847426 
L 842.185 184.847426 
" clip-path="url(#p9cd53352fc)" style="fill: none; stroke: #cccccc; stroke-opacity: 0.3; stroke-width: 0.8; stroke-linecap: round"/>
     </g>
     <g id="line2d_74"/>
     <g id="text_44">
      <!-- 0.4 -->
      <g style="fill: #262626" transform="translate(590.645938 188.266723) scale(0.09 -0.09)">
       <use xlink:href="#DejaVuSerif-30"/>
       <use xlink:href="#DejaVuSerif-2e" transform="translate(63.623047 0)"/>
       <use xlink:href="#DejaVuSerif-34" transform="translate(95.410156 0)"/>
      </g>
     </g>
    </g>
    <g id="ytick_16">
     <g id="line2d_75">
      <path d="M 608.45875 145.693015 
L 842.185 145.693015 
" clip-path="url(#p9cd53352fc)" style="fill: none; stroke: #cccccc; stroke-opacity: 0.3; stroke-width: 0.8; stroke-linecap: round"/>
     </g>
     <g id="line2d_76"/>
     <g id="text_45">
      <!-- 0.6 -->
      <g style="fill: #262626" transform="translate(590.645938 149.112312) scale(0.09 -0.09)">
       <use xlink:href="#DejaVuSerif-30"/>
       <use xlink:href="#DejaVuSerif-2e" transform="translate(63.623047 0)"/>
       <use xlink:href="#DejaVuSerif-36" transform="translate(95.410156 0)"/>
      </g>
     </g>
    </g>
    <g id="ytick_17">
     <g id="line2d_77">
      <path d="M 608.45875 106.538603 
L 842.185 106.538603 
" clip-path="url(#p9cd53352fc)" style="fill: none; stroke: #cccccc; stroke-opacity: 0.3; stroke-width: 0.8; stroke-linecap: round"/>
     </g>
     <g id="line2d_78"/>
     <g id="text_46">
      <!-- 0.8 -->
      <g style="fill: #262626" transform="translate(590.645938 109.9579) scale(0.09 -0.09)">
       <use xlink:href="#DejaVuSerif-30"/>
       <use xlink:href="#DejaVuSerif-2e" transform="translate(63.623047 0)"/>
       <use xlink:href="#DejaVuSerif-38" transform="translate(95.410156 0)"/>
      </g>
     </g>
    </g>
    <g id="ytick_18">
     <g id="line2d_79">
      <path d="M 608.45875 67.384191 
L 842.185 67.384191 
" clip-path="url(#p9cd53352fc)" style="fill: none; stroke: #cccccc; stroke-opacity: 0.3; stroke-width: 0.8; stroke-linecap: round"/>
     </g>
     <g id="line2d_80"/>
     <g id="text_47">
      <!-- 1.0 -->
      <g style="fill: #262626" transform="translate(590.645938 70.803488) scale(0.09 -0.09)">
       <use xlink:href="#DejaVuSerif-31"/>
       <use xlink:href="#DejaVuSerif-2e" transform="translate(63.623047 0)"/>
       <use xlink:href="#DejaVuSerif-30" transform="translate(95.410156 0)"/>
      </g>
     </g>
    </g>
    <g id="text_48">
     <!-- Precision -->
     <g style="fill: #262626" transform="translate(584.358281 189.171094) rotate(-90) scale(0.11 -0.11)">
      <use xlink:href="#DejaVuSerif-50"/>
      <use xlink:href="#DejaVuSerif-72" transform="translate(67.285156 0)"/>
      <use xlink:href="#DejaVuSerif-65" transform="translate(115.087891 0)"/>
      <use xlink:href="#DejaVuSerif-63" transform="translate(174.267578 0)"/>
      <use xlink:href="#DejaVuSerif-69" transform="translate(230.273438 0)"/>
      <use xlink:href="#DejaVuSerif-73" transform="translate(262.255859 0)"/>
      <use xlink:href="#DejaVuSerif-69" transform="translate(313.574219 0)"/>
      <use xlink:href="#DejaVuSerif-6f" transform="translate(345.556641 0)"/>
      <use xlink:href="#DejaVuSerif-6e" transform="translate(405.761719 0)"/>
     </g>
    </g>
   </g>
   <g id="FillBetweenPolyCollection_3">
    <defs>
     <path id="mfbfde7ebe6" d="M 608.45875 -34.05625 
L 608.45875 -229.828309 
L 610.819621 -229.827354 
L 613.180492 -229.826439 
L 615.541364 -229.825563 
L 617.902235 -229.824727 
L 620.263106 -229.82393 
L 622.623977 -229.823172 
L 624.984848 -229.822454 
L 627.34572 -229.821775 
L 629.706591 -229.821135 
L 632.067462 -229.820535 
L 634.428333 -229.819974 
L 636.789205 -229.819453 
L 639.150076 -229.818971 
L 641.510947 -229.818528 
L 643.871818 -229.818124 
L 646.232689 -229.81776 
L 648.593561 -229.817436 
L 650.954432 -229.81715 
L 653.315303 -229.816904 
L 655.676174 -229.816698 
L 658.037045 -229.81653 
L 660.397917 -229.816402 
L 662.758788 -229.816314 
L 665.119659 -229.816265 
L 667.48053 -229.816255 
L 669.841402 -229.816284 
L 672.202273 -229.816353 
L 674.563144 -229.816461 
L 676.924015 -229.816609 
L 679.284886 -229.816796 
L 681.645758 -229.817022 
L 684.006629 -229.817288 
L 686.3675 -229.817593 
L 688.728371 -229.817937 
L 691.089242 -229.818321 
L 693.450114 -229.818744 
L 695.810985 -229.819207 
L 698.171856 -229.819709 
L 700.532727 -229.82025 
L 702.893598 -229.82083 
L 705.25447 -229.82145 
L 707.615341 -229.82211 
L 709.976212 -229.822808 
L 712.337083 -229.823546 
L 714.697955 -229.824324 
L 717.058826 -229.82514 
L 719.419697 -229.825996 
L 721.780568 -229.826892 
L 724.141439 -229.827827 
L 726.502311 -229.828309 
L 728.863182 -229.828309 
L 731.224053 -229.828309 
L 733.584924 -229.828309 
L 735.945795 -229.828309 
L 738.306667 -229.828309 
L 740.667538 -229.828309 
L 743.028409 -229.828309 
L 745.38928 -229.828309 
L 747.750152 -229.828309 
L 750.111023 -229.828309 
L 752.471894 -229.828309 
L 754.832765 -229.828309 
L 757.193636 -229.828309 
L 759.554508 -229.828309 
L 761.915379 -229.828309 
L 764.27625 -229.828309 
L 766.637121 -229.828309 
L 768.997992 -229.828309 
L 771.358864 -229.828309 
L 773.719735 -229.828309 
L 776.080606 -229.828309 
L 778.441477 -229.828309 
L 780.802348 -229.828309 
L 783.16322 -229.828309 
L 785.524091 -229.828309 
L 787.884962 -229.828309 
L 790.245833 -229.828309 
L 792.606705 -229.828309 
L 794.967576 -229.828309 
L 797.328447 -229.824914 
L 799.689318 -229.820328 
L 802.050189 -229.815361 
L 804.411061 -229.810014 
L 806.771932 -229.804287 
L 809.132803 -229.799923 
L 811.493674 -229.799952 
L 813.854545 -229.804429 
L 816.215417 -229.813354 
L 818.576288 -229.826727 
L 820.937159 -229.828309 
L 823.29803 -229.828309 
L 825.658902 -229.828309 
L 828.019773 -229.828309 
L 830.380644 -229.828309 
L 832.741515 -229.743956 
L 835.102386 -229.616878 
L 837.463258 -229.121232 
L 839.824129 -227.886667 
L 842.185 -225.912868 
L 842.185 -34.05625 
L 842.185 -34.05625 
L 839.824129 -34.05625 
L 837.463258 -34.05625 
L 835.102386 -34.05625 
L 832.741515 -34.05625 
L 830.380644 -34.05625 
L 828.019773 -34.05625 
L 825.658902 -34.05625 
L 823.29803 -34.05625 
L 820.937159 -34.05625 
L 818.576288 -34.05625 
L 816.215417 -34.05625 
L 813.854545 -34.05625 
L 811.493674 -34.05625 
L 809.132803 -34.05625 
L 806.771932 -34.05625 
L 804.411061 -34.05625 
L 802.050189 -34.05625 
L 799.689318 -34.05625 
L 797.328447 -34.05625 
L 794.967576 -34.05625 
L 792.606705 -34.05625 
L 790.245833 -34.05625 
L 787.884962 -34.05625 
L 785.524091 -34.05625 
L 783.16322 -34.05625 
L 780.802348 -34.05625 
L 778.441477 -34.05625 
L 776.080606 -34.05625 
L 773.719735 -34.05625 
L 771.358864 -34.05625 
L 768.997992 -34.05625 
L 766.637121 -34.05625 
L 764.27625 -34.05625 
L 761.915379 -34.05625 
L 759.554508 -34.05625 
L 757.193636 -34.05625 
L 754.832765 -34.05625 
L 752.471894 -34.05625 
L 750.111023 -34.05625 
L 747.750152 -34.05625 
L 745.38928 -34.05625 
L 743.028409 -34.05625 
L 740.667538 -34.05625 
L 738.306667 -34.05625 
L 735.945795 -34.05625 
L 733.584924 -34.05625 
L 731.224053 -34.05625 
L 728.863182 -34.05625 
L 726.502311 -34.05625 
L 724.141439 -34.05625 
L 721.780568 -34.05625 
L 719.419697 -34.05625 
L 717.058826 -34.05625 
L 714.697955 -34.05625 
L 712.337083 -34.05625 
L 709.976212 -34.05625 
L 707.615341 -34.05625 
L 705.25447 -34.05625 
L 702.893598 -34.05625 
L 700.532727 -34.05625 
L 698.171856 -34.05625 
L 695.810985 -34.05625 
L 693.450114 -34.05625 
L 691.089242 -34.05625 
L 688.728371 -34.05625 
L 686.3675 -34.05625 
L 684.006629 -34.05625 
L 681.645758 -34.05625 
L 679.284886 -34.05625 
L 676.924015 -34.05625 
L 674.563144 -34.05625 
L 672.202273 -34.05625 
L 669.841402 -34.05625 
L 667.48053 -34.05625 
L 665.119659 -34.05625 
L 662.758788 -34.05625 
L 660.397917 -34.05625 
L 658.037045 -34.05625 
L 655.676174 -34.05625 
L 653.315303 -34.05625 
L 650.954432 -34.05625 
L 648.593561 -34.05625 
L 646.232689 -34.05625 
L 643.871818 -34.05625 
L 641.510947 -34.05625 
L 639.150076 -34.05625 
L 636.789205 -34.05625 
L 634.428333 -34.05625 
L 632.067462 -34.05625 
L 629.706591 -34.05625 
L 627.34572 -34.05625 
L 624.984848 -34.05625 
L 622.623977 -34.05625 
L 620.263106 -34.05625 
L 617.902235 -34.05625 
L 615.541364 -34.05625 
L 613.180492 -34.05625 
L 610.819621 -34.05625 
L 608.45875 -34.05625 
z
" style="stroke: #e74c3c; stroke-opacity: 0.3"/>
    </defs>
    <g clip-path="url(#p9cd53352fc)">
     <use xlink:href="#mfbfde7ebe6" x="0" y="297.2125" style="fill: #e74c3c; fill-opacity: 0.3; stroke: #e74c3c; stroke-opacity: 0.3"/>
    </g>
   </g>
   <g id="line2d_81">
    <path d="M 608.45875 67.384191 
L 610.819621 67.385146 
L 613.180492 67.386061 
L 615.541364 67.386937 
L 617.902235 67.387773 
L 620.263106 67.38857 
L 622.623977 67.389328 
L 624.984848 67.390046 
L 627.34572 67.390725 
L 629.706591 67.391365 
L 632.067462 67.391965 
L 634.428333 67.392526 
L 636.789205 67.393047 
L 639.150076 67.393529 
L 641.510947 67.393972 
L 643.871818 67.394376 
L 646.232689 67.39474 
L 648.593561 67.395064 
L 650.954432 67.39535 
L 653.315303 67.395596 
L 655.676174 67.395802 
L 658.037045 67.39597 
L 660.397917 67.396098 
L 662.758788 67.396186 
L 665.119659 67.396235 
L 667.48053 67.396245 
L 669.841402 67.396216 
L 672.202273 67.396147 
L 674.563144 67.396039 
L 676.924015 67.395891 
L 679.284886 67.395704 
L 681.645758 67.395478 
L 684.006629 67.395212 
L 686.3675 67.394907 
L 688.728371 67.394563 
L 691.089242 67.394179 
L 693.450114 67.393756 
L 695.810985 67.393293 
L 698.171856 67.392791 
L 700.532727 67.39225 
L 702.893598 67.39167 
L 705.25447 67.39105 
L 707.615341 67.39039 
L 709.976212 67.389692 
L 712.337083 67.388954 
L 714.697955 67.388176 
L 717.058826 67.38736 
L 719.419697 67.386504 
L 721.780568 67.385608 
L 724.141439 67.384673 
L 726.502311 67.384191 
L 728.863182 67.384191 
L 731.224053 67.384191 
L 733.584924 67.384191 
L 735.945795 67.384191 
L 738.306667 67.384191 
L 740.667538 67.384191 
L 743.028409 67.384191 
L 745.38928 67.384191 
L 747.750152 67.384191 
L 750.111023 67.384191 
L 752.471894 67.384191 
L 754.832765 67.384191 
L 757.193636 67.384191 
L 759.554508 67.384191 
L 761.915379 67.384191 
L 764.27625 67.384191 
L 766.637121 67.384191 
L 768.997992 67.384191 
L 771.358864 67.384191 
L 773.719735 67.384191 
L 776.080606 67.384191 
L 778.441477 67.384191 
L 780.802348 67.384191 
L 783.16322 67.384191 
L 785.524091 67.384191 
L 787.884962 67.384191 
L 790.245833 67.384191 
L 792.606705 67.384191 
L 794.967576 67.384191 
L 797.328447 67.387586 
L 799.689318 67.392172 
L 802.050189 67.397139 
L 804.411061 67.402486 
L 806.771932 67.408213 
L 809.132803 67.412577 
L 811.493674 67.412548 
L 813.854545 67.408071 
L 816.215417 67.399146 
L 818.576288 67.385773 
L 820.937159 67.384191 
L 823.29803 67.384191 
L 825.658902 67.384191 
L 828.019773 67.384191 
L 830.380644 67.384191 
L 832.741515 67.468544 
L 835.102386 67.595622 
L 837.463258 68.091268 
L 839.824129 69.325833 
L 842.185 71.299632 
" clip-path="url(#p9cd53352fc)" style="fill: none; stroke: #e74c3c; stroke-width: 2.5; stroke-linecap: round"/>
   </g>
   <g id="line2d_82">
    <path d="M 608.45875 165.270221 
L 842.185 165.270221 
" clip-path="url(#p9cd53352fc)" style="fill: none; stroke-dasharray: 5.55,2.4; stroke-dashoffset: 0; stroke: #808080; stroke-opacity: 0.5; stroke-width: 1.5"/>
   </g>
   <g id="patch_13">
    <path d="M 608.45875 263.15625 
L 608.45875 63.46875 
" style="fill: none; stroke: #cccccc; stroke-linejoin: miter; stroke-linecap: square"/>
   </g>
   <g id="patch_14">
    <path d="M 842.185 263.15625 
L 842.185 63.46875 
" style="fill: none; stroke: #cccccc; stroke-linejoin: miter; stroke-linecap: square"/>
   </g>
   <g id="patch_15">
    <path d="M 608.45875 263.15625 
L 842.185 263.15625 
" style="fill: none; stroke: #cccccc; stroke-linejoin: miter; stroke-linecap: square"/>
   </g>
   <g id="patch_16">
    <path d="M 608.45875 63.46875 
L 842.185 63.46875 
" style="fill: none; stroke: #cccccc; stroke-linejoin: miter; stroke-linecap: square"/>
   </g>
   <g id="text_49">
    <!-- WESAD Dataset -->
    <g style="fill: #262626" transform="translate(676.196875 57.46875) scale(0.12 -0.12)">
     <defs>
      <path id="DejaVuSerif-57" d="M 4878 0 
L 4366 0 
L 3297 3794 
L 2228 0 
L 1716 0 
L 494 4331 
L 31 4331 
L 31 4666 
L 1734 4666 
L 1734 4331 
L 1153 4331 
L 2125 884 
L 3188 4666 
L 3694 4666 
L 4775 844 
L 5753 4331 
L 5216 4331 
L 5216 4666 
L 6559 4666 
L 6559 4331 
L 6100 4331 
L 4878 0 
z
" transform="scale(0.015625)"/>
     </defs>
     <use xlink:href="#DejaVuSerif-57"/>
     <use xlink:href="#DejaVuSerif-45" transform="translate(102.783203 0)"/>
     <use xlink:href="#DejaVuSerif-53" transform="translate(175.78125 0)"/>
     <use xlink:href="#DejaVuSerif-41" transform="translate(244.287109 0)"/>
     <use xlink:href="#DejaVuSerif-44" transform="translate(316.503906 0)"/>
     <use xlink:href="#DejaVuSerif-20" transform="translate(396.679688 0)"/>
     <use xlink:href="#DejaVuSerif-44" transform="translate(428.466797 0)"/>
     <use xlink:href="#DejaVuSerif-61" transform="translate(508.642578 0)"/>
     <use xlink:href="#DejaVuSerif-74" transform="translate(568.261719 0)"/>
     <use xlink:href="#DejaVuSerif-61" transform="translate(608.447266 0)"/>
     <use xlink:href="#DejaVuSerif-73" transform="translate(668.066406 0)"/>
     <use xlink:href="#DejaVuSerif-65" transform="translate(719.384766 0)"/>
     <use xlink:href="#DejaVuSerif-74" transform="translate(778.564453 0)"/>
    </g>
   </g>
   <g id="legend_3">
    <g id="line2d_83">
     <path d="M 616.55875 236.824219 
L 625.55875 236.824219 
L 634.55875 236.824219 
" style="fill: none; stroke: #e74c3c; stroke-width: 2.5; stroke-linecap: round"/>
    </g>
    <g id="text_50">
     <!-- PR (AP = 1.000) -->
     <g style="fill: #262626" transform="translate(641.75875 239.974219) scale(0.09 -0.09)">
      <use xlink:href="#DejaVuSerif-50"/>
      <use xlink:href="#DejaVuSerif-52" transform="translate(67.285156 0)"/>
      <use xlink:href="#DejaVuSerif-20" transform="translate(142.578125 0)"/>
      <use xlink:href="#DejaVuSerif-28" transform="translate(174.365234 0)"/>
      <use xlink:href="#DejaVuSerif-41" transform="translate(213.378906 0)"/>
      <use xlink:href="#DejaVuSerif-50" transform="translate(285.595703 0)"/>
      <use xlink:href="#DejaVuSerif-20" transform="translate(352.880859 0)"/>
      <use xlink:href="#DejaVuSerif-3d" transform="translate(384.667969 0)"/>
      <use xlink:href="#DejaVuSerif-20" transform="translate(468.457031 0)"/>
      <use xlink:href="#DejaVuSerif-31" transform="translate(500.244141 0)"/>
      <use xlink:href="#DejaVuSerif-2e" transform="translate(563.867188 0)"/>
      <use xlink:href="#DejaVuSerif-30" transform="translate(595.654297 0)"/>
      <use xlink:href="#DejaVuSerif-30" transform="translate(659.277344 0)"/>
      <use xlink:href="#DejaVuSerif-30" transform="translate(722.900391 0)"/>
      <use xlink:href="#DejaVuSerif-29" transform="translate(786.523438 0)"/>
     </g>
    </g>
    <g id="line2d_84">
     <path d="M 616.55875 250.034531 
L 625.55875 250.034531 
L 634.55875 250.034531 
" style="fill: none; stroke-dasharray: 5.55,2.4; stroke-dashoffset: 0; stroke: #808080; stroke-opacity: 0.5; stroke-width: 1.5"/>
    </g>
    <g id="text_51">
     <!-- Random -->
     <g style="fill: #262626" transform="translate(641.75875 253.184531) scale(0.09 -0.09)">
      <use xlink:href="#DejaVuSerif-52"/>
      <use xlink:href="#DejaVuSerif-61" transform="translate(77.542969 0)"/>
      <use xlink:href="#DejaVuSerif-6e" transform="translate(137.162109 0)"/>
      <use xlink:href="#DejaVuSerif-64" transform="translate(201.566406 0)"/>
      <use xlink:href="#DejaVuSerif-6f" transform="translate(265.580078 0)"/>
      <use xlink:href="#DejaVuSerif-6d" transform="translate(325.785156 0)"/>
     </g>
    </g>
   </g>
  </g>
  <g id="text_52">
   <!-- Precision-Recall Curves for Binary Stress Classification -->
   <g style="fill: #262626" transform="translate(210.120312 17.837812) scale(0.14 -0.14)">
    <defs>
     <path id="DejaVuSerif-Bold-50" d="M 300 0 
L 300 378 
L 897 378 
L 897 4288 
L 300 4288 
L 300 4666 
L 2956 4666 
Q 3734 4666 4193 4295 
Q 4653 3925 4653 3303 
Q 4653 2678 4192 2304 
Q 3731 1931 2956 1931 
L 2100 1931 
L 2100 378 
L 2853 378 
L 2853 0 
L 300 0 
z
M 2100 2309 
L 2450 2309 
Q 2856 2309 3098 2579 
Q 3341 2850 3341 3303 
Q 3341 3753 3100 4020 
Q 2859 4288 2450 4288 
L 2100 4288 
L 2100 2309 
z
" transform="scale(0.015625)"/>
     <path id="DejaVuSerif-Bold-72" d="M 3438 3359 
L 3438 2369 
L 3084 2369 
Q 3066 2634 2941 2764 
Q 2816 2894 2578 2894 
Q 2216 2894 2006 2575 
Q 1797 2256 1797 1691 
L 1797 378 
L 2400 378 
L 2400 0 
L 219 0 
L 219 378 
L 691 378 
L 691 2944 
L 184 2944 
L 184 3322 
L 1797 3322 
L 1797 2731 
Q 1959 3078 2226 3245 
Q 2494 3413 2881 3413 
Q 2978 3413 3117 3398 
Q 3256 3384 3438 3359 
z
" transform="scale(0.015625)"/>
     <path id="DejaVuSerif-Bold-65" d="M 2566 1875 
Q 2566 2531 2444 2795 
Q 2322 3059 2028 3059 
Q 1744 3059 1620 2800 
Q 1497 2541 1497 1931 
L 1497 1875 
L 2566 1875 
z
M 3781 1503 
L 1497 1503 
L 1497 1478 
Q 1497 834 1690 548 
Q 1884 263 2316 263 
Q 2675 263 2897 453 
Q 3119 644 3181 1006 
L 3700 1006 
Q 3566 441 3166 175 
Q 2766 -91 2047 -91 
Q 1184 -91 723 364 
Q 263 819 263 1663 
Q 263 2488 734 2950 
Q 1206 3413 2047 3413 
Q 2872 3413 3312 2927 
Q 3753 2441 3781 1503 
z
" transform="scale(0.015625)"/>
     <path id="DejaVuSerif-Bold-63" d="M 3609 1038 
Q 3491 469 3123 189 
Q 2756 -91 2125 -91 
Q 1238 -91 750 368 
Q 263 828 263 1663 
Q 263 2488 744 2950 
Q 1225 3413 2081 3413 
Q 2428 3413 2781 3347 
Q 3134 3281 3500 3150 
L 3500 2228 
L 3150 2228 
Q 3100 2650 2903 2854 
Q 2706 3059 2350 3059 
Q 1888 3059 1692 2746 
Q 1497 2434 1497 1663 
Q 1497 909 1687 586 
Q 1878 263 2309 263 
Q 2644 263 2845 463 
Q 3047 663 3091 1038 
L 3609 1038 
z
" transform="scale(0.015625)"/>
     <path id="DejaVuSerif-Bold-69" d="M 588 4263 
Q 588 4516 763 4689 
Q 938 4863 1191 4863 
Q 1438 4863 1611 4689 
Q 1784 4516 1784 4263 
Q 1784 4016 1611 3842 
Q 1438 3669 1191 3669 
Q 938 3669 763 3841 
Q 588 4013 588 4263 
z
M 1797 378 
L 2272 378 
L 2272 0 
L 219 0 
L 219 378 
L 691 378 
L 691 2944 
L 219 2944 
L 219 3322 
L 1797 3322 
L 1797 378 
z
" transform="scale(0.015625)"/>
     <path id="DejaVuSerif-Bold-73" d="M 300 97 
L 300 1025 
L 653 1025 
Q 697 653 931 458 
Q 1166 263 1569 263 
Q 1906 263 2086 380 
Q 2266 497 2266 716 
Q 2266 916 2152 1025 
Q 2038 1134 1709 1216 
L 1253 1331 
Q 738 1459 506 1698 
Q 275 1938 275 2344 
Q 275 2884 650 3148 
Q 1025 3413 1806 3413 
Q 2100 3413 2433 3364 
Q 2766 3316 3169 3213 
L 3169 2375 
L 2816 2375 
Q 2788 2716 2573 2887 
Q 2359 3059 1959 3059 
Q 1622 3059 1448 2951 
Q 1275 2844 1275 2638 
Q 1275 2469 1375 2372 
Q 1475 2275 1734 2209 
L 2188 2094 
Q 2841 1928 3091 1684 
Q 3341 1441 3341 1006 
Q 3341 444 2939 176 
Q 2538 -91 1691 -91 
Q 1381 -91 1034 -44 
Q 688 3 300 97 
z
" transform="scale(0.015625)"/>
     <path id="DejaVuSerif-Bold-6f" d="M 2138 263 
Q 2488 263 2630 563 
Q 2772 863 2772 1663 
Q 2772 2463 2631 2761 
Q 2491 3059 2138 3059 
Q 1784 3059 1640 2757 
Q 1497 2456 1497 1663 
Q 1497 869 1640 566 
Q 1784 263 2138 263 
z
M 2138 -91 
Q 1259 -91 761 376 
Q 263 844 263 1663 
Q 263 2484 761 2948 
Q 1259 3413 2138 3413 
Q 3019 3413 3516 2948 
Q 4013 2484 4013 1663 
Q 4013 844 3514 376 
Q 3016 -91 2138 -91 
z
" transform="scale(0.015625)"/>
     <path id="DejaVuSerif-Bold-6e" d="M 219 0 
L 219 378 
L 691 378 
L 691 2944 
L 219 2944 
L 219 3322 
L 1797 3322 
L 1797 2853 
Q 1997 3150 2253 3281 
Q 2509 3413 2900 3413 
Q 3459 3413 3745 3083 
Q 4031 2753 4031 2113 
L 4031 378 
L 4506 378 
L 4506 0 
L 2522 0 
L 2522 378 
L 2925 378 
L 2925 2144 
Q 2925 2566 2817 2730 
Q 2709 2894 2444 2894 
Q 2109 2894 1953 2648 
Q 1797 2403 1797 1869 
L 1797 378 
L 2203 378 
L 2203 0 
L 219 0 
z
" transform="scale(0.015625)"/>
     <path id="DejaVuSerif-Bold-2d" d="M 347 2138 
L 2309 2138 
L 2309 1294 
L 347 1294 
L 347 2138 
z
" transform="scale(0.015625)"/>
     <path id="DejaVuSerif-Bold-52" d="M 3397 2278 
Q 3675 2238 3865 2094 
Q 4056 1950 4197 1678 
L 4878 378 
L 5356 378 
L 5356 0 
L 3822 0 
L 3078 1409 
Q 2863 1847 2711 1967 
Q 2559 2088 2291 2088 
L 2100 2088 
L 2100 378 
L 2700 378 
L 2700 0 
L 300 0 
L 300 378 
L 897 378 
L 897 4288 
L 300 4288 
L 300 4666 
L 2963 4666 
Q 3775 4666 4217 4339 
Q 4659 4013 4659 3413 
Q 4659 2925 4345 2642 
Q 4031 2359 3397 2278 
z
M 2100 2463 
L 2509 2463 
Q 2947 2463 3183 2700 
Q 3419 2938 3419 3378 
Q 3419 3819 3183 4053 
Q 2947 4288 2509 4288 
L 2100 4288 
L 2100 2463 
z
" transform="scale(0.015625)"/>
     <path id="DejaVuSerif-Bold-61" d="M 3525 2041 
L 3525 378 
L 4000 378 
L 4000 0 
L 2419 0 
L 2419 422 
Q 2200 159 1931 34 
Q 1663 -91 1319 -91 
Q 809 -91 536 182 
Q 263 456 263 966 
Q 263 1525 655 1803 
Q 1047 2081 1838 2081 
L 2419 2081 
L 2419 2278 
Q 2419 2681 2228 2873 
Q 2038 3066 1638 3066 
Q 1306 3066 1126 2930 
Q 947 2794 872 2484 
L 519 2484 
L 519 3200 
Q 816 3306 1134 3359 
Q 1453 3413 1806 3413 
Q 2697 3413 3111 3081 
Q 3525 2750 3525 2041 
z
M 2419 1044 
L 2419 1709 
L 2003 1709 
Q 1694 1709 1528 1540 
Q 1363 1372 1363 1056 
Q 1363 741 1483 584 
Q 1603 428 1850 428 
Q 2106 428 2262 597 
Q 2419 766 2419 1044 
z
" transform="scale(0.015625)"/>
     <path id="DejaVuSerif-Bold-6c" d="M 1797 378 
L 2272 378 
L 2272 0 
L 219 0 
L 219 378 
L 691 378 
L 691 4488 
L 219 4488 
L 219 4863 
L 1797 4863 
L 1797 378 
z
" transform="scale(0.015625)"/>
     <path id="DejaVuSerif-Bold-20" transform="scale(0.015625)"/>
     <path id="DejaVuSerif-Bold-43" d="M 4769 1331 
Q 4584 609 4106 259 
Q 3628 -91 2822 -91 
Q 1641 -91 955 561 
Q 269 1213 269 2328 
Q 269 3447 955 4098 
Q 1641 4750 2822 4750 
Q 3238 4750 3688 4650 
Q 4138 4550 4641 4347 
L 4641 3200 
L 4244 3200 
Q 4122 3788 3800 4080 
Q 3478 4372 2950 4372 
Q 2269 4372 1937 3870 
Q 1606 3369 1606 2328 
Q 1606 1288 1937 788 
Q 2269 288 2956 288 
Q 3422 288 3717 547 
Q 4013 806 4147 1331 
L 4769 1331 
z
" transform="scale(0.015625)"/>
     <path id="DejaVuSerif-Bold-75" d="M 3963 3322 
L 3963 378 
L 4434 378 
L 4434 0 
L 2853 0 
L 2853 469 
Q 2656 172 2400 40 
Q 2144 -91 1753 -91 
Q 1194 -91 908 239 
Q 622 569 622 1209 
L 622 2944 
L 147 2944 
L 147 3322 
L 1728 3322 
L 1728 1381 
Q 1728 763 1831 595 
Q 1934 428 2209 428 
Q 2544 428 2698 675 
Q 2853 922 2853 1459 
L 2853 2944 
L 2450 2944 
L 2450 3322 
L 3963 3322 
z
" transform="scale(0.015625)"/>
     <path id="DejaVuSerif-Bold-76" d="M 1428 0 
L 250 2944 
L -116 2944 
L -116 3322 
L 1791 3322 
L 1791 2944 
L 1388 2944 
L 2228 844 
L 3066 2944 
L 2631 2944 
L 2631 3322 
L 3878 3322 
L 3878 2944 
L 3494 2944 
L 2316 0 
L 1428 0 
z
" transform="scale(0.015625)"/>
     <path id="DejaVuSerif-Bold-66" d="M 3097 4031 
L 2747 4031 
Q 2722 4275 2605 4394 
Q 2488 4513 2272 4513 
Q 2022 4513 1909 4333 
Q 1797 4153 1797 3750 
L 1797 3322 
L 2631 3322 
L 2631 2944 
L 1797 2944 
L 1797 378 
L 2438 378 
L 2438 0 
L 219 0 
L 219 378 
L 691 378 
L 691 2944 
L 197 2944 
L 197 3322 
L 691 3322 
L 691 3738 
Q 691 4291 1044 4577 
Q 1397 4863 2081 4863 
Q 2347 4863 2600 4833 
Q 2853 4803 3097 4744 
L 3097 4031 
z
" transform="scale(0.015625)"/>
     <path id="DejaVuSerif-Bold-42" d="M 300 0 
L 300 378 
L 897 378 
L 897 4288 
L 300 4288 
L 300 4666 
L 3066 4666 
Q 3919 4666 4347 4378 
Q 4775 4091 4775 3513 
Q 4775 3097 4479 2853 
Q 4184 2609 3603 2547 
Q 4306 2481 4681 2172 
Q 5056 1863 5056 1350 
Q 5056 656 4532 328 
Q 4009 0 2894 0 
L 300 0 
z
M 2100 2719 
L 2509 2719 
Q 3047 2719 3306 2914 
Q 3566 3109 3566 3513 
Q 3566 3919 3314 4103 
Q 3063 4288 2509 4288 
L 2100 4288 
L 2100 2719 
z
M 2100 378 
L 2547 378 
Q 3144 378 3431 615 
Q 3719 853 3719 1350 
Q 3719 1850 3428 2097 
Q 3138 2344 2547 2344 
L 2100 2344 
L 2100 378 
z
" transform="scale(0.015625)"/>
     <path id="DejaVuSerif-Bold-79" d="M 1997 -750 
Q 1847 -1116 1634 -1269 
Q 1422 -1422 1063 -1422 
Q 909 -1422 721 -1387 
Q 534 -1353 313 -1288 
L 313 -594 
L 666 -597 
Q 675 -838 779 -953 
Q 884 -1069 1094 -1069 
Q 1297 -1069 1422 -958 
Q 1547 -847 1672 -538 
L 1722 -422 
L 275 2944 
L -84 2944 
L -84 3322 
L 1831 3322 
L 1831 2944 
L 1434 2944 
L 2278 978 
L 3066 2944 
L 2625 2944 
L 2625 3322 
L 3872 3322 
L 3872 2944 
L 3469 2944 
L 1997 -750 
z
" transform="scale(0.015625)"/>
     <path id="DejaVuSerif-Bold-53" d="M 494 225 
L 494 1331 
L 891 1331 
Q 981 806 1318 547 
Q 1656 288 2253 288 
Q 2738 288 2991 472 
Q 3244 656 3244 1013 
Q 3244 1294 3072 1450 
Q 2900 1606 2363 1741 
L 1663 1913 
Q 978 2088 700 2398 
Q 422 2709 422 3284 
Q 422 3978 883 4364 
Q 1344 4750 2175 4750 
Q 2584 4750 3026 4681 
Q 3469 4613 3944 4475 
L 3944 3444 
L 3547 3444 
Q 3456 3925 3150 4148 
Q 2844 4372 2278 4372 
Q 1816 4372 1580 4211 
Q 1344 4050 1344 3731 
Q 1344 3441 1506 3289 
Q 1669 3138 2303 2975 
L 3003 2803 
Q 3653 2641 3945 2297 
Q 4238 1953 4238 1350 
Q 4238 644 3750 276 
Q 3263 -91 2316 -91 
Q 1859 -91 1409 -12 
Q 959 66 494 225 
z
" transform="scale(0.015625)"/>
     <path id="DejaVuSerif-Bold-74" d="M 634 2944 
L 153 2944 
L 153 3322 
L 634 3322 
L 634 4353 
L 1741 4353 
L 1741 3322 
L 2663 3322 
L 2663 2944 
L 1741 2944 
L 1741 909 
Q 1741 475 1809 369 
Q 1878 263 2059 263 
Q 2259 263 2356 397 
Q 2453 531 2459 813 
L 2925 813 
Q 2897 313 2651 111 
Q 2406 -91 1806 -91 
Q 1122 -91 878 123 
Q 634 338 634 909 
L 634 2944 
z
" transform="scale(0.015625)"/>
    </defs>
    <use xlink:href="#DejaVuSerif-Bold-50"/>
    <use xlink:href="#DejaVuSerif-Bold-72" transform="translate(75.195312 0)"/>
    <use xlink:href="#DejaVuSerif-Bold-65" transform="translate(127.880859 0)"/>
    <use xlink:href="#DejaVuSerif-Bold-63" transform="translate(191.503906 0)"/>
    <use xlink:href="#DejaVuSerif-Bold-69" transform="translate(252.392578 0)"/>
    <use xlink:href="#DejaVuSerif-Bold-73" transform="translate(290.380859 0)"/>
    <use xlink:href="#DejaVuSerif-Bold-69" transform="translate(346.679688 0)"/>
    <use xlink:href="#DejaVuSerif-Bold-6f" transform="translate(384.667969 0)"/>
    <use xlink:href="#DejaVuSerif-Bold-6e" transform="translate(451.367188 0)"/>
    <use xlink:href="#DejaVuSerif-Bold-2d" transform="translate(524.072266 0)"/>
    <use xlink:href="#DejaVuSerif-Bold-52" transform="translate(565.576172 0)"/>
    <use xlink:href="#DejaVuSerif-Bold-65" transform="translate(648.681641 0)"/>
    <use xlink:href="#DejaVuSerif-Bold-63" transform="translate(712.304688 0)"/>
    <use xlink:href="#DejaVuSerif-Bold-61" transform="translate(773.193359 0)"/>
    <use xlink:href="#DejaVuSerif-Bold-6c" transform="translate(837.988281 0)"/>
    <use xlink:href="#DejaVuSerif-Bold-6c" transform="translate(875.976562 0)"/>
    <use xlink:href="#DejaVuSerif-Bold-20" transform="translate(913.964844 0)"/>
    <use xlink:href="#DejaVuSerif-Bold-43" transform="translate(948.779297 0)"/>
    <use xlink:href="#DejaVuSerif-Bold-75" transform="translate(1028.369141 0)"/>
    <use xlink:href="#DejaVuSerif-Bold-72" transform="translate(1101.074219 0)"/>
    <use xlink:href="#DejaVuSerif-Bold-76" transform="translate(1153.759766 0)"/>
    <use xlink:href="#DejaVuSerif-Bold-65" transform="translate(1211.865234 0)"/>
    <use xlink:href="#DejaVuSerif-Bold-73" transform="translate(1275.488281 0)"/>
    <use xlink:href="#DejaVuSerif-Bold-20" transform="translate(1331.787109 0)"/>
    <use xlink:href="#DejaVuSerif-Bold-66" transform="translate(1366.601562 0)"/>
    <use xlink:href="#DejaVuSerif-Bold-6f" transform="translate(1409.619141 0)"/>
    <use xlink:href="#DejaVuSerif-Bold-72" transform="translate(1476.318359 0)"/>
    <use xlink:href="#DejaVuSerif-Bold-20" transform="translate(1529.003906 0)"/>
    <use xlink:href="#DejaVuSerif-Bold-42" transform="translate(1563.818359 0)"/>
    <use xlink:href="#DejaVuSerif-Bold-69" transform="translate(1648.339844 0)"/>
    <use xlink:href="#DejaVuSerif-Bold-6e" transform="translate(1686.328125 0)"/>
    <use xlink:href="#DejaVuSerif-Bold-61" transform="translate(1759.033203 0)"/>
    <use xlink:href="#DejaVuSerif-Bold-72" transform="translate(1823.828125 0)"/>
    <use xlink:href="#DejaVuSerif-Bold-79" transform="translate(1876.513672 0)"/>
    <use xlink:href="#DejaVuSerif-Bold-20" transform="translate(1934.619141 0)"/>
    <use xlink:href="#DejaVuSerif-Bold-53" transform="translate(1969.433594 0)"/>
    <use xlink:href="#DejaVuSerif-Bold-74" transform="translate(2041.650391 0)"/>
    <use xlink:href="#DejaVuSerif-Bold-72" transform="translate(2087.841797 0)"/>
    <use xlink:href="#DejaVuSerif-Bold-65" transform="translate(2140.527344 0)"/>
    <use xlink:href="#DejaVuSerif-Bold-73" transform="translate(2204.150391 0)"/>
    <use xlink:href="#DejaVuSerif-Bold-73" transform="translate(2260.449219 0)"/>
    <use xlink:href="#DejaVuSerif-Bold-20" transform="translate(2316.748047 0)"/>
    <use xlink:href="#DejaVuSerif-Bold-43" transform="translate(2351.5625 0)"/>
    <use xlink:href="#DejaVuSerif-Bold-6c" transform="translate(2431.152344 0)"/>
    <use xlink:href="#DejaVuSerif-Bold-61" transform="translate(2469.140625 0)"/>
    <use xlink:href="#DejaVuSerif-Bold-73" transform="translate(2533.935547 0)"/>
    <use xlink:href="#DejaVuSerif-Bold-73" transform="translate(2590.234375 0)"/>
    <use xlink:href="#DejaVuSerif-Bold-69" transform="translate(2646.533203 0)"/>
    <use xlink:href="#DejaVuSerif-Bold-66" transform="translate(2684.521484 0)"/>
    <use xlink:href="#DejaVuSerif-Bold-69" transform="translate(2727.539062 0)"/>
    <use xlink:href="#DejaVuSerif-Bold-63" transform="translate(2765.527344 0)"/>
    <use xlink:href="#DejaVuSerif-Bold-61" transform="translate(2826.416016 0)"/>
    <use xlink:href="#DejaVuSerif-Bold-74" transform="translate(2891.210938 0)"/>
    <use xlink:href="#DejaVuSerif-Bold-69" transform="translate(2937.402344 0)"/>
    <use xlink:href="#DejaVuSerif-Bold-6f" transform="translate(2975.390625 0)"/>
    <use xlink:href="#DejaVuSerif-Bold-6e" transform="translate(3042.089844 0)"/>
   </g>
  </g>
 </g>
 <defs>
  <clipPath id="pc6268924b7">
   <rect x="39.65875" y="63.46875" width="233.72625" height="199.6875"/>
  </clipPath>
  <clipPath id="pdb0b4aaa62">
   <rect x="324.05875" y="63.46875" width="233.72625" height="199.6875"/>
  </clipPath>
  <clipPath id="p9cd53352fc">
   <rect x="608.45875" y="63.46875" width="233.72625" height="199.6875"/>
  </clipPath>
 </defs>
</svg>
