<?xml version="1.0" encoding="utf-8" standalone="no"?>
<!DOCTYPE svg PUBLIC "-//W3C//DTD SVG 1.1//EN"
  "http://www.w3.org/Graphics/SVG/1.1/DTD/svg11.dtd">
<svg xmlns:xlink="http://www.w3.org/1999/xlink" width="856.501406pt" height="370.870312pt" viewBox="0 0 856.501406 370.870312" xmlns="http://www.w3.org/2000/svg" version="1.1">
 <metadata>
  <rdf:RDF xmlns:dc="http://purl.org/dc/elements/1.1/" xmlns:cc="http://creativecommons.org/ns#" xmlns:rdf="http://www.w3.org/1999/02/22-rdf-syntax-ns#">
   <cc:Work>
    <dc:type rdf:resource="http://purl.org/dc/dcmitype/StillImage"/>
    <dc:date>2025-12-25T21:13:21.117283</dc:date>
    <dc:format>image/svg+xml</dc:format>
    <dc:creator>
     <cc:Agent>
      <dc:title>Matplotlib v3.10.5, https://matplotlib.org/</dc:title>
     </cc:Agent>
    </dc:creator>
   </cc:Work>
  </rdf:RDF>
 </metadata>
 <defs>
  <style type="text/css">*{stroke-linejoin: round; stroke-linecap: butt}</style>
 </defs>
 <g id="figure_1">
  <g id="patch_1">
   <path d="M 0 370.870312 
L 856.501406 370.870312 
L 856.501406 0 
L 0 0 
z
" style="fill: #ffffff"/>
  </g>
  <g id="axes_1">
   <g id="patch_2">
    <path d="M 51.267656 351.46 
L 284.341406 351.46 
L 284.341406 77.178 
L 51.267656 77.178 
z
" style="fill: #ffffff"/>
   </g>
   <g id="matplotlib.axis_1">
    <g id="xtick_1">
     <g id="line2d_1">
      <path d="M 167.804531 351.46 
L 167.804531 77.178 
" clip-path="url(#pfdfcde4411)" style="fill: none; stroke: #cccccc; stroke-width: 0.8; stroke-linecap: round"/>
     </g>
     <g id="line2d_2"/>
     <g id="text_1">
      <!-- LOSO CV -->
      <g style="fill: #262626" transform="translate(146.231953 361.798594) scale(0.09 -0.09)">
       <defs>
        <path id="DejaVuSerif-4c" d="M 353 0 
L 353 331 
L 947 331 
L 947 4331 
L 353 4331 
L 353 4666 
L 2175 4666 
L 2175 4331 
L 1581 4331 
L 1581 384 
L 3713 384 
L 3713 1166 
L 4097 1166 
L 4097 0 
L 353 0 
z
" transform="scale(0.015625)"/>
        <path id="DejaVuSerif-4f" d="M 2625 244 
Q 3391 244 3781 770 
Q 4172 1297 4172 2328 
Q 4172 3363 3781 3889 
Q 3391 4416 2625 4416 
Q 1856 4416 1465 3889 
Q 1075 3363 1075 2328 
Q 1075 1297 1465 770 
Q 1856 244 2625 244 
z
M 2625 -91 
Q 2150 -91 1751 65 
Q 1353 222 1050 525 
Q 700 875 529 1319 
Q 359 1763 359 2328 
Q 359 2894 529 3339 
Q 700 3784 1050 4134 
Q 1356 4441 1750 4595 
Q 2144 4750 2625 4750 
Q 3641 4750 4266 4084 
Q 4891 3419 4891 2328 
Q 4891 1769 4719 1320 
Q 4547 872 4197 525 
Q 3891 219 3497 64 
Q 3103 -91 2625 -91 
z
" transform="scale(0.015625)"/>
        <path id="DejaVuSerif-53" d="M 594 225 
L 594 1288 
L 953 1284 
Q 969 753 1261 498 
Q 1553 244 2150 244 
Q 2706 244 2998 464 
Q 3291 684 3291 1106 
Q 3291 1444 3114 1625 
Q 2938 1806 2369 1978 
L 1753 2163 
Q 1084 2366 811 2669 
Q 538 2972 538 3500 
Q 538 4094 959 4422 
Q 1381 4750 2144 4750 
Q 2469 4750 2856 4679 
Q 3244 4609 3681 4475 
L 3681 3481 
L 3328 3481 
Q 3275 3975 2998 4195 
Q 2722 4416 2156 4416 
Q 1663 4416 1405 4214 
Q 1147 4013 1147 3628 
Q 1147 3294 1340 3103 
Q 1534 2913 2163 2725 
L 2741 2553 
Q 3375 2363 3645 2067 
Q 3916 1772 3916 1275 
Q 3916 597 3481 253 
Q 3047 -91 2188 -91 
Q 1803 -91 1404 -12 
Q 1006 66 594 225 
z
" transform="scale(0.015625)"/>
        <path id="DejaVuSerif-20" transform="scale(0.015625)"/>
        <path id="DejaVuSerif-43" d="M 4513 1234 
Q 4306 581 3820 245 
Q 3334 -91 2591 -91 
Q 2134 -91 1743 65 
Q 1353 222 1050 525 
Q 700 875 529 1320 
Q 359 1766 359 2328 
Q 359 3416 987 4083 
Q 1616 4750 2644 4750 
Q 3025 4750 3456 4650 
Q 3888 4550 4384 4347 
L 4384 3272 
L 4031 3272 
Q 3916 3859 3567 4137 
Q 3219 4416 2591 4416 
Q 1844 4416 1459 3886 
Q 1075 3356 1075 2328 
Q 1075 1303 1459 773 
Q 1844 244 2591 244 
Q 3113 244 3450 492 
Q 3788 741 3938 1234 
L 4513 1234 
z
" transform="scale(0.015625)"/>
        <path id="DejaVuSerif-56" d="M 1119 4331 
L 2497 750 
L 3872 4331 
L 3347 4331 
L 3347 4666 
L 4716 4666 
L 4716 4331 
L 4263 4331 
L 2597 0 
L 2059 0 
L 403 4331 
L -63 4331 
L -63 4666 
L 1638 4666 
L 1638 4331 
L 1119 4331 
z
" transform="scale(0.015625)"/>
       </defs>
       <use xlink:href="#DejaVuSerif-4c"/>
       <use xlink:href="#DejaVuSerif-4f" transform="translate(66.40625 0)"/>
       <use xlink:href="#DejaVuSerif-53" transform="translate(148.388672 0)"/>
       <use xlink:href="#DejaVuSerif-4f" transform="translate(216.894531 0)"/>
       <use xlink:href="#DejaVuSerif-20" transform="translate(298.876953 0)"/>
       <use xlink:href="#DejaVuSerif-43" transform="translate(330.664062 0)"/>
       <use xlink:href="#DejaVuSerif-56" transform="translate(407.177734 0)"/>
      </g>
     </g>
    </g>
   </g>
   <g id="matplotlib.axis_2">
    <g id="ytick_1">
     <g id="line2d_3">
      <path d="M 51.267656 347.770108 
L 284.341406 347.770108 
" clip-path="url(#pfdfcde4411)" style="fill: none; stroke: #cccccc; stroke-opacity: 0.3; stroke-width: 0.8; stroke-linecap: round"/>
     </g>
     <g id="line2d_4"/>
     <g id="text_2">
      <!-- 80.0 -->
      <g style="fill: #262626" transform="translate(27.728594 351.189404) scale(0.09 -0.09)">
       <defs>
        <path id="DejaVuSerif-38" d="M 2981 1275 
Q 2981 1775 2732 2051 
Q 2484 2328 2034 2328 
Q 1584 2328 1336 2051 
Q 1088 1775 1088 1275 
Q 1088 772 1336 495 
Q 1584 219 2034 219 
Q 2484 219 2732 495 
Q 2981 772 2981 1275 
z
M 2853 3541 
Q 2853 3966 2637 4203 
Q 2422 4441 2034 4441 
Q 1650 4441 1433 4203 
Q 1216 3966 1216 3541 
Q 1216 3113 1433 2875 
Q 1650 2638 2034 2638 
Q 2422 2638 2637 2875 
Q 2853 3113 2853 3541 
z
M 2516 2484 
Q 3047 2413 3344 2092 
Q 3641 1772 3641 1275 
Q 3641 619 3225 264 
Q 2809 -91 2034 -91 
Q 1263 -91 845 264 
Q 428 619 428 1275 
Q 428 1772 725 2092 
Q 1022 2413 1556 2484 
Q 1084 2569 832 2842 
Q 581 3116 581 3541 
Q 581 4103 968 4426 
Q 1356 4750 2034 4750 
Q 2713 4750 3100 4426 
Q 3488 4103 3488 3541 
Q 3488 3116 3236 2842 
Q 2984 2569 2516 2484 
z
" transform="scale(0.015625)"/>
        <path id="DejaVuSerif-30" d="M 2034 219 
Q 2513 219 2750 744 
Q 2988 1269 2988 2328 
Q 2988 3391 2750 3916 
Q 2513 4441 2034 4441 
Q 1556 4441 1318 3916 
Q 1081 3391 1081 2328 
Q 1081 1269 1318 744 
Q 1556 219 2034 219 
z
M 2034 -91 
Q 1275 -91 848 546 
Q 422 1184 422 2328 
Q 422 3475 848 4112 
Q 1275 4750 2034 4750 
Q 2797 4750 3222 4112 
Q 3647 3475 3647 2328 
Q 3647 1184 3222 546 
Q 2797 -91 2034 -91 
z
" transform="scale(0.015625)"/>
        <path id="DejaVuSerif-2e" d="M 603 325 
Q 603 500 722 622 
Q 841 744 1019 744 
Q 1191 744 1312 622 
Q 1434 500 1434 325 
Q 1434 153 1312 31 
Q 1191 -91 1019 -91 
Q 841 -91 722 29 
Q 603 150 603 325 
z
" transform="scale(0.015625)"/>
       </defs>
       <use xlink:href="#DejaVuSerif-38"/>
       <use xlink:href="#DejaVuSerif-30" transform="translate(63.623047 0)"/>
       <use xlink:href="#DejaVuSerif-2e" transform="translate(127.246094 0)"/>
       <use xlink:href="#DejaVuSerif-30" transform="translate(159.033203 0)"/>
      </g>
     </g>
    </g>
    <g id="ytick_2">
     <g id="line2d_5">
      <path d="M 51.267656 317.021004 
L 284.341406 317.021004 
" clip-path="url(#pfdfcde4411)" style="fill: none; stroke: #cccccc; stroke-opacity: 0.3; stroke-width: 0.8; stroke-linecap: round"/>
     </g>
     <g id="line2d_6"/>
     <g id="text_3">
      <!-- 82.5 -->
      <g style="fill: #262626" transform="translate(27.728594 320.440301) scale(0.09 -0.09)">
       <defs>
        <path id="DejaVuSerif-32" d="M 819 3553 
L 469 3553 
L 469 4384 
Q 803 4563 1142 4656 
Q 1481 4750 1806 4750 
Q 2534 4750 2956 4397 
Q 3378 4044 3378 3438 
Q 3378 2753 2422 1800 
Q 2347 1728 2309 1691 
L 1131 513 
L 3078 513 
L 3078 1088 
L 3444 1088 
L 3444 0 
L 434 0 
L 434 341 
L 1850 1753 
Q 2319 2222 2519 2614 
Q 2719 3006 2719 3438 
Q 2719 3909 2473 4175 
Q 2228 4441 1797 4441 
Q 1350 4441 1106 4219 
Q 863 3997 819 3553 
z
" transform="scale(0.015625)"/>
        <path id="DejaVuSerif-35" d="M 3219 4666 
L 3219 4153 
L 1081 4153 
L 1081 2816 
Q 1244 2928 1461 2984 
Q 1678 3041 1947 3041 
Q 2703 3041 3140 2622 
Q 3578 2203 3578 1478 
Q 3578 738 3136 323 
Q 2694 -91 1894 -91 
Q 1572 -91 1234 -12 
Q 897 66 544 225 
L 544 1131 
L 897 1131 
Q 925 688 1179 453 
Q 1434 219 1894 219 
Q 2388 219 2653 544 
Q 2919 869 2919 1478 
Q 2919 2084 2655 2407 
Q 2391 2731 1894 2731 
Q 1613 2731 1398 2631 
Q 1184 2531 1019 2322 
L 750 2322 
L 750 4666 
L 3219 4666 
z
" transform="scale(0.015625)"/>
       </defs>
       <use xlink:href="#DejaVuSerif-38"/>
       <use xlink:href="#DejaVuSerif-32" transform="translate(63.623047 0)"/>
       <use xlink:href="#DejaVuSerif-2e" transform="translate(127.246094 0)"/>
       <use xlink:href="#DejaVuSerif-35" transform="translate(159.033203 0)"/>
      </g>
     </g>
    </g>
    <g id="ytick_3">
     <g id="line2d_7">
      <path d="M 51.267656 286.271901 
L 284.341406 286.271901 
" clip-path="url(#pfdfcde4411)" style="fill: none; stroke: #cccccc; stroke-opacity: 0.3; stroke-width: 0.8; stroke-linecap: round"/>
     </g>
     <g id="line2d_8"/>
     <g id="text_4">
      <!-- 85.0 -->
      <g style="fill: #262626" transform="translate(27.728594 289.691198) scale(0.09 -0.09)">
       <use xlink:href="#DejaVuSerif-38"/>
       <use xlink:href="#DejaVuSerif-35" transform="translate(63.623047 0)"/>
       <use xlink:href="#DejaVuSerif-2e" transform="translate(127.246094 0)"/>
       <use xlink:href="#DejaVuSerif-30" transform="translate(159.033203 0)"/>
      </g>
     </g>
    </g>
    <g id="ytick_4">
     <g id="line2d_9">
      <path d="M 51.267656 255.522798 
L 284.341406 255.522798 
" clip-path="url(#pfdfcde4411)" style="fill: none; stroke: #cccccc; stroke-opacity: 0.3; stroke-width: 0.8; stroke-linecap: round"/>
     </g>
     <g id="line2d_10"/>
     <g id="text_5">
      <!-- 87.5 -->
      <g style="fill: #262626" transform="translate(27.728594 258.942095) scale(0.09 -0.09)">
       <defs>
        <path id="DejaVuSerif-37" d="M 3609 4347 
L 1784 0 
L 1319 0 
L 3059 4153 
L 903 4153 
L 903 3578 
L 538 3578 
L 538 4666 
L 3609 4666 
L 3609 4347 
z
" transform="scale(0.015625)"/>
       </defs>
       <use xlink:href="#DejaVuSerif-38"/>
       <use xlink:href="#DejaVuSerif-37" transform="translate(63.623047 0)"/>
       <use xlink:href="#DejaVuSerif-2e" transform="translate(127.246094 0)"/>
       <use xlink:href="#DejaVuSerif-35" transform="translate(159.033203 0)"/>
      </g>
     </g>
    </g>
    <g id="ytick_5">
     <g id="line2d_11">
      <path d="M 51.267656 224.773695 
L 284.341406 224.773695 
" clip-path="url(#pfdfcde4411)" style="fill: none; stroke: #cccccc; stroke-opacity: 0.3; stroke-width: 0.8; stroke-linecap: round"/>
     </g>
     <g id="line2d_12"/>
     <g id="text_6">
      <!-- 90.0 -->
      <g style="fill: #262626" transform="translate(27.728594 228.192992) scale(0.09 -0.09)">
       <defs>
        <path id="DejaVuSerif-39" d="M 2994 2091 
Q 2784 1856 2512 1740 
Q 2241 1625 1900 1625 
Q 1206 1625 804 2044 
Q 403 2463 403 3188 
Q 403 3897 839 4323 
Q 1275 4750 2003 4750 
Q 2794 4750 3217 4161 
Q 3641 3572 3641 2478 
Q 3641 1253 3137 581 
Q 2634 -91 1722 -91 
Q 1475 -91 1203 -44 
Q 931 3 647 97 
L 647 872 
L 997 872 
Q 1038 556 1241 387 
Q 1444 219 1784 219 
Q 2391 219 2687 676 
Q 2984 1134 2994 2091 
z
M 1978 4441 
Q 1534 4441 1298 4117 
Q 1063 3794 1063 3188 
Q 1063 2581 1298 2256 
Q 1534 1931 1978 1931 
Q 2422 1931 2658 2245 
Q 2894 2559 2894 3150 
Q 2894 3772 2656 4106 
Q 2419 4441 1978 4441 
z
" transform="scale(0.015625)"/>
       </defs>
       <use xlink:href="#DejaVuSerif-39"/>
       <use xlink:href="#DejaVuSerif-30" transform="translate(63.623047 0)"/>
       <use xlink:href="#DejaVuSerif-2e" transform="translate(127.246094 0)"/>
       <use xlink:href="#DejaVuSerif-30" transform="translate(159.033203 0)"/>
      </g>
     </g>
    </g>
    <g id="ytick_6">
     <g id="line2d_13">
      <path d="M 51.267656 194.024592 
L 284.341406 194.024592 
" clip-path="url(#pfdfcde4411)" style="fill: none; stroke: #cccccc; stroke-opacity: 0.3; stroke-width: 0.8; stroke-linecap: round"/>
     </g>
     <g id="line2d_14"/>
     <g id="text_7">
      <!-- 92.5 -->
      <g style="fill: #262626" transform="translate(27.728594 197.443889) scale(0.09 -0.09)">
       <use xlink:href="#DejaVuSerif-39"/>
       <use xlink:href="#DejaVuSerif-32" transform="translate(63.623047 0)"/>
       <use xlink:href="#DejaVuSerif-2e" transform="translate(127.246094 0)"/>
       <use xlink:href="#DejaVuSerif-35" transform="translate(159.033203 0)"/>
      </g>
     </g>
    </g>
    <g id="ytick_7">
     <g id="line2d_15">
      <path d="M 51.267656 163.275489 
L 284.341406 163.275489 
" clip-path="url(#pfdfcde4411)" style="fill: none; stroke: #cccccc; stroke-opacity: 0.3; stroke-width: 0.8; stroke-linecap: round"/>
     </g>
     <g id="line2d_16"/>
     <g id="text_8">
      <!-- 95.0 -->
      <g style="fill: #262626" transform="translate(27.728594 166.694786) scale(0.09 -0.09)">
       <use xlink:href="#DejaVuSerif-39"/>
       <use xlink:href="#DejaVuSerif-35" transform="translate(63.623047 0)"/>
       <use xlink:href="#DejaVuSerif-2e" transform="translate(127.246094 0)"/>
       <use xlink:href="#DejaVuSerif-30" transform="translate(159.033203 0)"/>
      </g>
     </g>
    </g>
    <g id="ytick_8">
     <g id="line2d_17">
      <path d="M 51.267656 132.526386 
L 284.341406 132.526386 
" clip-path="url(#pfdfcde4411)" style="fill: none; stroke: #cccccc; stroke-opacity: 0.3; stroke-width: 0.8; stroke-linecap: round"/>
     </g>
     <g id="line2d_18"/>
     <g id="text_9">
      <!-- 97.5 -->
      <g style="fill: #262626" transform="translate(27.728594 135.945683) scale(0.09 -0.09)">
       <use xlink:href="#DejaVuSerif-39"/>
       <use xlink:href="#DejaVuSerif-37" transform="translate(63.623047 0)"/>
       <use xlink:href="#DejaVuSerif-2e" transform="translate(127.246094 0)"/>
       <use xlink:href="#DejaVuSerif-35" transform="translate(159.033203 0)"/>
      </g>
     </g>
    </g>
    <g id="ytick_9">
     <g id="line2d_19">
      <path d="M 51.267656 101.777283 
L 284.341406 101.777283 
" clip-path="url(#pfdfcde4411)" style="fill: none; stroke: #cccccc; stroke-opacity: 0.3; stroke-width: 0.8; stroke-linecap: round"/>
     </g>
     <g id="line2d_20"/>
     <g id="text_10">
      <!-- 100.0 -->
      <g style="fill: #262626" transform="translate(22.002344 105.196579) scale(0.09 -0.09)">
       <defs>
        <path id="DejaVuSerif-31" d="M 909 0 
L 909 331 
L 1722 331 
L 1722 4213 
L 781 3603 
L 781 4013 
L 1919 4750 
L 2350 4750 
L 2350 331 
L 3163 331 
L 3163 0 
L 909 0 
z
" transform="scale(0.015625)"/>
       </defs>
       <use xlink:href="#DejaVuSerif-31"/>
       <use xlink:href="#DejaVuSerif-30" transform="translate(63.623047 0)"/>
       <use xlink:href="#DejaVuSerif-30" transform="translate(127.246094 0)"/>
       <use xlink:href="#DejaVuSerif-2e" transform="translate(190.869141 0)"/>
       <use xlink:href="#DejaVuSerif-30" transform="translate(222.65625 0)"/>
      </g>
     </g>
    </g>
    <g id="text_11">
     <!-- Accuracy (%) -->
     <g style="fill: #262626" transform="translate(15.558281 251.354625) rotate(-90) scale(0.11 -0.11)">
      <defs>
       <path id="DejaVuSerif-41" d="M 1281 1691 
L 2994 1691 
L 2138 3909 
L 1281 1691 
z
M -38 0 
L -38 331 
L 372 331 
L 2034 4666 
L 2559 4666 
L 4225 331 
L 4684 331 
L 4684 0 
L 2988 0 
L 2988 331 
L 3506 331 
L 3116 1356 
L 1153 1356 
L 763 331 
L 1275 331 
L 1275 0 
L -38 0 
z
" transform="scale(0.015625)"/>
       <path id="DejaVuSerif-63" d="M 3291 997 
Q 3169 466 2822 187 
Q 2475 -91 1925 -91 
Q 1200 -91 759 389 
Q 319 869 319 1663 
Q 319 2459 759 2936 
Q 1200 3413 1925 3413 
Q 2241 3413 2553 3339 
Q 2866 3266 3181 3116 
L 3181 2266 
L 2847 2266 
Q 2781 2703 2561 2903 
Q 2341 3103 1931 3103 
Q 1466 3103 1228 2742 
Q 991 2381 991 1663 
Q 991 944 1227 581 
Q 1463 219 1931 219 
Q 2303 219 2525 412 
Q 2747 606 2828 997 
L 3291 997 
z
" transform="scale(0.015625)"/>
       <path id="DejaVuSerif-75" d="M 2266 3322 
L 3341 3322 
L 3341 331 
L 3884 331 
L 3884 0 
L 2766 0 
L 2766 588 
Q 2606 256 2353 82 
Q 2100 -91 1766 -91 
Q 1213 -91 952 223 
Q 691 538 691 1209 
L 691 2988 
L 172 2988 
L 172 3322 
L 1269 3322 
L 1269 1388 
Q 1269 781 1417 556 
Q 1566 331 1947 331 
Q 2347 331 2556 625 
Q 2766 919 2766 1478 
L 2766 2988 
L 2266 2988 
L 2266 3322 
z
" transform="scale(0.015625)"/>
       <path id="DejaVuSerif-72" d="M 3059 3328 
L 3059 2497 
L 2728 2497 
Q 2713 2744 2591 2866 
Q 2469 2988 2234 2988 
Q 1809 2988 1582 2694 
Q 1356 2400 1356 1850 
L 1356 331 
L 2022 331 
L 2022 0 
L 263 0 
L 263 331 
L 781 331 
L 781 2994 
L 231 2994 
L 231 3322 
L 1356 3322 
L 1356 2731 
Q 1525 3078 1790 3245 
Q 2056 3413 2438 3413 
Q 2578 3413 2733 3391 
Q 2888 3369 3059 3328 
z
" transform="scale(0.015625)"/>
       <path id="DejaVuSerif-61" d="M 2547 1044 
L 2547 1747 
L 1806 1747 
Q 1378 1747 1168 1562 
Q 959 1378 959 997 
Q 959 650 1171 447 
Q 1384 244 1747 244 
Q 2106 244 2326 466 
Q 2547 688 2547 1044 
z
M 3122 2075 
L 3122 331 
L 3634 331 
L 3634 0 
L 2547 0 
L 2547 359 
Q 2356 128 2106 18 
Q 1856 -91 1522 -91 
Q 969 -91 644 203 
Q 319 497 319 997 
Q 319 1513 691 1797 
Q 1063 2081 1741 2081 
L 2547 2081 
L 2547 2309 
Q 2547 2688 2317 2895 
Q 2088 3103 1672 3103 
Q 1328 3103 1125 2947 
Q 922 2791 872 2484 
L 575 2484 
L 575 3156 
Q 875 3284 1158 3348 
Q 1441 3413 1709 3413 
Q 2400 3413 2761 3070 
Q 3122 2728 3122 2075 
z
" transform="scale(0.015625)"/>
       <path id="DejaVuSerif-79" d="M 1381 -609 
L 1600 -56 
L 359 2988 
L -19 2988 
L -19 3322 
L 1509 3322 
L 1509 2988 
L 978 2988 
L 1913 703 
L 2847 2988 
L 2350 2988 
L 2350 3322 
L 3597 3322 
L 3597 2988 
L 3225 2988 
L 1703 -750 
Q 1547 -1138 1356 -1280 
Q 1166 -1422 819 -1422 
Q 672 -1422 517 -1397 
Q 363 -1372 206 -1325 
L 206 -691 
L 500 -691 
Q 519 -903 608 -995 
Q 697 -1088 884 -1088 
Q 1056 -1088 1161 -992 
Q 1266 -897 1381 -609 
z
" transform="scale(0.015625)"/>
       <path id="DejaVuSerif-28" d="M 2041 -997 
Q 1281 -656 893 83 
Q 506 822 506 1931 
Q 506 3044 893 3783 
Q 1281 4522 2041 4863 
L 2041 4556 
Q 1559 4225 1350 3623 
Q 1141 3022 1141 1931 
Q 1141 844 1350 242 
Q 1559 -359 2041 -691 
L 2041 -997 
z
" transform="scale(0.015625)"/>
       <path id="DejaVuSerif-25" d="M 1434 4459 
Q 1159 4459 1004 4200 
Q 850 3941 850 3475 
Q 850 3016 1008 2753 
Q 1166 2491 1434 2491 
Q 1700 2491 1854 2752 
Q 2009 3013 2009 3475 
Q 2009 3938 1854 4198 
Q 1700 4459 1434 4459 
z
M 4653 2169 
Q 4381 2169 4226 1906 
Q 4072 1644 4072 1178 
Q 4072 719 4228 458 
Q 4384 197 4653 197 
Q 4922 197 5075 458 
Q 5228 719 5228 1178 
Q 5228 1641 5073 1905 
Q 4919 2169 4653 2169 
z
M 4653 2450 
Q 5147 2450 5437 2106 
Q 5728 1763 5728 1178 
Q 5728 594 5436 251 
Q 5144 -91 4653 -91 
Q 4153 -91 3862 251 
Q 3572 594 3572 1178 
Q 3572 1766 3864 2108 
Q 4156 2450 4653 2450 
z
M 4263 4750 
L 4738 4750 
L 1819 -91 
L 1344 -91 
L 4263 4750 
z
M 1428 4750 
Q 1922 4750 2215 4408 
Q 2509 4066 2509 3481 
Q 2509 2891 2217 2550 
Q 1925 2209 1428 2209 
Q 931 2209 642 2551 
Q 353 2894 353 3481 
Q 353 4063 643 4406 
Q 934 4750 1428 4750 
z
" transform="scale(0.015625)"/>
       <path id="DejaVuSerif-29" d="M 453 -997 
L 453 -691 
Q 934 -359 1145 242 
Q 1356 844 1356 1931 
Q 1356 3022 1145 3623 
Q 934 4225 453 4556 
L 453 4863 
Q 1216 4522 1603 3783 
Q 1991 3044 1991 1931 
Q 1991 822 1603 83 
Q 1216 -656 453 -997 
z
" transform="scale(0.015625)"/>
      </defs>
      <use xlink:href="#DejaVuSerif-41"/>
      <use xlink:href="#DejaVuSerif-63" transform="translate(72.216797 0)"/>
      <use xlink:href="#DejaVuSerif-63" transform="translate(128.222656 0)"/>
      <use xlink:href="#DejaVuSerif-75" transform="translate(184.228516 0)"/>
      <use xlink:href="#DejaVuSerif-72" transform="translate(248.632812 0)"/>
      <use xlink:href="#DejaVuSerif-61" transform="translate(296.435547 0)"/>
      <use xlink:href="#DejaVuSerif-63" transform="translate(356.054688 0)"/>
      <use xlink:href="#DejaVuSerif-79" transform="translate(412.060547 0)"/>
      <use xlink:href="#DejaVuSerif-20" transform="translate(468.554688 0)"/>
      <use xlink:href="#DejaVuSerif-28" transform="translate(500.341797 0)"/>
      <use xlink:href="#DejaVuSerif-25" transform="translate(539.355469 0)"/>
      <use xlink:href="#DejaVuSerif-29" transform="translate(634.375 0)"/>
     </g>
    </g>
   </g>
   <g id="patch_3">
    <path d="M 97.882406 190.246792 
L 237.726656 190.246792 
L 237.726656 151.237228 
L 97.882406 151.237228 
L 97.882406 190.246792 
z
" clip-path="url(#pfdfcde4411)" style="fill: #3498db; opacity: 0.7; stroke: #000000; stroke-linejoin: miter"/>
   </g>
   <g id="line2d_21">
    <path d="M 167.804531 190.246792 
L 167.804531 241.093262 
" clip-path="url(#pfdfcde4411)" style="fill: none; stroke: #000000; stroke-linecap: round"/>
   </g>
   <g id="line2d_22">
    <path d="M 167.804531 151.237228 
L 167.804531 101.777283 
" clip-path="url(#pfdfcde4411)" style="fill: none; stroke: #000000; stroke-linecap: round"/>
   </g>
   <g id="line2d_23">
    <path d="M 132.843469 241.093262 
L 202.765594 241.093262 
" clip-path="url(#pfdfcde4411)" style="fill: none; stroke: #000000; stroke-linecap: round"/>
   </g>
   <g id="line2d_24">
    <path d="M 132.843469 101.777283 
L 202.765594 101.777283 
" clip-path="url(#pfdfcde4411)" style="fill: none; stroke: #000000; stroke-linecap: round"/>
   </g>
   <g id="line2d_25"/>
   <g id="line2d_26">
    <path d="M 51.267656 166.965381 
L 284.341406 166.965381 
" clip-path="url(#pfdfcde4411)" style="fill: none; stroke-dasharray: 7.4,3.2; stroke-dashoffset: 0; stroke: #ff0000; stroke-width: 2"/>
   </g>
   <g id="line2d_27">
    <path d="M 97.882406 176.037071 
L 237.726656 176.037071 
" clip-path="url(#pfdfcde4411)" style="fill: none; stroke: #000000; stroke-width: 2"/>
   </g>
   <g id="patch_4">
    <path d="M 51.267656 351.46 
L 51.267656 77.178 
" style="fill: none; stroke: #cccccc; stroke-linejoin: miter; stroke-linecap: square"/>
   </g>
   <g id="patch_5">
    <path d="M 284.341406 351.46 
L 284.341406 77.178 
" style="fill: none; stroke: #cccccc; stroke-linejoin: miter; stroke-linecap: square"/>
   </g>
   <g id="patch_6">
    <path d="M 51.267656 351.46 
L 284.341406 351.46 
" style="fill: none; stroke: #cccccc; stroke-linejoin: miter; stroke-linecap: square"/>
   </g>
   <g id="patch_7">
    <path d="M 51.267656 77.178 
L 284.341406 77.178 
" style="fill: none; stroke: #cccccc; stroke-linejoin: miter; stroke-linecap: square"/>
   </g>
   <g id="text_12">
    <!-- DEAP -->
    <g style="fill: #262626" transform="translate(150.439141 58.860406) scale(0.11 -0.11)">
     <defs>
      <path id="DejaVuSerif-Bold-44" d="M 2100 378 
L 2534 378 
Q 3266 378 3605 847 
Q 3944 1316 3944 2338 
Q 3944 3353 3606 3820 
Q 3269 4288 2534 4288 
L 2100 4288 
L 2100 378 
z
M 300 0 
L 300 378 
L 897 378 
L 897 4288 
L 300 4288 
L 300 4666 
L 2694 4666 
Q 3950 4666 4615 4066 
Q 5281 3466 5281 2338 
Q 5281 1203 4614 601 
Q 3947 0 2694 0 
L 300 0 
z
" transform="scale(0.015625)"/>
      <path id="DejaVuSerif-Bold-45" d="M 300 0 
L 300 378 
L 897 378 
L 897 4288 
L 300 4288 
L 300 4666 
L 4494 4666 
L 4494 3566 
L 4063 3566 
L 4063 4238 
L 2100 4238 
L 2100 2741 
L 3322 2741 
L 3322 3334 
L 3750 3334 
L 3750 1722 
L 3322 1722 
L 3322 2316 
L 2100 2316 
L 2100 428 
L 4122 428 
L 4122 1100 
L 4550 1100 
L 4550 0 
L 300 0 
z
" transform="scale(0.015625)"/>
      <path id="DejaVuSerif-Bold-41" d="M -50 0 
L -50 378 
L 331 378 
L 2088 4666 
L 2834 4666 
L 4594 378 
L 5038 378 
L 5038 0 
L 2853 0 
L 2853 378 
L 3309 378 
L 2925 1331 
L 1172 1331 
L 781 378 
L 1338 378 
L 1338 0 
L -50 0 
z
M 1325 1709 
L 2772 1709 
L 2053 3494 
L 1325 1709 
z
" transform="scale(0.015625)"/>
      <path id="DejaVuSerif-Bold-50" d="M 300 0 
L 300 378 
L 897 378 
L 897 4288 
L 300 4288 
L 300 4666 
L 2956 4666 
Q 3734 4666 4193 4295 
Q 4653 3925 4653 3303 
Q 4653 2678 4192 2304 
Q 3731 1931 2956 1931 
L 2100 1931 
L 2100 378 
L 2853 378 
L 2853 0 
L 300 0 
z
M 2100 2309 
L 2450 2309 
Q 2856 2309 3098 2579 
Q 3341 2850 3341 3303 
Q 3341 3753 3100 4020 
Q 2859 4288 2450 4288 
L 2100 4288 
L 2100 2309 
z
" transform="scale(0.015625)"/>
     </defs>
     <use xlink:href="#DejaVuSerif-Bold-44"/>
     <use xlink:href="#DejaVuSerif-Bold-45" transform="translate(86.71875 0)"/>
     <use xlink:href="#DejaVuSerif-Bold-41" transform="translate(162.939453 0)"/>
     <use xlink:href="#DejaVuSerif-Bold-50" transform="translate(240.527344 0)"/>
    </g>
    <!-- (n=32 subjects) -->
    <g style="fill: #262626" transform="translate(119.008359 71.178) scale(0.11 -0.11)">
     <defs>
      <path id="DejaVuSerif-Bold-28" d="M 2694 -997 
Q 1641 -606 1122 122 
Q 603 850 603 1931 
Q 603 3013 1115 3731 
Q 1628 4450 2694 4863 
L 2694 4488 
Q 2200 4188 1983 3598 
Q 1766 3009 1766 1931 
Q 1766 856 1983 267 
Q 2200 -322 2694 -622 
L 2694 -997 
z
" transform="scale(0.015625)"/>
      <path id="DejaVuSerif-Bold-6e" d="M 219 0 
L 219 378 
L 691 378 
L 691 2944 
L 219 2944 
L 219 3322 
L 1797 3322 
L 1797 2853 
Q 1997 3150 2253 3281 
Q 2509 3413 2900 3413 
Q 3459 3413 3745 3083 
Q 4031 2753 4031 2113 
L 4031 378 
L 4506 378 
L 4506 0 
L 2522 0 
L 2522 378 
L 2925 378 
L 2925 2144 
Q 2925 2566 2817 2730 
Q 2709 2894 2444 2894 
Q 2109 2894 1953 2648 
Q 1797 2403 1797 1869 
L 1797 378 
L 2203 378 
L 2203 0 
L 219 0 
z
" transform="scale(0.015625)"/>
      <path id="DejaVuSerif-Bold-3d" d="M 678 1650 
L 4684 1650 
L 4684 941 
L 678 941 
L 678 1650 
z
M 678 3072 
L 4684 3072 
L 4684 2363 
L 678 2363 
L 678 3072 
z
" transform="scale(0.015625)"/>
      <path id="DejaVuSerif-Bold-33" d="M 550 4531 
Q 963 4641 1350 4695 
Q 1738 4750 2106 4750 
Q 2950 4750 3401 4448 
Q 3853 4147 3853 3584 
Q 3853 3163 3593 2900 
Q 3334 2638 2834 2547 
Q 3444 2450 3744 2131 
Q 4044 1813 4044 1259 
Q 4044 606 3526 257 
Q 3009 -91 2028 -91 
Q 1659 -91 1267 -28 
Q 875 34 447 159 
L 447 1184 
L 825 1184 
Q 859 741 1103 508 
Q 1347 275 1778 275 
Q 2253 275 2512 539 
Q 2772 803 2772 1288 
Q 2772 1794 2501 2069 
Q 2231 2344 1734 2344 
L 1528 2344 
L 1528 2719 
L 1691 2719 
Q 2150 2719 2381 2931 
Q 2613 3144 2613 3566 
Q 2613 3963 2395 4173 
Q 2178 4384 1772 4384 
Q 1403 4384 1187 4182 
Q 972 3981 928 3597 
L 550 3597 
L 550 4531 
z
" transform="scale(0.015625)"/>
      <path id="DejaVuSerif-Bold-32" d="M 844 3513 
L 469 3513 
L 469 4519 
Q 850 4634 1223 4692 
Q 1597 4750 1978 4750 
Q 2869 4750 3367 4386 
Q 3866 4022 3866 3372 
Q 3866 2909 3591 2542 
Q 3316 2175 2541 1672 
L 1241 819 
L 3450 819 
L 3450 1369 
L 3878 1369 
L 3878 0 
L 428 0 
L 428 763 
L 1119 1241 
Q 2003 1850 2297 2278 
Q 2591 2706 2591 3278 
Q 2591 3819 2367 4101 
Q 2144 4384 1716 4384 
Q 1347 4384 1125 4161 
Q 903 3938 844 3513 
z
" transform="scale(0.015625)"/>
      <path id="DejaVuSerif-Bold-20" transform="scale(0.015625)"/>
      <path id="DejaVuSerif-Bold-73" d="M 300 97 
L 300 1025 
L 653 1025 
Q 697 653 931 458 
Q 1166 263 1569 263 
Q 1906 263 2086 380 
Q 2266 497 2266 716 
Q 2266 916 2152 1025 
Q 2038 1134 1709 1216 
L 1253 1331 
Q 738 1459 506 1698 
Q 275 1938 275 2344 
Q 275 2884 650 3148 
Q 1025 3413 1806 3413 
Q 2100 3413 2433 3364 
Q 2766 3316 3169 3213 
L 3169 2375 
L 2816 2375 
Q 2788 2716 2573 2887 
Q 2359 3059 1959 3059 
Q 1622 3059 1448 2951 
Q 1275 2844 1275 2638 
Q 1275 2469 1375 2372 
Q 1475 2275 1734 2209 
L 2188 2094 
Q 2841 1928 3091 1684 
Q 3341 1441 3341 1006 
Q 3341 444 2939 176 
Q 2538 -91 1691 -91 
Q 1381 -91 1034 -44 
Q 688 3 300 97 
z
" transform="scale(0.015625)"/>
      <path id="DejaVuSerif-Bold-75" d="M 3963 3322 
L 3963 378 
L 4434 378 
L 4434 0 
L 2853 0 
L 2853 469 
Q 2656 172 2400 40 
Q 2144 -91 1753 -91 
Q 1194 -91 908 239 
Q 622 569 622 1209 
L 622 2944 
L 147 2944 
L 147 3322 
L 1728 3322 
L 1728 1381 
Q 1728 763 1831 595 
Q 1934 428 2209 428 
Q 2544 428 2698 675 
Q 2853 922 2853 1459 
L 2853 2944 
L 2450 2944 
L 2450 3322 
L 3963 3322 
z
" transform="scale(0.015625)"/>
      <path id="DejaVuSerif-Bold-62" d="M 622 378 
L 622 4488 
L 147 4488 
L 147 4863 
L 1728 4863 
L 1728 2900 
Q 1869 3159 2106 3286 
Q 2344 3413 2694 3413 
Q 3403 3413 3811 2945 
Q 4219 2478 4219 1663 
Q 4219 847 3811 378 
Q 3403 -91 2694 -91 
Q 2344 -91 2106 36 
Q 1869 163 1728 422 
L 1728 0 
L 147 0 
L 147 378 
L 622 378 
z
M 1728 1497 
Q 1728 916 1876 656 
Q 2025 397 2356 397 
Q 2697 397 2836 672 
Q 2975 947 2975 1663 
Q 2975 2378 2836 2651 
Q 2697 2925 2356 2925 
Q 2025 2925 1876 2665 
Q 1728 2406 1728 1825 
L 1728 1497 
z
" transform="scale(0.015625)"/>
      <path id="DejaVuSerif-Bold-6a" d="M 556 4263 
Q 556 4516 729 4689 
Q 903 4863 1159 4863 
Q 1403 4863 1578 4688 
Q 1753 4513 1753 4263 
Q 1753 4016 1579 3842 
Q 1406 3669 1159 3669 
Q 906 3669 731 3841 
Q 556 4013 556 4263 
z
M 684 2944 
L 213 2944 
L 213 3322 
L 1791 3322 
L 1791 -391 
Q 1791 -900 1430 -1161 
Q 1069 -1422 366 -1422 
Q 178 -1422 -34 -1390 
Q -247 -1359 -475 -1300 
L -475 -594 
L -122 -597 
Q -116 -847 -23 -958 
Q 69 -1069 275 -1069 
Q 503 -1069 593 -922 
Q 684 -775 684 -391 
L 684 2944 
z
" transform="scale(0.015625)"/>
      <path id="DejaVuSerif-Bold-65" d="M 2566 1875 
Q 2566 2531 2444 2795 
Q 2322 3059 2028 3059 
Q 1744 3059 1620 2800 
Q 1497 2541 1497 1931 
L 1497 1875 
L 2566 1875 
z
M 3781 1503 
L 1497 1503 
L 1497 1478 
Q 1497 834 1690 548 
Q 1884 263 2316 263 
Q 2675 263 2897 453 
Q 3119 644 3181 1006 
L 3700 1006 
Q 3566 441 3166 175 
Q 2766 -91 2047 -91 
Q 1184 -91 723 364 
Q 263 819 263 1663 
Q 263 2488 734 2950 
Q 1206 3413 2047 3413 
Q 2872 3413 3312 2927 
Q 3753 2441 3781 1503 
z
" transform="scale(0.015625)"/>
      <path id="DejaVuSerif-Bold-63" d="M 3609 1038 
Q 3491 469 3123 189 
Q 2756 -91 2125 -91 
Q 1238 -91 750 368 
Q 263 828 263 1663 
Q 263 2488 744 2950 
Q 1225 3413 2081 3413 
Q 2428 3413 2781 3347 
Q 3134 3281 3500 3150 
L 3500 2228 
L 3150 2228 
Q 3100 2650 2903 2854 
Q 2706 3059 2350 3059 
Q 1888 3059 1692 2746 
Q 1497 2434 1497 1663 
Q 1497 909 1687 586 
Q 1878 263 2309 263 
Q 2644 263 2845 463 
Q 3047 663 3091 1038 
L 3609 1038 
z
" transform="scale(0.015625)"/>
      <path id="DejaVuSerif-Bold-74" d="M 634 2944 
L 153 2944 
L 153 3322 
L 634 3322 
L 634 4353 
L 1741 4353 
L 1741 3322 
L 2663 3322 
L 2663 2944 
L 1741 2944 
L 1741 909 
Q 1741 475 1809 369 
Q 1878 263 2059 263 
Q 2259 263 2356 397 
Q 2453 531 2459 813 
L 2925 813 
Q 2897 313 2651 111 
Q 2406 -91 1806 -91 
Q 1122 -91 878 123 
Q 634 338 634 909 
L 634 2944 
z
" transform="scale(0.015625)"/>
      <path id="DejaVuSerif-Bold-29" d="M 325 -997 
L 325 -622 
Q 819 -322 1036 267 
Q 1253 856 1253 1931 
Q 1253 3009 1036 3598 
Q 819 4188 325 4488 
L 325 4863 
Q 1391 4450 1905 3731 
Q 2419 3013 2419 1931 
Q 2419 850 1898 122 
Q 1378 -606 325 -997 
z
" transform="scale(0.015625)"/>
     </defs>
     <use xlink:href="#DejaVuSerif-Bold-28"/>
     <use xlink:href="#DejaVuSerif-Bold-6e" transform="translate(47.314453 0)"/>
     <use xlink:href="#DejaVuSerif-Bold-3d" transform="translate(120.019531 0)"/>
     <use xlink:href="#DejaVuSerif-Bold-33" transform="translate(203.808594 0)"/>
     <use xlink:href="#DejaVuSerif-Bold-32" transform="translate(273.388672 0)"/>
     <use xlink:href="#DejaVuSerif-Bold-20" transform="translate(342.96875 0)"/>
     <use xlink:href="#DejaVuSerif-Bold-73" transform="translate(377.783203 0)"/>
     <use xlink:href="#DejaVuSerif-Bold-75" transform="translate(434.082031 0)"/>
     <use xlink:href="#DejaVuSerif-Bold-62" transform="translate(506.787109 0)"/>
     <use xlink:href="#DejaVuSerif-Bold-6a" transform="translate(576.708984 0)"/>
     <use xlink:href="#DejaVuSerif-Bold-65" transform="translate(612.890625 0)"/>
     <use xlink:href="#DejaVuSerif-Bold-63" transform="translate(676.513672 0)"/>
     <use xlink:href="#DejaVuSerif-Bold-74" transform="translate(737.402344 0)"/>
     <use xlink:href="#DejaVuSerif-Bold-73" transform="translate(783.59375 0)"/>
     <use xlink:href="#DejaVuSerif-Bold-29" transform="translate(839.892578 0)"/>
    </g>
   </g>
   <g id="PathCollection_1">
    <defs>
     <path id="m0227f47e2f" d="M 0 2.738613 
C 0.726289 2.738613 1.422928 2.450055 1.936492 1.936492 
C 2.450055 1.422928 2.738613 0.726289 2.738613 0 
C 2.738613 -0.726289 2.450055 -1.422928 1.936492 -1.936492 
C 1.422928 -2.450055 0.726289 -2.738613 0 -2.738613 
C -0.726289 -2.738613 -1.422928 -2.450055 -1.936492 -1.936492 
C -2.450055 -1.422928 -2.738613 -0.726289 -2.738613 0 
C -2.738613 0.726289 -2.450055 1.422928 -1.936492 1.936492 
C -1.422928 2.450055 -0.726289 2.738613 0 2.738613 
z
" style="stroke: #00008b; stroke-opacity: 0.6"/>
    </defs>
    <g clip-path="url(#pfdfcde4411)">
     <use xlink:href="#m0227f47e2f" x="167.678697" y="147.720753" style="fill: #00008b; fill-opacity: 0.6; stroke: #00008b; stroke-opacity: 0.6"/>
     <use xlink:href="#m0227f47e2f" x="157.943545" y="172.322275" style="fill: #00008b; fill-opacity: 0.6; stroke: #00008b; stroke-opacity: 0.6"/>
     <use xlink:href="#m0227f47e2f" x="175.473076" y="141.871421" style="fill: #00008b; fill-opacity: 0.6; stroke: #00008b; stroke-opacity: 0.6"/>
     <use xlink:href="#m0227f47e2f" x="156.422667" y="107.95731" style="fill: #00008b; fill-opacity: 0.6; stroke: #00008b; stroke-opacity: 0.6"/>
     <use xlink:href="#m0227f47e2f" x="169.751756" y="176.037389" style="fill: #00008b; fill-opacity: 0.6; stroke: #00008b; stroke-opacity: 0.6"/>
     <use xlink:href="#m0227f47e2f" x="149.534625" y="176.036753" style="fill: #00008b; fill-opacity: 0.6; stroke: #00008b; stroke-opacity: 0.6"/>
     <use xlink:href="#m0227f47e2f" x="155.421919" y="105.780565" style="fill: #00008b; fill-opacity: 0.6; stroke: #00008b; stroke-opacity: 0.6"/>
     <use xlink:href="#m0227f47e2f" x="169.639859" y="137.23199" style="fill: #00008b; fill-opacity: 0.6; stroke: #00008b; stroke-opacity: 0.6"/>
     <use xlink:href="#m0227f47e2f" x="174.689218" y="185.154636" style="fill: #00008b; fill-opacity: 0.6; stroke: #00008b; stroke-opacity: 0.6"/>
     <use xlink:href="#m0227f47e2f" x="169.402189" y="145.944505" style="fill: #00008b; fill-opacity: 0.6; stroke: #00008b; stroke-opacity: 0.6"/>
     <use xlink:href="#m0227f47e2f" x="166.726348" y="184.919976" style="fill: #00008b; fill-opacity: 0.6; stroke: #00008b; stroke-opacity: 0.6"/>
     <use xlink:href="#m0227f47e2f" x="164.997357" y="185.009554" style="fill: #00008b; fill-opacity: 0.6; stroke: #00008b; stroke-opacity: 0.6"/>
     <use xlink:href="#m0227f47e2f" x="154.020345" y="157.590826" style="fill: #00008b; fill-opacity: 0.6; stroke: #00008b; stroke-opacity: 0.6"/>
     <use xlink:href="#m0227f47e2f" x="161.09346" y="241.093262" style="fill: #00008b; fill-opacity: 0.6; stroke: #00008b; stroke-opacity: 0.6"/>
     <use xlink:href="#m0227f47e2f" x="163.510019" y="233.795373" style="fill: #00008b; fill-opacity: 0.6; stroke: #00008b; stroke-opacity: 0.6"/>
     <use xlink:href="#m0227f47e2f" x="177.660029" y="188.750576" style="fill: #00008b; fill-opacity: 0.6; stroke: #00008b; stroke-opacity: 0.6"/>
     <use xlink:href="#m0227f47e2f" x="171.008067" y="206.206378" style="fill: #00008b; fill-opacity: 0.6; stroke: #00008b; stroke-opacity: 0.6"/>
     <use xlink:href="#m0227f47e2f" x="151.367796" y="154.790223" style="fill: #00008b; fill-opacity: 0.6; stroke: #00008b; stroke-opacity: 0.6"/>
     <use xlink:href="#m0227f47e2f" x="170.82595" y="202.145748" style="fill: #00008b; fill-opacity: 0.6; stroke: #00008b; stroke-opacity: 0.6"/>
     <use xlink:href="#m0227f47e2f" x="164.214428" y="221.683492" style="fill: #00008b; fill-opacity: 0.6; stroke: #00008b; stroke-opacity: 0.6"/>
     <use xlink:href="#m0227f47e2f" x="161.493621" y="110.180476" style="fill: #00008b; fill-opacity: 0.6; stroke: #00008b; stroke-opacity: 0.6"/>
     <use xlink:href="#m0227f47e2f" x="173.507159" y="175.712829" style="fill: #00008b; fill-opacity: 0.6; stroke: #00008b; stroke-opacity: 0.6"/>
     <use xlink:href="#m0227f47e2f" x="177.416488" y="164.349077" style="fill: #00008b; fill-opacity: 0.6; stroke: #00008b; stroke-opacity: 0.6"/>
     <use xlink:href="#m0227f47e2f" x="176.486809" y="222.16564" style="fill: #00008b; fill-opacity: 0.6; stroke: #00008b; stroke-opacity: 0.6"/>
     <use xlink:href="#m0227f47e2f" x="159.980548" y="188.056875" style="fill: #00008b; fill-opacity: 0.6; stroke: #00008b; stroke-opacity: 0.6"/>
     <use xlink:href="#m0227f47e2f" x="164.92176" y="162.667811" style="fill: #00008b; fill-opacity: 0.6; stroke: #00008b; stroke-opacity: 0.6"/>
     <use xlink:href="#m0227f47e2f" x="170.892884" y="211.559327" style="fill: #00008b; fill-opacity: 0.6; stroke: #00008b; stroke-opacity: 0.6"/>
     <use xlink:href="#m0227f47e2f" x="176.89949" y="152.409386" style="fill: #00008b; fill-opacity: 0.6; stroke: #00008b; stroke-opacity: 0.6"/>
     <use xlink:href="#m0227f47e2f" x="163.337214" y="190.236448" style="fill: #00008b; fill-opacity: 0.6; stroke: #00008b; stroke-opacity: 0.6"/>
     <use xlink:href="#m0227f47e2f" x="166.073642" y="178.266726" style="fill: #00008b; fill-opacity: 0.6; stroke: #00008b; stroke-opacity: 0.6"/>
     <use xlink:href="#m0227f47e2f" x="157.490226" y="190.277824" style="fill: #00008b; fill-opacity: 0.6; stroke: #00008b; stroke-opacity: 0.6"/>
     <use xlink:href="#m0227f47e2f" x="156.652357" y="101.777283" style="fill: #00008b; fill-opacity: 0.6; stroke: #00008b; stroke-opacity: 0.6"/>
    </g>
   </g>
   <g id="legend_1">
    <g id="line2d_28">
     <path d="M 201.241406 339.79625 
L 209.241406 339.79625 
L 217.241406 339.79625 
" style="fill: none; stroke-dasharray: 7.4,3.2; stroke-dashoffset: 0; stroke: #ff0000; stroke-width: 2"/>
    </g>
    <g id="text_13">
     <!-- Mean: 94.7% -->
     <g style="fill: #262626" transform="translate(223.641406 342.59625) scale(0.08 -0.08)">
      <defs>
       <path id="DejaVuSerif-4d" d="M 353 0 
L 353 331 
L 947 331 
L 947 4331 
L 319 4331 
L 319 4666 
L 1678 4666 
L 3316 1344 
L 4953 4666 
L 6228 4666 
L 6228 4331 
L 5606 4331 
L 5606 331 
L 6203 331 
L 6203 0 
L 4378 0 
L 4378 331 
L 4972 331 
L 4972 3938 
L 3372 684 
L 2931 684 
L 1331 3938 
L 1331 331 
L 1925 331 
L 1925 0 
L 353 0 
z
" transform="scale(0.015625)"/>
       <path id="DejaVuSerif-65" d="M 3469 1600 
L 991 1600 
L 991 1575 
Q 991 903 1244 561 
Q 1497 219 1991 219 
Q 2369 219 2611 417 
Q 2853 616 2950 1006 
L 3413 1006 
Q 3275 459 2904 184 
Q 2534 -91 1931 -91 
Q 1203 -91 761 389 
Q 319 869 319 1663 
Q 319 2450 753 2931 
Q 1188 3413 1894 3413 
Q 2647 3413 3050 2948 
Q 3453 2484 3469 1600 
z
M 2791 1931 
Q 2772 2513 2545 2808 
Q 2319 3103 1894 3103 
Q 1497 3103 1269 2806 
Q 1041 2509 991 1931 
L 2791 1931 
z
" transform="scale(0.015625)"/>
       <path id="DejaVuSerif-6e" d="M 263 0 
L 263 331 
L 781 331 
L 781 2988 
L 231 2988 
L 231 3322 
L 1356 3322 
L 1356 2731 
Q 1516 3069 1770 3241 
Q 2025 3413 2363 3413 
Q 2913 3413 3172 3097 
Q 3431 2781 3431 2113 
L 3431 331 
L 3944 331 
L 3944 0 
L 2356 0 
L 2356 331 
L 2853 331 
L 2853 1931 
Q 2853 2541 2703 2767 
Q 2553 2994 2175 2994 
Q 1775 2994 1565 2701 
Q 1356 2409 1356 1850 
L 1356 331 
L 1856 331 
L 1856 0 
L 263 0 
z
" transform="scale(0.015625)"/>
       <path id="DejaVuSerif-3a" d="M 666 325 
Q 666 500 786 622 
Q 906 744 1081 744 
Q 1256 744 1376 622 
Q 1497 500 1497 325 
Q 1497 150 1378 29 
Q 1259 -91 1081 -91 
Q 903 -91 784 29 
Q 666 150 666 325 
z
M 666 2363 
Q 666 2538 786 2658 
Q 906 2778 1081 2778 
Q 1259 2778 1378 2659 
Q 1497 2541 1497 2363 
Q 1497 2184 1378 2065 
Q 1259 1947 1081 1947 
Q 906 1947 786 2067 
Q 666 2188 666 2363 
z
" transform="scale(0.015625)"/>
       <path id="DejaVuSerif-34" d="M 2234 1581 
L 2234 4063 
L 641 1581 
L 2234 1581 
z
M 3609 0 
L 1484 0 
L 1484 331 
L 2234 331 
L 2234 1247 
L 197 1247 
L 197 1588 
L 2241 4750 
L 2859 4750 
L 2859 1581 
L 3750 1581 
L 3750 1247 
L 2859 1247 
L 2859 331 
L 3609 331 
L 3609 0 
z
" transform="scale(0.015625)"/>
      </defs>
      <use xlink:href="#DejaVuSerif-4d"/>
      <use xlink:href="#DejaVuSerif-65" transform="translate(102.392578 0)"/>
      <use xlink:href="#DejaVuSerif-61" transform="translate(161.572266 0)"/>
      <use xlink:href="#DejaVuSerif-6e" transform="translate(221.191406 0)"/>
      <use xlink:href="#DejaVuSerif-3a" transform="translate(285.595703 0)"/>
      <use xlink:href="#DejaVuSerif-20" transform="translate(319.287109 0)"/>
      <use xlink:href="#DejaVuSerif-39" transform="translate(351.074219 0)"/>
      <use xlink:href="#DejaVuSerif-34" transform="translate(414.697266 0)"/>
      <use xlink:href="#DejaVuSerif-2e" transform="translate(478.320312 0)"/>
      <use xlink:href="#DejaVuSerif-37" transform="translate(510.107422 0)"/>
      <use xlink:href="#DejaVuSerif-25" transform="translate(573.730469 0)"/>
     </g>
    </g>
   </g>
  </g>
  <g id="axes_2">
   <g id="patch_8">
    <path d="M 333.747656 351.46 
L 566.821406 351.46 
L 566.821406 77.178 
L 333.747656 77.178 
z
" style="fill: #ffffff"/>
   </g>
   <g id="matplotlib.axis_3">
    <g id="xtick_2">
     <g id="line2d_29">
      <path d="M 450.284531 351.46 
L 450.284531 77.178 
" clip-path="url(#p878ae8f081)" style="fill: none; stroke: #cccccc; stroke-width: 0.8; stroke-linecap: round"/>
     </g>
     <g id="line2d_30"/>
     <g id="text_14">
      <!-- LOSO CV -->
      <g style="fill: #262626" transform="translate(428.711953 361.798594) scale(0.09 -0.09)">
       <use xlink:href="#DejaVuSerif-4c"/>
       <use xlink:href="#DejaVuSerif-4f" transform="translate(66.40625 0)"/>
       <use xlink:href="#DejaVuSerif-53" transform="translate(148.388672 0)"/>
       <use xlink:href="#DejaVuSerif-4f" transform="translate(216.894531 0)"/>
       <use xlink:href="#DejaVuSerif-20" transform="translate(298.876953 0)"/>
       <use xlink:href="#DejaVuSerif-43" transform="translate(330.664062 0)"/>
       <use xlink:href="#DejaVuSerif-56" transform="translate(407.177734 0)"/>
      </g>
     </g>
    </g>
   </g>
   <g id="matplotlib.axis_4">
    <g id="ytick_10">
     <g id="line2d_31">
      <path d="M 333.747656 351.46 
L 566.821406 351.46 
" clip-path="url(#p878ae8f081)" style="fill: none; stroke: #cccccc; stroke-opacity: 0.3; stroke-width: 0.8; stroke-linecap: round"/>
     </g>
     <g id="line2d_32"/>
     <g id="text_15">
      <!-- 70.0 -->
      <g style="fill: #262626" transform="translate(310.208594 354.879297) scale(0.09 -0.09)">
       <use xlink:href="#DejaVuSerif-37"/>
       <use xlink:href="#DejaVuSerif-30" transform="translate(63.623047 0)"/>
       <use xlink:href="#DejaVuSerif-2e" transform="translate(127.246094 0)"/>
       <use xlink:href="#DejaVuSerif-30" transform="translate(159.033203 0)"/>
      </g>
     </g>
    </g>
    <g id="ytick_11">
     <g id="line2d_33">
      <path d="M 333.747656 317.002462 
L 566.821406 317.002462 
" clip-path="url(#p878ae8f081)" style="fill: none; stroke: #cccccc; stroke-opacity: 0.3; stroke-width: 0.8; stroke-linecap: round"/>
     </g>
     <g id="line2d_34"/>
     <g id="text_16">
      <!-- 72.5 -->
      <g style="fill: #262626" transform="translate(310.208594 320.421759) scale(0.09 -0.09)">
       <use xlink:href="#DejaVuSerif-37"/>
       <use xlink:href="#DejaVuSerif-32" transform="translate(63.623047 0)"/>
       <use xlink:href="#DejaVuSerif-2e" transform="translate(127.246094 0)"/>
       <use xlink:href="#DejaVuSerif-35" transform="translate(159.033203 0)"/>
      </g>
     </g>
    </g>
    <g id="ytick_12">
     <g id="line2d_35">
      <path d="M 333.747656 282.544925 
L 566.821406 282.544925 
" clip-path="url(#p878ae8f081)" style="fill: none; stroke: #cccccc; stroke-opacity: 0.3; stroke-width: 0.8; stroke-linecap: round"/>
     </g>
     <g id="line2d_36"/>
     <g id="text_17">
      <!-- 75.0 -->
      <g style="fill: #262626" transform="translate(310.208594 285.964221) scale(0.09 -0.09)">
       <use xlink:href="#DejaVuSerif-37"/>
       <use xlink:href="#DejaVuSerif-35" transform="translate(63.623047 0)"/>
       <use xlink:href="#DejaVuSerif-2e" transform="translate(127.246094 0)"/>
       <use xlink:href="#DejaVuSerif-30" transform="translate(159.033203 0)"/>
      </g>
     </g>
    </g>
    <g id="ytick_13">
     <g id="line2d_37">
      <path d="M 333.747656 248.087387 
L 566.821406 248.087387 
" clip-path="url(#p878ae8f081)" style="fill: none; stroke: #cccccc; stroke-opacity: 0.3; stroke-width: 0.8; stroke-linecap: round"/>
     </g>
     <g id="line2d_38"/>
     <g id="text_18">
      <!-- 77.5 -->
      <g style="fill: #262626" transform="translate(310.208594 251.506684) scale(0.09 -0.09)">
       <use xlink:href="#DejaVuSerif-37"/>
       <use xlink:href="#DejaVuSerif-37" transform="translate(63.623047 0)"/>
       <use xlink:href="#DejaVuSerif-2e" transform="translate(127.246094 0)"/>
       <use xlink:href="#DejaVuSerif-35" transform="translate(159.033203 0)"/>
      </g>
     </g>
    </g>
    <g id="ytick_14">
     <g id="line2d_39">
      <path d="M 333.747656 213.629849 
L 566.821406 213.629849 
" clip-path="url(#p878ae8f081)" style="fill: none; stroke: #cccccc; stroke-opacity: 0.3; stroke-width: 0.8; stroke-linecap: round"/>
     </g>
     <g id="line2d_40"/>
     <g id="text_19">
      <!-- 80.0 -->
      <g style="fill: #262626" transform="translate(310.208594 217.049146) scale(0.09 -0.09)">
       <use xlink:href="#DejaVuSerif-38"/>
       <use xlink:href="#DejaVuSerif-30" transform="translate(63.623047 0)"/>
       <use xlink:href="#DejaVuSerif-2e" transform="translate(127.246094 0)"/>
       <use xlink:href="#DejaVuSerif-30" transform="translate(159.033203 0)"/>
      </g>
     </g>
    </g>
    <g id="ytick_15">
     <g id="line2d_41">
      <path d="M 333.747656 179.172312 
L 566.821406 179.172312 
" clip-path="url(#p878ae8f081)" style="fill: none; stroke: #cccccc; stroke-opacity: 0.3; stroke-width: 0.8; stroke-linecap: round"/>
     </g>
     <g id="line2d_42"/>
     <g id="text_20">
      <!-- 82.5 -->
      <g style="fill: #262626" transform="translate(310.208594 182.591608) scale(0.09 -0.09)">
       <use xlink:href="#DejaVuSerif-38"/>
       <use xlink:href="#DejaVuSerif-32" transform="translate(63.623047 0)"/>
       <use xlink:href="#DejaVuSerif-2e" transform="translate(127.246094 0)"/>
       <use xlink:href="#DejaVuSerif-35" transform="translate(159.033203 0)"/>
      </g>
     </g>
    </g>
    <g id="ytick_16">
     <g id="line2d_43">
      <path d="M 333.747656 144.714774 
L 566.821406 144.714774 
" clip-path="url(#p878ae8f081)" style="fill: none; stroke: #cccccc; stroke-opacity: 0.3; stroke-width: 0.8; stroke-linecap: round"/>
     </g>
     <g id="line2d_44"/>
     <g id="text_21">
      <!-- 85.0 -->
      <g style="fill: #262626" transform="translate(310.208594 148.134071) scale(0.09 -0.09)">
       <use xlink:href="#DejaVuSerif-38"/>
       <use xlink:href="#DejaVuSerif-35" transform="translate(63.623047 0)"/>
       <use xlink:href="#DejaVuSerif-2e" transform="translate(127.246094 0)"/>
       <use xlink:href="#DejaVuSerif-30" transform="translate(159.033203 0)"/>
      </g>
     </g>
    </g>
    <g id="ytick_17">
     <g id="line2d_45">
      <path d="M 333.747656 110.257236 
L 566.821406 110.257236 
" clip-path="url(#p878ae8f081)" style="fill: none; stroke: #cccccc; stroke-opacity: 0.3; stroke-width: 0.8; stroke-linecap: round"/>
     </g>
     <g id="line2d_46"/>
     <g id="text_22">
      <!-- 87.5 -->
      <g style="fill: #262626" transform="translate(310.208594 113.676533) scale(0.09 -0.09)">
       <use xlink:href="#DejaVuSerif-38"/>
       <use xlink:href="#DejaVuSerif-37" transform="translate(63.623047 0)"/>
       <use xlink:href="#DejaVuSerif-2e" transform="translate(127.246094 0)"/>
       <use xlink:href="#DejaVuSerif-35" transform="translate(159.033203 0)"/>
      </g>
     </g>
    </g>
    <g id="text_23">
     <!-- Accuracy (%) -->
     <g style="fill: #262626" transform="translate(303.764531 251.354625) rotate(-90) scale(0.11 -0.11)">
      <use xlink:href="#DejaVuSerif-41"/>
      <use xlink:href="#DejaVuSerif-63" transform="translate(72.216797 0)"/>
      <use xlink:href="#DejaVuSerif-63" transform="translate(128.222656 0)"/>
      <use xlink:href="#DejaVuSerif-75" transform="translate(184.228516 0)"/>
      <use xlink:href="#DejaVuSerif-72" transform="translate(248.632812 0)"/>
      <use xlink:href="#DejaVuSerif-61" transform="translate(296.435547 0)"/>
      <use xlink:href="#DejaVuSerif-63" transform="translate(356.054688 0)"/>
      <use xlink:href="#DejaVuSerif-79" transform="translate(412.060547 0)"/>
      <use xlink:href="#DejaVuSerif-20" transform="translate(468.554688 0)"/>
      <use xlink:href="#DejaVuSerif-28" transform="translate(500.341797 0)"/>
      <use xlink:href="#DejaVuSerif-25" transform="translate(539.355469 0)"/>
      <use xlink:href="#DejaVuSerif-29" transform="translate(634.375 0)"/>
     </g>
    </g>
   </g>
   <g id="patch_9">
    <path d="M 380.362406 206.592519 
L 520.206656 206.592519 
L 520.206656 153.734862 
L 380.362406 153.734862 
L 380.362406 206.592519 
z
" clip-path="url(#p878ae8f081)" style="fill: #2ecc71; opacity: 0.7; stroke: #000000; stroke-linejoin: miter"/>
   </g>
   <g id="line2d_47">
    <path d="M 450.284531 206.592519 
L 450.284531 270.140211 
" clip-path="url(#p878ae8f081)" style="fill: none; stroke: #000000; stroke-linecap: round"/>
   </g>
   <g id="line2d_48">
    <path d="M 450.284531 153.734862 
L 450.284531 104.74403 
" clip-path="url(#p878ae8f081)" style="fill: none; stroke: #000000; stroke-linecap: round"/>
   </g>
   <g id="line2d_49">
    <path d="M 415.323469 270.140211 
L 485.245594 270.140211 
" clip-path="url(#p878ae8f081)" style="fill: none; stroke: #000000; stroke-linecap: round"/>
   </g>
   <g id="line2d_50">
    <path d="M 415.323469 104.74403 
L 485.245594 104.74403 
" clip-path="url(#p878ae8f081)" style="fill: none; stroke: #000000; stroke-linecap: round"/>
   </g>
   <g id="line2d_51"/>
   <g id="line2d_52">
    <path d="M 333.747656 187.442121 
L 566.821406 187.442121 
" clip-path="url(#p878ae8f081)" style="fill: none; stroke-dasharray: 7.4,3.2; stroke-dashoffset: 0; stroke: #ff0000; stroke-width: 2"/>
   </g>
   <g id="line2d_53">
    <path d="M 380.362406 189.384286 
L 520.206656 189.384286 
" clip-path="url(#p878ae8f081)" style="fill: none; stroke: #000000; stroke-width: 2"/>
   </g>
   <g id="patch_10">
    <path d="M 333.747656 351.46 
L 333.747656 77.178 
" style="fill: none; stroke: #cccccc; stroke-linejoin: miter; stroke-linecap: square"/>
   </g>
   <g id="patch_11">
    <path d="M 566.821406 351.46 
L 566.821406 77.178 
" style="fill: none; stroke: #cccccc; stroke-linejoin: miter; stroke-linecap: square"/>
   </g>
   <g id="patch_12">
    <path d="M 333.747656 351.46 
L 566.821406 351.46 
" style="fill: none; stroke: #cccccc; stroke-linejoin: miter; stroke-linecap: square"/>
   </g>
   <g id="patch_13">
    <path d="M 333.747656 77.178 
L 566.821406 77.178 
" style="fill: none; stroke: #cccccc; stroke-linejoin: miter; stroke-linecap: square"/>
   </g>
   <g id="text_24">
    <!-- SAM-40 -->
    <g style="fill: #262626" transform="translate(426.020938 58.860406) scale(0.11 -0.11)">
     <defs>
      <path id="DejaVuSerif-Bold-53" d="M 494 225 
L 494 1331 
L 891 1331 
Q 981 806 1318 547 
Q 1656 288 2253 288 
Q 2738 288 2991 472 
Q 3244 656 3244 1013 
Q 3244 1294 3072 1450 
Q 2900 1606 2363 1741 
L 1663 1913 
Q 978 2088 700 2398 
Q 422 2709 422 3284 
Q 422 3978 883 4364 
Q 1344 4750 2175 4750 
Q 2584 4750 3026 4681 
Q 3469 4613 3944 4475 
L 3944 3444 
L 3547 3444 
Q 3456 3925 3150 4148 
Q 2844 4372 2278 4372 
Q 1816 4372 1580 4211 
Q 1344 4050 1344 3731 
Q 1344 3441 1506 3289 
Q 1669 3138 2303 2975 
L 3003 2803 
Q 3653 2641 3945 2297 
Q 4238 1953 4238 1350 
Q 4238 644 3750 276 
Q 3263 -91 2316 -91 
Q 1859 -91 1409 -12 
Q 959 66 494 225 
z
" transform="scale(0.015625)"/>
      <path id="DejaVuSerif-Bold-4d" d="M 269 0 
L 269 378 
L 863 378 
L 863 4288 
L 269 4288 
L 269 4666 
L 2194 4666 
L 3525 1672 
L 4863 4666 
L 6784 4666 
L 6784 4288 
L 6188 4288 
L 6188 378 
L 6784 378 
L 6784 0 
L 4384 0 
L 4384 378 
L 4978 378 
L 4978 3938 
L 3531 684 
L 2741 684 
L 1300 3938 
L 1300 378 
L 1894 378 
L 1894 0 
L 269 0 
z
" transform="scale(0.015625)"/>
      <path id="DejaVuSerif-Bold-2d" d="M 347 2138 
L 2309 2138 
L 2309 1294 
L 347 1294 
L 347 2138 
z
" transform="scale(0.015625)"/>
      <path id="DejaVuSerif-Bold-34" d="M 4084 0 
L 1516 0 
L 1516 378 
L 2209 378 
L 2209 1228 
L 263 1228 
L 263 1588 
L 2216 4750 
L 3391 4750 
L 3391 1631 
L 4191 1631 
L 4191 1228 
L 3391 1228 
L 3391 378 
L 4084 378 
L 4084 0 
z
M 2209 1631 
L 2209 3897 
L 819 1631 
L 2209 1631 
z
" transform="scale(0.015625)"/>
      <path id="DejaVuSerif-Bold-30" d="M 2228 275 
Q 2603 275 2742 615 
Q 2881 956 2881 2328 
Q 2881 3691 2742 4037 
Q 2603 4384 2228 4384 
Q 1853 4384 1714 4043 
Q 1575 3703 1575 2328 
Q 1575 956 1714 615 
Q 1853 275 2228 275 
z
M 2228 -91 
Q 1294 -91 797 532 
Q 300 1156 300 2328 
Q 300 3500 797 4125 
Q 1294 4750 2228 4750 
Q 3159 4750 3656 4125 
Q 4153 3500 4153 2328 
Q 4153 1156 3656 532 
Q 3159 -91 2228 -91 
z
" transform="scale(0.015625)"/>
     </defs>
     <use xlink:href="#DejaVuSerif-Bold-53"/>
     <use xlink:href="#DejaVuSerif-Bold-41" transform="translate(72.216797 0)"/>
     <use xlink:href="#DejaVuSerif-Bold-4d" transform="translate(149.804688 0)"/>
     <use xlink:href="#DejaVuSerif-Bold-2d" transform="translate(260.498047 0)"/>
     <use xlink:href="#DejaVuSerif-Bold-34" transform="translate(302.001953 0)"/>
     <use xlink:href="#DejaVuSerif-Bold-30" transform="translate(371.582031 0)"/>
    </g>
    <!-- (n=40 subjects) -->
    <g style="fill: #262626" transform="translate(401.488359 71.178) scale(0.11 -0.11)">
     <use xlink:href="#DejaVuSerif-Bold-28"/>
     <use xlink:href="#DejaVuSerif-Bold-6e" transform="translate(47.314453 0)"/>
     <use xlink:href="#DejaVuSerif-Bold-3d" transform="translate(120.019531 0)"/>
     <use xlink:href="#DejaVuSerif-Bold-34" transform="translate(203.808594 0)"/>
     <use xlink:href="#DejaVuSerif-Bold-30" transform="translate(273.388672 0)"/>
     <use xlink:href="#DejaVuSerif-Bold-20" transform="translate(342.96875 0)"/>
     <use xlink:href="#DejaVuSerif-Bold-73" transform="translate(377.783203 0)"/>
     <use xlink:href="#DejaVuSerif-Bold-75" transform="translate(434.082031 0)"/>
     <use xlink:href="#DejaVuSerif-Bold-62" transform="translate(506.787109 0)"/>
     <use xlink:href="#DejaVuSerif-Bold-6a" transform="translate(576.708984 0)"/>
     <use xlink:href="#DejaVuSerif-Bold-65" transform="translate(612.890625 0)"/>
     <use xlink:href="#DejaVuSerif-Bold-63" transform="translate(676.513672 0)"/>
     <use xlink:href="#DejaVuSerif-Bold-74" transform="translate(737.402344 0)"/>
     <use xlink:href="#DejaVuSerif-Bold-73" transform="translate(783.59375 0)"/>
     <use xlink:href="#DejaVuSerif-Bold-29" transform="translate(839.892578 0)"/>
    </g>
   </g>
   <g id="PathCollection_2">
    <g clip-path="url(#p878ae8f081)">
     <use xlink:href="#m0227f47e2f" x="461.669867" y="176.798879" style="fill: #00008b; fill-opacity: 0.6; stroke: #00008b; stroke-opacity: 0.6"/>
     <use xlink:href="#m0227f47e2f" x="459.747218" y="225.00696" style="fill: #00008b; fill-opacity: 0.6; stroke: #00008b; stroke-opacity: 0.6"/>
     <use xlink:href="#m0227f47e2f" x="458.005146" y="203.092863" style="fill: #00008b; fill-opacity: 0.6; stroke: #00008b; stroke-opacity: 0.6"/>
     <use xlink:href="#m0227f47e2f" x="471.413065" y="209.56037" style="fill: #00008b; fill-opacity: 0.6; stroke: #00008b; stroke-opacity: 0.6"/>
     <use xlink:href="#m0227f47e2f" x="444.737789" y="151.961607" style="fill: #00008b; fill-opacity: 0.6; stroke: #00008b; stroke-opacity: 0.6"/>
     <use xlink:href="#m0227f47e2f" x="444.865384" y="204.519689" style="fill: #00008b; fill-opacity: 0.6; stroke: #00008b; stroke-opacity: 0.6"/>
     <use xlink:href="#m0227f47e2f" x="444.169663" y="166.842498" style="fill: #00008b; fill-opacity: 0.6; stroke: #00008b; stroke-opacity: 0.6"/>
     <use xlink:href="#m0227f47e2f" x="458.909648" y="104.74403" style="fill: #00008b; fill-opacity: 0.6; stroke: #00008b; stroke-opacity: 0.6"/>
     <use xlink:href="#m0227f47e2f" x="438.172515" y="135.224001" style="fill: #00008b; fill-opacity: 0.6; stroke: #00008b; stroke-opacity: 0.6"/>
     <use xlink:href="#m0227f47e2f" x="459.711589" y="205.603236" style="fill: #00008b; fill-opacity: 0.6; stroke: #00008b; stroke-opacity: 0.6"/>
     <use xlink:href="#m0227f47e2f" x="447.595418" y="201.766997" style="fill: #00008b; fill-opacity: 0.6; stroke: #00008b; stroke-opacity: 0.6"/>
     <use xlink:href="#m0227f47e2f" x="440.330296" y="168.615087" style="fill: #00008b; fill-opacity: 0.6; stroke: #00008b; stroke-opacity: 0.6"/>
     <use xlink:href="#m0227f47e2f" x="440.238112" y="256.43973" style="fill: #00008b; fill-opacity: 0.6; stroke: #00008b; stroke-opacity: 0.6"/>
     <use xlink:href="#m0227f47e2f" x="442.856249" y="223.088533" style="fill: #00008b; fill-opacity: 0.6; stroke: #00008b; stroke-opacity: 0.6"/>
     <use xlink:href="#m0227f47e2f" x="436.430231" y="167.060728" style="fill: #00008b; fill-opacity: 0.6; stroke: #00008b; stroke-opacity: 0.6"/>
     <use xlink:href="#m0227f47e2f" x="455.077728" y="192.582361" style="fill: #00008b; fill-opacity: 0.6; stroke: #00008b; stroke-opacity: 0.6"/>
     <use xlink:href="#m0227f47e2f" x="458.225735" y="107.426083" style="fill: #00008b; fill-opacity: 0.6; stroke: #00008b; stroke-opacity: 0.6"/>
     <use xlink:href="#m0227f47e2f" x="459.222196" y="213.014134" style="fill: #00008b; fill-opacity: 0.6; stroke: #00008b; stroke-opacity: 0.6"/>
     <use xlink:href="#m0227f47e2f" x="444.443852" y="230.727913" style="fill: #00008b; fill-opacity: 0.6; stroke: #00008b; stroke-opacity: 0.6"/>
     <use xlink:href="#m0227f47e2f" x="453.155357" y="224.226959" style="fill: #00008b; fill-opacity: 0.6; stroke: #00008b; stroke-opacity: 0.6"/>
     <use xlink:href="#m0227f47e2f" x="450.333064" y="186.861558" style="fill: #00008b; fill-opacity: 0.6; stroke: #00008b; stroke-opacity: 0.6"/>
     <use xlink:href="#m0227f47e2f" x="456.731649" y="194.092275" style="fill: #00008b; fill-opacity: 0.6; stroke: #00008b; stroke-opacity: 0.6"/>
     <use xlink:href="#m0227f47e2f" x="454.431959" y="104.74403" style="fill: #00008b; fill-opacity: 0.6; stroke: #00008b; stroke-opacity: 0.6"/>
     <use xlink:href="#m0227f47e2f" x="451.126203" y="203.945174" style="fill: #00008b; fill-opacity: 0.6; stroke: #00008b; stroke-opacity: 0.6"/>
     <use xlink:href="#m0227f47e2f" x="432.959293" y="185.19089" style="fill: #00008b; fill-opacity: 0.6; stroke: #00008b; stroke-opacity: 0.6"/>
     <use xlink:href="#m0227f47e2f" x="448.731514" y="150.882047" style="fill: #00008b; fill-opacity: 0.6; stroke: #00008b; stroke-opacity: 0.6"/>
     <use xlink:href="#m0227f47e2f" x="451.318227" y="191.907014" style="fill: #00008b; fill-opacity: 0.6; stroke: #00008b; stroke-opacity: 0.6"/>
     <use xlink:href="#m0227f47e2f" x="443.807201" y="164.468302" style="fill: #00008b; fill-opacity: 0.6; stroke: #00008b; stroke-opacity: 0.6"/>
     <use xlink:href="#m0227f47e2f" x="447.775021" y="171.113108" style="fill: #00008b; fill-opacity: 0.6; stroke: #00008b; stroke-opacity: 0.6"/>
     <use xlink:href="#m0227f47e2f" x="438.17192" y="152.824492" style="fill: #00008b; fill-opacity: 0.6; stroke: #00008b; stroke-opacity: 0.6"/>
     <use xlink:href="#m0227f47e2f" x="447.290881" y="245.656539" style="fill: #00008b; fill-opacity: 0.6; stroke: #00008b; stroke-opacity: 0.6"/>
     <use xlink:href="#m0227f47e2f" x="455.00072" y="154.038319" style="fill: #00008b; fill-opacity: 0.6; stroke: #00008b; stroke-opacity: 0.6"/>
     <use xlink:href="#m0227f47e2f" x="469.760729" y="193.160017" style="fill: #00008b; fill-opacity: 0.6; stroke: #00008b; stroke-opacity: 0.6"/>
     <use xlink:href="#m0227f47e2f" x="440.843094" y="179.702465" style="fill: #00008b; fill-opacity: 0.6; stroke: #00008b; stroke-opacity: 0.6"/>
     <use xlink:href="#m0227f47e2f" x="450.061022" y="203.430065" style="fill: #00008b; fill-opacity: 0.6; stroke: #00008b; stroke-opacity: 0.6"/>
     <use xlink:href="#m0227f47e2f" x="441.320803" y="118.84204" style="fill: #00008b; fill-opacity: 0.6; stroke: #00008b; stroke-opacity: 0.6"/>
     <use xlink:href="#m0227f47e2f" x="449.421541" y="270.140211" style="fill: #00008b; fill-opacity: 0.6; stroke: #00008b; stroke-opacity: 0.6"/>
     <use xlink:href="#m0227f47e2f" x="448.198688" y="129.581699" style="fill: #00008b; fill-opacity: 0.6; stroke: #00008b; stroke-opacity: 0.6"/>
     <use xlink:href="#m0227f47e2f" x="458.049543" y="215.518417" style="fill: #00008b; fill-opacity: 0.6; stroke: #00008b; stroke-opacity: 0.6"/>
     <use xlink:href="#m0227f47e2f" x="459.366199" y="124.220045" style="fill: #00008b; fill-opacity: 0.6; stroke: #00008b; stroke-opacity: 0.6"/>
    </g>
   </g>
   <g id="legend_2">
    <g id="line2d_54">
     <path d="M 483.721406 339.79625 
L 491.721406 339.79625 
L 499.721406 339.79625 
" style="fill: none; stroke-dasharray: 7.4,3.2; stroke-dashoffset: 0; stroke: #ff0000; stroke-width: 2"/>
    </g>
    <g id="text_25">
     <!-- Mean: 81.9% -->
     <g style="fill: #262626" transform="translate(506.121406 342.59625) scale(0.08 -0.08)">
      <use xlink:href="#DejaVuSerif-4d"/>
      <use xlink:href="#DejaVuSerif-65" transform="translate(102.392578 0)"/>
      <use xlink:href="#DejaVuSerif-61" transform="translate(161.572266 0)"/>
      <use xlink:href="#DejaVuSerif-6e" transform="translate(221.191406 0)"/>
      <use xlink:href="#DejaVuSerif-3a" transform="translate(285.595703 0)"/>
      <use xlink:href="#DejaVuSerif-20" transform="translate(319.287109 0)"/>
      <use xlink:href="#DejaVuSerif-38" transform="translate(351.074219 0)"/>
      <use xlink:href="#DejaVuSerif-31" transform="translate(414.697266 0)"/>
      <use xlink:href="#DejaVuSerif-2e" transform="translate(478.320312 0)"/>
      <use xlink:href="#DejaVuSerif-39" transform="translate(510.107422 0)"/>
      <use xlink:href="#DejaVuSerif-25" transform="translate(573.730469 0)"/>
     </g>
    </g>
   </g>
  </g>
  <g id="axes_3">
   <g id="patch_14">
    <path d="M 616.227656 351.46 
L 849.301406 351.46 
L 849.301406 77.178 
L 616.227656 77.178 
z
" style="fill: #ffffff"/>
   </g>
   <g id="matplotlib.axis_5">
    <g id="xtick_3">
     <g id="line2d_55">
      <path d="M 732.764531 351.46 
L 732.764531 77.178 
" clip-path="url(#pcc986b4923)" style="fill: none; stroke: #cccccc; stroke-width: 0.8; stroke-linecap: round"/>
     </g>
     <g id="line2d_56"/>
     <g id="text_26">
      <!-- LOSO CV -->
      <g style="fill: #262626" transform="translate(711.191953 361.798594) scale(0.09 -0.09)">
       <use xlink:href="#DejaVuSerif-4c"/>
       <use xlink:href="#DejaVuSerif-4f" transform="translate(66.40625 0)"/>
       <use xlink:href="#DejaVuSerif-53" transform="translate(148.388672 0)"/>
       <use xlink:href="#DejaVuSerif-4f" transform="translate(216.894531 0)"/>
       <use xlink:href="#DejaVuSerif-20" transform="translate(298.876953 0)"/>
       <use xlink:href="#DejaVuSerif-43" transform="translate(330.664062 0)"/>
       <use xlink:href="#DejaVuSerif-56" transform="translate(407.177734 0)"/>
      </g>
     </g>
    </g>
   </g>
   <g id="matplotlib.axis_6">
    <g id="ytick_18">
     <g id="line2d_57">
      <path d="M 616.227656 335.325765 
L 849.301406 335.325765 
" clip-path="url(#pcc986b4923)" style="fill: none; stroke: #cccccc; stroke-opacity: 0.3; stroke-width: 0.8; stroke-linecap: round"/>
     </g>
     <g id="line2d_58"/>
     <g id="text_27">
      <!-- 86 -->
      <g style="fill: #262626" transform="translate(601.275156 338.745062) scale(0.09 -0.09)">
       <defs>
        <path id="DejaVuSerif-36" d="M 2094 219 
Q 2534 219 2771 542 
Q 3009 866 3009 1472 
Q 3009 2078 2771 2401 
Q 2534 2725 2094 2725 
Q 1647 2725 1412 2412 
Q 1178 2100 1178 1509 
Q 1178 888 1415 553 
Q 1653 219 2094 219 
z
M 1075 2569 
Q 1288 2803 1556 2918 
Q 1825 3034 2163 3034 
Q 2859 3034 3264 2615 
Q 3669 2197 3669 1472 
Q 3669 763 3233 336 
Q 2797 -91 2069 -91 
Q 1278 -91 853 498 
Q 428 1088 428 2181 
Q 428 3406 931 4078 
Q 1434 4750 2350 4750 
Q 2597 4750 2869 4703 
Q 3141 4656 3425 4563 
L 3425 3794 
L 3072 3794 
Q 3034 4109 2831 4275 
Q 2628 4441 2284 4441 
Q 1678 4441 1381 3981 
Q 1084 3522 1075 2569 
z
" transform="scale(0.015625)"/>
       </defs>
       <use xlink:href="#DejaVuSerif-38"/>
       <use xlink:href="#DejaVuSerif-36" transform="translate(63.623047 0)"/>
      </g>
     </g>
    </g>
    <g id="ytick_19">
     <g id="line2d_59">
      <path d="M 616.227656 303.057294 
L 849.301406 303.057294 
" clip-path="url(#pcc986b4923)" style="fill: none; stroke: #cccccc; stroke-opacity: 0.3; stroke-width: 0.8; stroke-linecap: round"/>
     </g>
     <g id="line2d_60"/>
     <g id="text_28">
      <!-- 88 -->
      <g style="fill: #262626" transform="translate(601.275156 306.476591) scale(0.09 -0.09)">
       <use xlink:href="#DejaVuSerif-38"/>
       <use xlink:href="#DejaVuSerif-38" transform="translate(63.623047 0)"/>
      </g>
     </g>
    </g>
    <g id="ytick_20">
     <g id="line2d_61">
      <path d="M 616.227656 270.788824 
L 849.301406 270.788824 
" clip-path="url(#pcc986b4923)" style="fill: none; stroke: #cccccc; stroke-opacity: 0.3; stroke-width: 0.8; stroke-linecap: round"/>
     </g>
     <g id="line2d_62"/>
     <g id="text_29">
      <!-- 90 -->
      <g style="fill: #262626" transform="translate(601.275156 274.20812) scale(0.09 -0.09)">
       <use xlink:href="#DejaVuSerif-39"/>
       <use xlink:href="#DejaVuSerif-30" transform="translate(63.623047 0)"/>
      </g>
     </g>
    </g>
    <g id="ytick_21">
     <g id="line2d_63">
      <path d="M 616.227656 238.520353 
L 849.301406 238.520353 
" clip-path="url(#pcc986b4923)" style="fill: none; stroke: #cccccc; stroke-opacity: 0.3; stroke-width: 0.8; stroke-linecap: round"/>
     </g>
     <g id="line2d_64"/>
     <g id="text_30">
      <!-- 92 -->
      <g style="fill: #262626" transform="translate(601.275156 241.93965) scale(0.09 -0.09)">
       <use xlink:href="#DejaVuSerif-39"/>
       <use xlink:href="#DejaVuSerif-32" transform="translate(63.623047 0)"/>
      </g>
     </g>
    </g>
    <g id="ytick_22">
     <g id="line2d_65">
      <path d="M 616.227656 206.251882 
L 849.301406 206.251882 
" clip-path="url(#pcc986b4923)" style="fill: none; stroke: #cccccc; stroke-opacity: 0.3; stroke-width: 0.8; stroke-linecap: round"/>
     </g>
     <g id="line2d_66"/>
     <g id="text_31">
      <!-- 94 -->
      <g style="fill: #262626" transform="translate(601.275156 209.671179) scale(0.09 -0.09)">
       <use xlink:href="#DejaVuSerif-39"/>
       <use xlink:href="#DejaVuSerif-34" transform="translate(63.623047 0)"/>
      </g>
     </g>
    </g>
    <g id="ytick_23">
     <g id="line2d_67">
      <path d="M 616.227656 173.983412 
L 849.301406 173.983412 
" clip-path="url(#pcc986b4923)" style="fill: none; stroke: #cccccc; stroke-opacity: 0.3; stroke-width: 0.8; stroke-linecap: round"/>
     </g>
     <g id="line2d_68"/>
     <g id="text_32">
      <!-- 96 -->
      <g style="fill: #262626" transform="translate(601.275156 177.402709) scale(0.09 -0.09)">
       <use xlink:href="#DejaVuSerif-39"/>
       <use xlink:href="#DejaVuSerif-36" transform="translate(63.623047 0)"/>
      </g>
     </g>
    </g>
    <g id="ytick_24">
     <g id="line2d_69">
      <path d="M 616.227656 141.714941 
L 849.301406 141.714941 
" clip-path="url(#pcc986b4923)" style="fill: none; stroke: #cccccc; stroke-opacity: 0.3; stroke-width: 0.8; stroke-linecap: round"/>
     </g>
     <g id="line2d_70"/>
     <g id="text_33">
      <!-- 98 -->
      <g style="fill: #262626" transform="translate(601.275156 145.134238) scale(0.09 -0.09)">
       <use xlink:href="#DejaVuSerif-39"/>
       <use xlink:href="#DejaVuSerif-38" transform="translate(63.623047 0)"/>
      </g>
     </g>
    </g>
    <g id="ytick_25">
     <g id="line2d_71">
      <path d="M 616.227656 109.446471 
L 849.301406 109.446471 
" clip-path="url(#pcc986b4923)" style="fill: none; stroke: #cccccc; stroke-opacity: 0.3; stroke-width: 0.8; stroke-linecap: round"/>
     </g>
     <g id="line2d_72"/>
     <g id="text_34">
      <!-- 100 -->
      <g style="fill: #262626" transform="translate(595.548906 112.865767) scale(0.09 -0.09)">
       <use xlink:href="#DejaVuSerif-31"/>
       <use xlink:href="#DejaVuSerif-30" transform="translate(63.623047 0)"/>
       <use xlink:href="#DejaVuSerif-30" transform="translate(127.246094 0)"/>
      </g>
     </g>
    </g>
    <g id="ytick_26">
     <g id="line2d_73">
      <path d="M 616.227656 77.178 
L 849.301406 77.178 
" clip-path="url(#pcc986b4923)" style="fill: none; stroke: #cccccc; stroke-opacity: 0.3; stroke-width: 0.8; stroke-linecap: round"/>
     </g>
     <g id="line2d_74"/>
     <g id="text_35">
      <!-- 102 -->
      <g style="fill: #262626" transform="translate(595.548906 80.597297) scale(0.09 -0.09)">
       <use xlink:href="#DejaVuSerif-31"/>
       <use xlink:href="#DejaVuSerif-30" transform="translate(63.623047 0)"/>
       <use xlink:href="#DejaVuSerif-32" transform="translate(127.246094 0)"/>
      </g>
     </g>
    </g>
    <g id="text_36">
     <!-- Accuracy (%) -->
     <g style="fill: #262626" transform="translate(589.104844 251.354625) rotate(-90) scale(0.11 -0.11)">
      <use xlink:href="#DejaVuSerif-41"/>
      <use xlink:href="#DejaVuSerif-63" transform="translate(72.216797 0)"/>
      <use xlink:href="#DejaVuSerif-63" transform="translate(128.222656 0)"/>
      <use xlink:href="#DejaVuSerif-75" transform="translate(184.228516 0)"/>
      <use xlink:href="#DejaVuSerif-72" transform="translate(248.632812 0)"/>
      <use xlink:href="#DejaVuSerif-61" transform="translate(296.435547 0)"/>
      <use xlink:href="#DejaVuSerif-63" transform="translate(356.054688 0)"/>
      <use xlink:href="#DejaVuSerif-79" transform="translate(412.060547 0)"/>
      <use xlink:href="#DejaVuSerif-20" transform="translate(468.554688 0)"/>
      <use xlink:href="#DejaVuSerif-28" transform="translate(500.341797 0)"/>
      <use xlink:href="#DejaVuSerif-25" transform="translate(539.355469 0)"/>
      <use xlink:href="#DejaVuSerif-29" transform="translate(634.375 0)"/>
     </g>
    </g>
   </g>
   <g id="patch_15">
    <path d="M 662.842406 109.446471 
L 802.686656 109.446471 
L 802.686656 109.446471 
L 662.842406 109.446471 
L 662.842406 109.446471 
z
" clip-path="url(#pcc986b4923)" style="fill: #e74c3c; opacity: 0.7; stroke: #000000; stroke-linejoin: miter"/>
   </g>
   <g id="line2d_75">
    <path d="M 732.764531 109.446471 
L 732.764531 109.446471 
" clip-path="url(#pcc986b4923)" style="fill: none; stroke: #000000; stroke-linecap: round"/>
   </g>
   <g id="line2d_76">
    <path d="M 732.764531 109.446471 
L 732.764531 109.446471 
" clip-path="url(#pcc986b4923)" style="fill: none; stroke: #000000; stroke-linecap: round"/>
   </g>
   <g id="line2d_77">
    <path d="M 697.803469 109.446471 
L 767.725594 109.446471 
" clip-path="url(#pcc986b4923)" style="fill: none; stroke: #000000; stroke-linecap: round"/>
   </g>
   <g id="line2d_78">
    <path d="M 697.803469 109.446471 
L 767.725594 109.446471 
" clip-path="url(#pcc986b4923)" style="fill: none; stroke: #000000; stroke-linecap: round"/>
   </g>
   <g id="line2d_79"/>
   <g id="line2d_80">
    <path d="M 616.227656 109.446471 
L 849.301406 109.446471 
" clip-path="url(#pcc986b4923)" style="fill: none; stroke-dasharray: 7.4,3.2; stroke-dashoffset: 0; stroke: #ff0000; stroke-width: 2"/>
   </g>
   <g id="line2d_81">
    <path d="M 662.842406 109.446471 
L 802.686656 109.446471 
" clip-path="url(#pcc986b4923)" style="fill: none; stroke: #000000; stroke-width: 2"/>
   </g>
   <g id="patch_16">
    <path d="M 616.227656 351.46 
L 616.227656 77.178 
" style="fill: none; stroke: #cccccc; stroke-linejoin: miter; stroke-linecap: square"/>
   </g>
   <g id="patch_17">
    <path d="M 849.301406 351.46 
L 849.301406 77.178 
" style="fill: none; stroke: #cccccc; stroke-linejoin: miter; stroke-linecap: square"/>
   </g>
   <g id="patch_18">
    <path d="M 616.227656 351.46 
L 849.301406 351.46 
" style="fill: none; stroke: #cccccc; stroke-linejoin: miter; stroke-linecap: square"/>
   </g>
   <g id="patch_19">
    <path d="M 616.227656 77.178 
L 849.301406 77.178 
" style="fill: none; stroke: #cccccc; stroke-linejoin: miter; stroke-linecap: square"/>
   </g>
   <g id="text_37">
    <!-- WESAD -->
    <g style="fill: #262626" transform="translate(709.386094 58.860406) scale(0.11 -0.11)">
     <defs>
      <path id="DejaVuSerif-Bold-57" d="M 5453 0 
L 4647 0 
L 3591 3397 
L 2534 0 
L 1728 0 
L 397 4288 
L -56 4288 
L -56 4666 
L 2156 4666 
L 2156 4288 
L 1656 4288 
L 2547 1422 
L 3553 4666 
L 4441 4666 
L 5466 1369 
L 6375 4288 
L 5819 4288 
L 5819 4666 
L 7263 4666 
L 7263 4288 
L 6784 4288 
L 5453 0 
z
" transform="scale(0.015625)"/>
     </defs>
     <use xlink:href="#DejaVuSerif-Bold-57"/>
     <use xlink:href="#DejaVuSerif-Bold-45" transform="translate(112.304688 0)"/>
     <use xlink:href="#DejaVuSerif-Bold-53" transform="translate(188.525391 0)"/>
     <use xlink:href="#DejaVuSerif-Bold-41" transform="translate(260.742188 0)"/>
     <use xlink:href="#DejaVuSerif-Bold-44" transform="translate(338.330078 0)"/>
    </g>
    <!-- (n=15 subjects) -->
    <g style="fill: #262626" transform="translate(683.968359 71.178) scale(0.11 -0.11)">
     <defs>
      <path id="DejaVuSerif-Bold-31" d="M 878 0 
L 878 378 
L 1753 378 
L 1753 4153 
L 781 3578 
L 781 4044 
L 1953 4750 
L 2938 4750 
L 2938 378 
L 3816 378 
L 3816 0 
L 878 0 
z
" transform="scale(0.015625)"/>
      <path id="DejaVuSerif-Bold-35" d="M 3609 4666 
L 3609 3847 
L 1113 3847 
L 1113 2822 
Q 1319 2981 1572 3062 
Q 1825 3144 2106 3144 
Q 2969 3144 3469 2708 
Q 3969 2272 3969 1522 
Q 3969 759 3469 334 
Q 2969 -91 2069 -91 
Q 1688 -91 1311 -28 
Q 934 34 525 166 
L 525 1184 
L 900 1184 
Q 919 725 1139 500 
Q 1359 275 1791 275 
Q 2250 275 2472 583 
Q 2694 891 2694 1522 
Q 2694 2144 2476 2451 
Q 2259 2759 1819 2759 
Q 1581 2759 1395 2661 
Q 1209 2563 1050 2356 
L 738 2356 
L 738 4666 
L 3609 4666 
z
" transform="scale(0.015625)"/>
     </defs>
     <use xlink:href="#DejaVuSerif-Bold-28"/>
     <use xlink:href="#DejaVuSerif-Bold-6e" transform="translate(47.314453 0)"/>
     <use xlink:href="#DejaVuSerif-Bold-3d" transform="translate(120.019531 0)"/>
     <use xlink:href="#DejaVuSerif-Bold-31" transform="translate(203.808594 0)"/>
     <use xlink:href="#DejaVuSerif-Bold-35" transform="translate(273.388672 0)"/>
     <use xlink:href="#DejaVuSerif-Bold-20" transform="translate(342.96875 0)"/>
     <use xlink:href="#DejaVuSerif-Bold-73" transform="translate(377.783203 0)"/>
     <use xlink:href="#DejaVuSerif-Bold-75" transform="translate(434.082031 0)"/>
     <use xlink:href="#DejaVuSerif-Bold-62" transform="translate(506.787109 0)"/>
     <use xlink:href="#DejaVuSerif-Bold-6a" transform="translate(576.708984 0)"/>
     <use xlink:href="#DejaVuSerif-Bold-65" transform="translate(612.890625 0)"/>
     <use xlink:href="#DejaVuSerif-Bold-63" transform="translate(676.513672 0)"/>
     <use xlink:href="#DejaVuSerif-Bold-74" transform="translate(737.402344 0)"/>
     <use xlink:href="#DejaVuSerif-Bold-73" transform="translate(783.59375 0)"/>
     <use xlink:href="#DejaVuSerif-Bold-29" transform="translate(839.892578 0)"/>
    </g>
   </g>
   <g id="PathCollection_3">
    <g clip-path="url(#pcc986b4923)">
     <use xlink:href="#m0227f47e2f" x="725.766588" y="109.446471" style="fill: #00008b; fill-opacity: 0.6; stroke: #00008b; stroke-opacity: 0.6"/>
     <use xlink:href="#m0227f47e2f" x="745.036865" y="109.446471" style="fill: #00008b; fill-opacity: 0.6; stroke: #00008b; stroke-opacity: 0.6"/>
     <use xlink:href="#m0227f47e2f" x="744.382232" y="109.446471" style="fill: #00008b; fill-opacity: 0.6; stroke: #00008b; stroke-opacity: 0.6"/>
     <use xlink:href="#m0227f47e2f" x="717.801982" y="109.446471" style="fill: #00008b; fill-opacity: 0.6; stroke: #00008b; stroke-opacity: 0.6"/>
     <use xlink:href="#m0227f47e2f" x="719.077101" y="109.446471" style="fill: #00008b; fill-opacity: 0.6; stroke: #00008b; stroke-opacity: 0.6"/>
     <use xlink:href="#m0227f47e2f" x="716.775015" y="109.446471" style="fill: #00008b; fill-opacity: 0.6; stroke: #00008b; stroke-opacity: 0.6"/>
     <use xlink:href="#m0227f47e2f" x="750.093879" y="109.446471" style="fill: #00008b; fill-opacity: 0.6; stroke: #00008b; stroke-opacity: 0.6"/>
     <use xlink:href="#m0227f47e2f" x="733.58111" y="109.446471" style="fill: #00008b; fill-opacity: 0.6; stroke: #00008b; stroke-opacity: 0.6"/>
     <use xlink:href="#m0227f47e2f" x="732.276734" y="109.446471" style="fill: #00008b; fill-opacity: 0.6; stroke: #00008b; stroke-opacity: 0.6"/>
     <use xlink:href="#m0227f47e2f" x="737.943166" y="109.446471" style="fill: #00008b; fill-opacity: 0.6; stroke: #00008b; stroke-opacity: 0.6"/>
     <use xlink:href="#m0227f47e2f" x="723.782767" y="109.446471" style="fill: #00008b; fill-opacity: 0.6; stroke: #00008b; stroke-opacity: 0.6"/>
     <use xlink:href="#m0227f47e2f" x="731.083403" y="109.446471" style="fill: #00008b; fill-opacity: 0.6; stroke: #00008b; stroke-opacity: 0.6"/>
     <use xlink:href="#m0227f47e2f" x="721.731667" y="109.446471" style="fill: #00008b; fill-opacity: 0.6; stroke: #00008b; stroke-opacity: 0.6"/>
     <use xlink:href="#m0227f47e2f" x="738.409073" y="109.446471" style="fill: #00008b; fill-opacity: 0.6; stroke: #00008b; stroke-opacity: 0.6"/>
     <use xlink:href="#m0227f47e2f" x="723.892341" y="109.446471" style="fill: #00008b; fill-opacity: 0.6; stroke: #00008b; stroke-opacity: 0.6"/>
    </g>
   </g>
   <g id="legend_3">
    <g id="line2d_82">
     <path d="M 761.111406 339.79625 
L 769.111406 339.79625 
L 777.111406 339.79625 
" style="fill: none; stroke-dasharray: 7.4,3.2; stroke-dashoffset: 0; stroke: #ff0000; stroke-width: 2"/>
    </g>
    <g id="text_38">
     <!-- Mean: 100.0% -->
     <g style="fill: #262626" transform="translate(783.511406 342.59625) scale(0.08 -0.08)">
      <use xlink:href="#DejaVuSerif-4d"/>
      <use xlink:href="#DejaVuSerif-65" transform="translate(102.392578 0)"/>
      <use xlink:href="#DejaVuSerif-61" transform="translate(161.572266 0)"/>
      <use xlink:href="#DejaVuSerif-6e" transform="translate(221.191406 0)"/>
      <use xlink:href="#DejaVuSerif-3a" transform="translate(285.595703 0)"/>
      <use xlink:href="#DejaVuSerif-20" transform="translate(319.287109 0)"/>
      <use xlink:href="#DejaVuSerif-31" transform="translate(351.074219 0)"/>
      <use xlink:href="#DejaVuSerif-30" transform="translate(414.697266 0)"/>
      <use xlink:href="#DejaVuSerif-30" transform="translate(478.320312 0)"/>
      <use xlink:href="#DejaVuSerif-2e" transform="translate(541.943359 0)"/>
      <use xlink:href="#DejaVuSerif-30" transform="translate(573.730469 0)"/>
      <use xlink:href="#DejaVuSerif-25" transform="translate(637.353516 0)"/>
     </g>
    </g>
   </g>
  </g>
  <g id="text_39">
   <!-- Subject-wise Performance Variability (LOSO Cross-Validation) -->
   <g style="fill: #262626" transform="translate(185.395 17.837812) scale(0.14 -0.14)">
    <defs>
     <path id="DejaVuSerif-Bold-77" d="M 3450 3322 
L 4206 1106 
L 4831 2944 
L 4397 2944 
L 4397 3322 
L 5638 3322 
L 5638 2944 
L 5247 2944 
L 4244 0 
L 3481 0 
L 2778 2081 
L 2069 0 
L 1313 0 
L 306 2944 
L -56 2944 
L -56 3322 
L 1825 3322 
L 1825 2944 
L 1434 2944 
L 2047 1147 
L 2791 3322 
L 3450 3322 
z
" transform="scale(0.015625)"/>
     <path id="DejaVuSerif-Bold-69" d="M 588 4263 
Q 588 4516 763 4689 
Q 938 4863 1191 4863 
Q 1438 4863 1611 4689 
Q 1784 4516 1784 4263 
Q 1784 4016 1611 3842 
Q 1438 3669 1191 3669 
Q 938 3669 763 3841 
Q 588 4013 588 4263 
z
M 1797 378 
L 2272 378 
L 2272 0 
L 219 0 
L 219 378 
L 691 378 
L 691 2944 
L 219 2944 
L 219 3322 
L 1797 3322 
L 1797 378 
z
" transform="scale(0.015625)"/>
     <path id="DejaVuSerif-Bold-72" d="M 3438 3359 
L 3438 2369 
L 3084 2369 
Q 3066 2634 2941 2764 
Q 2816 2894 2578 2894 
Q 2216 2894 2006 2575 
Q 1797 2256 1797 1691 
L 1797 378 
L 2400 378 
L 2400 0 
L 219 0 
L 219 378 
L 691 378 
L 691 2944 
L 184 2944 
L 184 3322 
L 1797 3322 
L 1797 2731 
Q 1959 3078 2226 3245 
Q 2494 3413 2881 3413 
Q 2978 3413 3117 3398 
Q 3256 3384 3438 3359 
z
" transform="scale(0.015625)"/>
     <path id="DejaVuSerif-Bold-66" d="M 3097 4031 
L 2747 4031 
Q 2722 4275 2605 4394 
Q 2488 4513 2272 4513 
Q 2022 4513 1909 4333 
Q 1797 4153 1797 3750 
L 1797 3322 
L 2631 3322 
L 2631 2944 
L 1797 2944 
L 1797 378 
L 2438 378 
L 2438 0 
L 219 0 
L 219 378 
L 691 378 
L 691 2944 
L 197 2944 
L 197 3322 
L 691 3322 
L 691 3738 
Q 691 4291 1044 4577 
Q 1397 4863 2081 4863 
Q 2347 4863 2600 4833 
Q 2853 4803 3097 4744 
L 3097 4031 
z
" transform="scale(0.015625)"/>
     <path id="DejaVuSerif-Bold-6f" d="M 2138 263 
Q 2488 263 2630 563 
Q 2772 863 2772 1663 
Q 2772 2463 2631 2761 
Q 2491 3059 2138 3059 
Q 1784 3059 1640 2757 
Q 1497 2456 1497 1663 
Q 1497 869 1640 566 
Q 1784 263 2138 263 
z
M 2138 -91 
Q 1259 -91 761 376 
Q 263 844 263 1663 
Q 263 2484 761 2948 
Q 1259 3413 2138 3413 
Q 3019 3413 3516 2948 
Q 4013 2484 4013 1663 
Q 4013 844 3514 376 
Q 3016 -91 2138 -91 
z
" transform="scale(0.015625)"/>
     <path id="DejaVuSerif-Bold-6d" d="M 3884 2778 
Q 4116 3109 4384 3261 
Q 4653 3413 5013 3413 
Q 5584 3413 5867 3089 
Q 6150 2766 6150 2113 
L 6150 378 
L 6625 378 
L 6625 0 
L 4647 0 
L 4647 378 
L 5044 378 
L 5044 1947 
Q 5044 2569 4948 2731 
Q 4853 2894 4594 2894 
Q 4300 2894 4137 2667 
Q 3975 2441 3975 2022 
L 3975 378 
L 4372 378 
L 4372 0 
L 2472 0 
L 2472 378 
L 2869 378 
L 2869 1947 
Q 2869 2569 2772 2731 
Q 2675 2894 2419 2894 
Q 2122 2894 1959 2667 
Q 1797 2441 1797 2022 
L 1797 378 
L 2194 378 
L 2194 0 
L 219 0 
L 219 378 
L 691 378 
L 691 2944 
L 219 2944 
L 219 3322 
L 1797 3322 
L 1797 2853 
Q 1991 3144 2241 3278 
Q 2491 3413 2834 3413 
Q 3241 3413 3494 3258 
Q 3747 3103 3884 2778 
z
" transform="scale(0.015625)"/>
     <path id="DejaVuSerif-Bold-61" d="M 3525 2041 
L 3525 378 
L 4000 378 
L 4000 0 
L 2419 0 
L 2419 422 
Q 2200 159 1931 34 
Q 1663 -91 1319 -91 
Q 809 -91 536 182 
Q 263 456 263 966 
Q 263 1525 655 1803 
Q 1047 2081 1838 2081 
L 2419 2081 
L 2419 2278 
Q 2419 2681 2228 2873 
Q 2038 3066 1638 3066 
Q 1306 3066 1126 2930 
Q 947 2794 872 2484 
L 519 2484 
L 519 3200 
Q 816 3306 1134 3359 
Q 1453 3413 1806 3413 
Q 2697 3413 3111 3081 
Q 3525 2750 3525 2041 
z
M 2419 1044 
L 2419 1709 
L 2003 1709 
Q 1694 1709 1528 1540 
Q 1363 1372 1363 1056 
Q 1363 741 1483 584 
Q 1603 428 1850 428 
Q 2106 428 2262 597 
Q 2419 766 2419 1044 
z
" transform="scale(0.015625)"/>
     <path id="DejaVuSerif-Bold-56" d="M 5056 4666 
L 5056 4288 
L 4666 4288 
L 2906 0 
L 2163 0 
L 403 4288 
L -38 4288 
L -38 4666 
L 2150 4666 
L 2150 4288 
L 1697 4288 
L 2956 1197 
L 4225 4288 
L 3669 4288 
L 3669 4666 
L 5056 4666 
z
" transform="scale(0.015625)"/>
     <path id="DejaVuSerif-Bold-6c" d="M 1797 378 
L 2272 378 
L 2272 0 
L 219 0 
L 219 378 
L 691 378 
L 691 4488 
L 219 4488 
L 219 4863 
L 1797 4863 
L 1797 378 
z
" transform="scale(0.015625)"/>
     <path id="DejaVuSerif-Bold-79" d="M 1997 -750 
Q 1847 -1116 1634 -1269 
Q 1422 -1422 1063 -1422 
Q 909 -1422 721 -1387 
Q 534 -1353 313 -1288 
L 313 -594 
L 666 -597 
Q 675 -838 779 -953 
Q 884 -1069 1094 -1069 
Q 1297 -1069 1422 -958 
Q 1547 -847 1672 -538 
L 1722 -422 
L 275 2944 
L -84 2944 
L -84 3322 
L 1831 3322 
L 1831 2944 
L 1434 2944 
L 2278 978 
L 3066 2944 
L 2625 2944 
L 2625 3322 
L 3872 3322 
L 3872 2944 
L 3469 2944 
L 1997 -750 
z
" transform="scale(0.015625)"/>
     <path id="DejaVuSerif-Bold-4c" d="M 300 0 
L 300 378 
L 897 378 
L 897 4288 
L 300 4288 
L 300 4666 
L 2700 4666 
L 2700 4288 
L 2100 4288 
L 2100 428 
L 3938 428 
L 3938 1166 
L 4359 1166 
L 4359 0 
L 300 0 
z
" transform="scale(0.015625)"/>
     <path id="DejaVuSerif-Bold-4f" d="M 2784 288 
Q 3381 288 3672 791 
Q 3963 1294 3963 2328 
Q 3963 3366 3672 3869 
Q 3381 4372 2784 4372 
Q 2191 4372 1898 3864 
Q 1606 3356 1606 2328 
Q 1606 1303 1898 795 
Q 2191 288 2784 288 
z
M 2784 -91 
Q 1606 -91 937 553 
Q 269 1197 269 2328 
Q 269 3459 939 4104 
Q 1609 4750 2784 4750 
Q 3963 4750 4631 4106 
Q 5300 3463 5300 2328 
Q 5300 1197 4629 553 
Q 3959 -91 2784 -91 
z
" transform="scale(0.015625)"/>
     <path id="DejaVuSerif-Bold-43" d="M 4769 1331 
Q 4584 609 4106 259 
Q 3628 -91 2822 -91 
Q 1641 -91 955 561 
Q 269 1213 269 2328 
Q 269 3447 955 4098 
Q 1641 4750 2822 4750 
Q 3238 4750 3688 4650 
Q 4138 4550 4641 4347 
L 4641 3200 
L 4244 3200 
Q 4122 3788 3800 4080 
Q 3478 4372 2950 4372 
Q 2269 4372 1937 3870 
Q 1606 3369 1606 2328 
Q 1606 1288 1937 788 
Q 2269 288 2956 288 
Q 3422 288 3717 547 
Q 4013 806 4147 1331 
L 4769 1331 
z
" transform="scale(0.015625)"/>
     <path id="DejaVuSerif-Bold-64" d="M 2747 1497 
L 2747 1825 
Q 2747 2406 2597 2665 
Q 2447 2925 2119 2925 
Q 1775 2925 1636 2651 
Q 1497 2378 1497 1663 
Q 1497 947 1637 672 
Q 1778 397 2119 397 
Q 2447 397 2597 656 
Q 2747 916 2747 1497 
z
M 3853 378 
L 4325 378 
L 4325 0 
L 2747 0 
L 2747 422 
Q 2606 163 2367 36 
Q 2128 -91 1778 -91 
Q 1072 -91 667 378 
Q 263 847 263 1663 
Q 263 2481 667 2947 
Q 1072 3413 1778 3413 
Q 2128 3413 2367 3286 
Q 2606 3159 2747 2900 
L 2747 4488 
L 2272 4488 
L 2272 4863 
L 3853 4863 
L 3853 378 
z
" transform="scale(0.015625)"/>
    </defs>
    <use xlink:href="#DejaVuSerif-Bold-53"/>
    <use xlink:href="#DejaVuSerif-Bold-75" transform="translate(72.216797 0)"/>
    <use xlink:href="#DejaVuSerif-Bold-62" transform="translate(144.921875 0)"/>
    <use xlink:href="#DejaVuSerif-Bold-6a" transform="translate(214.84375 0)"/>
    <use xlink:href="#DejaVuSerif-Bold-65" transform="translate(251.025391 0)"/>
    <use xlink:href="#DejaVuSerif-Bold-63" transform="translate(314.648438 0)"/>
    <use xlink:href="#DejaVuSerif-Bold-74" transform="translate(375.537109 0)"/>
    <use xlink:href="#DejaVuSerif-Bold-2d" transform="translate(421.728516 0)"/>
    <use xlink:href="#DejaVuSerif-Bold-77" transform="translate(463.232422 0)"/>
    <use xlink:href="#DejaVuSerif-Bold-69" transform="translate(549.316406 0)"/>
    <use xlink:href="#DejaVuSerif-Bold-73" transform="translate(587.304688 0)"/>
    <use xlink:href="#DejaVuSerif-Bold-65" transform="translate(643.603516 0)"/>
    <use xlink:href="#DejaVuSerif-Bold-20" transform="translate(707.226562 0)"/>
    <use xlink:href="#DejaVuSerif-Bold-50" transform="translate(742.041016 0)"/>
    <use xlink:href="#DejaVuSerif-Bold-65" transform="translate(814.611328 0)"/>
    <use xlink:href="#DejaVuSerif-Bold-72" transform="translate(878.234375 0)"/>
    <use xlink:href="#DejaVuSerif-Bold-66" transform="translate(930.919922 0)"/>
    <use xlink:href="#DejaVuSerif-Bold-6f" transform="translate(973.9375 0)"/>
    <use xlink:href="#DejaVuSerif-Bold-72" transform="translate(1040.636719 0)"/>
    <use xlink:href="#DejaVuSerif-Bold-6d" transform="translate(1093.322266 0)"/>
    <use xlink:href="#DejaVuSerif-Bold-61" transform="translate(1199.132812 0)"/>
    <use xlink:href="#DejaVuSerif-Bold-6e" transform="translate(1263.927734 0)"/>
    <use xlink:href="#DejaVuSerif-Bold-63" transform="translate(1336.632812 0)"/>
    <use xlink:href="#DejaVuSerif-Bold-65" transform="translate(1397.521484 0)"/>
    <use xlink:href="#DejaVuSerif-Bold-20" transform="translate(1461.144531 0)"/>
    <use xlink:href="#DejaVuSerif-Bold-56" transform="translate(1495.958984 0)"/>
    <use xlink:href="#DejaVuSerif-Bold-61" transform="translate(1564.421875 0)"/>
    <use xlink:href="#DejaVuSerif-Bold-72" transform="translate(1629.216797 0)"/>
    <use xlink:href="#DejaVuSerif-Bold-69" transform="translate(1681.902344 0)"/>
    <use xlink:href="#DejaVuSerif-Bold-61" transform="translate(1719.890625 0)"/>
    <use xlink:href="#DejaVuSerif-Bold-62" transform="translate(1784.685547 0)"/>
    <use xlink:href="#DejaVuSerif-Bold-69" transform="translate(1854.607422 0)"/>
    <use xlink:href="#DejaVuSerif-Bold-6c" transform="translate(1892.595703 0)"/>
    <use xlink:href="#DejaVuSerif-Bold-69" transform="translate(1930.583984 0)"/>
    <use xlink:href="#DejaVuSerif-Bold-74" transform="translate(1968.572266 0)"/>
    <use xlink:href="#DejaVuSerif-Bold-79" transform="translate(2014.763672 0)"/>
    <use xlink:href="#DejaVuSerif-Bold-20" transform="translate(2072.869141 0)"/>
    <use xlink:href="#DejaVuSerif-Bold-28" transform="translate(2107.683594 0)"/>
    <use xlink:href="#DejaVuSerif-Bold-4c" transform="translate(2154.998047 0)"/>
    <use xlink:href="#DejaVuSerif-Bold-4f" transform="translate(2225.310547 0)"/>
    <use xlink:href="#DejaVuSerif-Bold-53" transform="translate(2312.419922 0)"/>
    <use xlink:href="#DejaVuSerif-Bold-4f" transform="translate(2384.636719 0)"/>
    <use xlink:href="#DejaVuSerif-Bold-20" transform="translate(2471.746094 0)"/>
    <use xlink:href="#DejaVuSerif-Bold-43" transform="translate(2506.560547 0)"/>
    <use xlink:href="#DejaVuSerif-Bold-72" transform="translate(2586.150391 0)"/>
    <use xlink:href="#DejaVuSerif-Bold-6f" transform="translate(2638.835938 0)"/>
    <use xlink:href="#DejaVuSerif-Bold-73" transform="translate(2705.535156 0)"/>
    <use xlink:href="#DejaVuSerif-Bold-73" transform="translate(2761.833984 0)"/>
    <use xlink:href="#DejaVuSerif-Bold-2d" transform="translate(2818.132812 0)"/>
    <use xlink:href="#DejaVuSerif-Bold-56" transform="translate(2852.386719 0)"/>
    <use xlink:href="#DejaVuSerif-Bold-61" transform="translate(2920.849609 0)"/>
    <use xlink:href="#DejaVuSerif-Bold-6c" transform="translate(2985.644531 0)"/>
    <use xlink:href="#DejaVuSerif-Bold-69" transform="translate(3023.632812 0)"/>
    <use xlink:href="#DejaVuSerif-Bold-64" transform="translate(3061.621094 0)"/>
    <use xlink:href="#DejaVuSerif-Bold-61" transform="translate(3131.542969 0)"/>
    <use xlink:href="#DejaVuSerif-Bold-74" transform="translate(3196.337891 0)"/>
    <use xlink:href="#DejaVuSerif-Bold-69" transform="translate(3242.529297 0)"/>
    <use xlink:href="#DejaVuSerif-Bold-6f" transform="translate(3280.517578 0)"/>
    <use xlink:href="#DejaVuSerif-Bold-6e" transform="translate(3347.216797 0)"/>
    <use xlink:href="#DejaVuSerif-Bold-29" transform="translate(3419.921875 0)"/>
   </g>
  </g>
 </g>
 <defs>
  <clipPath id="pfdfcde4411">
   <rect x="51.267656" y="77.178" width="233.07375" height="274.282"/>
  </clipPath>
  <clipPath id="p878ae8f081">
   <rect x="333.747656" y="77.178" width="233.07375" height="274.282"/>
  </clipPath>
  <clipPath id="pcc986b4923">
   <rect x="616.227656" y="77.178" width="233.07375" height="274.282"/>
  </clipPath>
 </defs>
</svg>
